<?xml version="1.0" encoding="UTF-8" standalone="no"?>
<!DOCTYPE svg PUBLIC "-//W3C//DTD SVG 1.1//EN"
 "http://www.w3.org/Graphics/SVG/1.1/DTD/svg11.dtd">
<!-- Generated by graphviz version 2.43.0 (0)
 -->
<!-- Title: hierarchy Pages: 1 -->
<svg width="1412pt" height="298pt"
 viewBox="0.00 0.00 1412.26 298.00" xmlns="http://www.w3.org/2000/svg" xmlns:xlink="http://www.w3.org/1999/xlink">
<g id="graph0" class="graph" transform="scale(1 1) rotate(0) translate(4 294)">
<title>hierarchy</title>
<polygon fill="white" stroke="transparent" points="-4,4 -4,-294 1408.26,-294 1408.26,4 -4,4"/>
<text text-anchor="middle" x="702.13" y="-22.8" font-family="Open Sans" font-size="14.00">requirements.yml dependency graph of all roles </text>
<text text-anchor="middle" x="702.13" y="-7.8" font-family="Open Sans" font-size="14.00"> Generated by JonasPammer/ansible&#45;roles</text>
<!-- jonaspammer.bootstrap -->
<g id="node1" class="node">
<title>jonaspammer.bootstrap</title>
<ellipse fill="green" stroke="black" cx="653.82" cy="-56" rx="118.08" ry="18"/>
<text text-anchor="middle" x="653.82" y="-52.3" font-family="Open Sans" font-size="14.00">jonaspammer.bootstrap</text>
</g>
<!-- jonaspammer.core_dependencies -->
<g id="node2" class="node">
<title>jonaspammer.core_dependencies</title>
<ellipse fill="yellow" stroke="black" cx="369.82" cy="-128" rx="161.37" ry="18"/>
<text text-anchor="middle" x="369.82" y="-124.3" font-family="Open Sans" font-size="14.00">jonaspammer.core_dependencies</text>
</g>
<!-- jonaspammer.core_dependencies&#45;&gt;jonaspammer.bootstrap -->
<g id="edge1" class="edge">
<title>jonaspammer.core_dependencies&#45;&gt;jonaspammer.bootstrap</title>
<path fill="none" stroke="black" d="M433.2,-111.38C478.13,-100.3 538.4,-85.45 584.58,-74.07"/>
<polygon fill="black" stroke="black" points="585.64,-77.41 594.51,-71.62 583.97,-70.61 585.64,-77.41"/>
</g>
<!-- jonaspammer.pip -->
<g id="node3" class="node">
<title>jonaspammer.pip</title>
<ellipse fill="yellow" stroke="black" cx="789.82" cy="-128" rx="89.08" ry="18"/>
<text text-anchor="middle" x="789.82" y="-124.3" font-family="Open Sans" font-size="14.00">jonaspammer.pip</text>
</g>
<!-- jonaspammer.pip&#45;&gt;jonaspammer.bootstrap -->
<g id="edge2" class="edge">
<title>jonaspammer.pip&#45;&gt;jonaspammer.bootstrap</title>
<path fill="none" stroke="black" d="M758.62,-110.94C739.71,-101.21 715.38,-88.68 694.92,-78.15"/>
<polygon fill="black" stroke="black" points="696.31,-74.94 685.82,-73.47 693.11,-81.16 696.31,-74.94"/>
</g>
<!-- jonaspammer.shellcheck -->
<g id="node4" class="node">
<title>jonaspammer.shellcheck</title>
<ellipse fill="orange" stroke="black" cx="489.82" cy="-200" rx="122.38" ry="18"/>
<text text-anchor="middle" x="489.82" y="-196.3" font-family="Open Sans" font-size="14.00">jonaspammer.shellcheck</text>
</g>
<!-- jonaspammer.shellcheck&#45;&gt;jonaspammer.bootstrap -->
<g id="edge3" class="edge">
<title>jonaspammer.shellcheck&#45;&gt;jonaspammer.bootstrap</title>
<path fill="none" stroke="black" d="M509.28,-182.15C538.38,-156.96 593.34,-109.37 626.47,-80.68"/>
<polygon fill="black" stroke="black" points="629.12,-83.02 634.39,-73.82 624.54,-77.72 629.12,-83.02"/>
</g>
<!-- jonaspammer.shellcheck&#45;&gt;jonaspammer.core_dependencies -->
<g id="edge4" class="edge">
<title>jonaspammer.shellcheck&#45;&gt;jonaspammer.core_dependencies</title>
<path fill="none" stroke="black" d="M461.38,-182.41C445.33,-173.05 425.06,-161.22 407.68,-151.08"/>
<polygon fill="black" stroke="black" points="409.29,-147.97 398.89,-145.96 405.76,-154.02 409.29,-147.97"/>
</g>
<!-- jonaspammer.checkmk_server -->
<g id="node5" class="node">
<title>jonaspammer.checkmk_server</title>
<ellipse fill="orange" stroke="black" cx="163.82" cy="-200" rx="148.37" ry="18"/>
<text text-anchor="middle" x="163.82" y="-196.3" font-family="Open Sans" font-size="14.00">jonaspammer.checkmk_server</text>
</g>
<!-- jonaspammer.checkmk_server&#45;&gt;jonaspammer.bootstrap -->
<g id="edge5" class="edge">
<title>jonaspammer.checkmk_server&#45;&gt;jonaspammer.bootstrap</title>
<path fill="none" stroke="black" d="M165.6,-181.79C168.71,-161.18 177.15,-127.28 199.82,-110 249.49,-72.14 409.73,-60.8 525.78,-57.68"/>
<polygon fill="black" stroke="black" points="525.91,-61.18 535.82,-57.43 525.73,-54.18 525.91,-61.18"/>
</g>
<!-- jonaspammer.checkmk_server&#45;&gt;jonaspammer.core_dependencies -->
<g id="edge6" class="edge">
<title>jonaspammer.checkmk_server&#45;&gt;jonaspammer.core_dependencies</title>
<path fill="none" stroke="black" d="M211.34,-182.85C241.38,-172.64 280.4,-159.38 312.21,-148.58"/>
<polygon fill="black" stroke="black" points="313.48,-151.84 321.83,-145.31 311.23,-145.21 313.48,-151.84"/>
</g>
<!-- jonaspammer.checkmk_agent -->
<g id="node6" class="node">
<title>jonaspammer.checkmk_agent</title>
<ellipse fill="red" stroke="black" cx="163.82" cy="-272" rx="145.67" ry="18"/>
<text text-anchor="middle" x="163.82" y="-268.3" font-family="Open Sans" font-size="14.00">jonaspammer.checkmk_agent</text>
</g>
<!-- jonaspammer.checkmk_agent&#45;&gt;jonaspammer.bootstrap -->
<g id="edge7" class="edge">
<title>jonaspammer.checkmk_agent&#45;&gt;jonaspammer.bootstrap</title>
<path fill="none" stroke="black" d="M67.16,-258.51C43.7,-250.67 21.25,-238.1 6.82,-218 -2.51,-205 -1.94,-195.39 6.82,-182 62.92,-96.31 357.07,-69.34 528.82,-60.86"/>
<polygon fill="black" stroke="black" points="529.11,-64.35 538.94,-60.38 528.78,-57.36 529.11,-64.35"/>
</g>
<!-- jonaspammer.checkmk_agent&#45;&gt;jonaspammer.core_dependencies -->
<g id="edge8" class="edge">
<title>jonaspammer.checkmk_agent&#45;&gt;jonaspammer.core_dependencies</title>
<path fill="none" stroke="black" d="M242.28,-256.74C269.39,-248.82 298.53,-236.64 320.82,-218 340.29,-201.71 353.36,-175.61 361.06,-155.88"/>
<polygon fill="black" stroke="black" points="364.45,-156.82 364.61,-146.22 357.88,-154.4 364.45,-156.82"/>
</g>
<!-- jonaspammer.checkmk_agent&#45;&gt;jonaspammer.checkmk_server -->
<g id="edge9" class="edge">
<title>jonaspammer.checkmk_agent&#45;&gt;jonaspammer.checkmk_server</title>
<path fill="none" stroke="black" d="M163.82,-253.7C163.82,-245.98 163.82,-236.71 163.82,-228.11"/>
<polygon fill="black" stroke="black" points="167.32,-228.1 163.82,-218.1 160.32,-228.1 167.32,-228.1"/>
</g>
<!-- jonaspammer.openssh -->
<g id="node7" class="node">
<title>jonaspammer.openssh</title>
<ellipse fill="orange" stroke="black" cx="1291.82" cy="-128" rx="112.38" ry="18"/>
<text text-anchor="middle" x="1291.82" y="-124.3" font-family="Open Sans" font-size="14.00">jonaspammer.openssh</text>
</g>
<!-- jonaspammer.openssh&#45;&gt;jonaspammer.bootstrap -->
<g id="edge10" class="edge">
<title>jonaspammer.openssh&#45;&gt;jonaspammer.bootstrap</title>
<path fill="none" stroke="black" d="M1211.48,-115.39C1197.6,-113.5 1183.3,-111.63 1169.82,-110 1029.44,-93.02 867.14,-76.93 762.62,-67.03"/>
<polygon fill="black" stroke="black" points="762.66,-63.51 752.38,-66.06 762.01,-70.48 762.66,-63.51"/>
</g>
<!-- robertdebock.selinux -->
<g id="node13" class="node">
<title>robertdebock.selinux</title>
<ellipse fill="none" stroke="black" cx="1291.82" cy="-56" rx="105.88" ry="18"/>
<text text-anchor="middle" x="1291.82" y="-52.3" font-family="Open Sans" font-size="14.00">robertdebock.selinux</text>
</g>
<!-- jonaspammer.openssh&#45;&gt;robertdebock.selinux -->
<g id="edge11" class="edge">
<title>jonaspammer.openssh&#45;&gt;robertdebock.selinux</title>
<path fill="none" stroke="black" d="M1291.82,-109.7C1291.82,-101.98 1291.82,-92.71 1291.82,-84.11"/>
<polygon fill="black" stroke="black" points="1295.32,-84.1 1291.82,-74.1 1288.32,-84.1 1295.32,-84.1"/>
</g>
<!-- jonaspammer.motd -->
<g id="node8" class="node">
<title>jonaspammer.motd</title>
<ellipse fill="orange" stroke="black" cx="564.82" cy="-272" rx="98.28" ry="18"/>
<text text-anchor="middle" x="564.82" y="-268.3" font-family="Open Sans" font-size="14.00">jonaspammer.motd</text>
</g>
<!-- jonaspammer.motd&#45;&gt;jonaspammer.bootstrap -->
<g id="edge12" class="edge">
<title>jonaspammer.motd&#45;&gt;jonaspammer.bootstrap</title>
<path fill="none" stroke="black" d="M588.26,-254.37C599.79,-244.98 612.88,-232.27 620.82,-218 644.49,-175.43 651.27,-118.05 653.16,-84.53"/>
<polygon fill="black" stroke="black" points="656.67,-84.29 653.63,-74.14 649.68,-83.97 656.67,-84.29"/>
</g>
<!-- jonaspammer.motd&#45;&gt;jonaspammer.shellcheck -->
<g id="edge13" class="edge">
<title>jonaspammer.motd&#45;&gt;jonaspammer.shellcheck</title>
<path fill="none" stroke="black" d="M546.67,-254.05C537.34,-245.35 525.81,-234.59 515.58,-225.04"/>
<polygon fill="black" stroke="black" points="517.77,-222.3 508.07,-218.03 512.99,-227.41 517.77,-222.3"/>
</g>
<!-- jonaspammer.apache2 -->
<g id="node9" class="node">
<title>jonaspammer.apache2</title>
<ellipse fill="yellow" stroke="black" cx="1047.82" cy="-128" rx="113.18" ry="18"/>
<text text-anchor="middle" x="1047.82" y="-124.3" font-family="Open Sans" font-size="14.00">jonaspammer.apache2</text>
</g>
<!-- jonaspammer.apache2&#45;&gt;jonaspammer.bootstrap -->
<g id="edge14" class="edge">
<title>jonaspammer.apache2&#45;&gt;jonaspammer.bootstrap</title>
<path fill="none" stroke="black" d="M975.1,-114.08C908.02,-102.16 808.46,-84.47 737.97,-71.95"/>
<polygon fill="black" stroke="black" points="738.25,-68.45 727.79,-70.14 737.03,-75.34 738.25,-68.45"/>
</g>
<!-- jonaspammer.openssl -->
<g id="node10" class="node">
<title>jonaspammer.openssl</title>
<ellipse fill="orange" stroke="black" cx="785.82" cy="-200" rx="109.38" ry="18"/>
<text text-anchor="middle" x="785.82" y="-196.3" font-family="Open Sans" font-size="14.00">jonaspammer.openssl</text>
</g>
<!-- jonaspammer.openssl&#45;&gt;jonaspammer.bootstrap -->
<g id="edge15" class="edge">
<title>jonaspammer.openssl&#45;&gt;jonaspammer.bootstrap</title>
<path fill="none" stroke="black" d="M744.77,-183.08C726.62,-174.37 706.2,-162.05 691.82,-146 676.03,-128.37 666.11,-103.18 660.38,-84.1"/>
<polygon fill="black" stroke="black" points="663.68,-82.9 657.62,-74.21 656.94,-84.79 663.68,-82.9"/>
</g>
<!-- jonaspammer.openssl&#45;&gt;jonaspammer.pip -->
<g id="edge16" class="edge">
<title>jonaspammer.openssl&#45;&gt;jonaspammer.pip</title>
<path fill="none" stroke="black" d="M786.81,-181.7C787.25,-173.98 787.78,-164.71 788.27,-156.11"/>
<polygon fill="black" stroke="black" points="791.77,-156.29 788.84,-146.1 784.78,-155.89 791.77,-156.29"/>
</g>
<!-- jonaspammer.goaccess -->
<g id="node11" class="node">
<title>jonaspammer.goaccess</title>
<ellipse fill="orange" stroke="black" cx="1038.82" cy="-200" rx="116.18" ry="18"/>
<text text-anchor="middle" x="1038.82" y="-196.3" font-family="Open Sans" font-size="14.00">jonaspammer.goaccess</text>
</g>
<!-- jonaspammer.goaccess&#45;&gt;jonaspammer.bootstrap -->
<g id="edge17" class="edge">
<title>jonaspammer.goaccess&#45;&gt;jonaspammer.bootstrap</title>
<path fill="none" stroke="black" d="M996.84,-183.11C974.79,-173.84 947.84,-161.02 925.82,-146 906.6,-132.89 908.34,-120.96 887.82,-110 848.36,-88.93 800.83,-76.21 758.94,-68.54"/>
<polygon fill="black" stroke="black" points="759.44,-65.07 748.99,-66.79 758.23,-71.97 759.44,-65.07"/>
</g>
<!-- jonaspammer.goaccess&#45;&gt;jonaspammer.apache2 -->
<g id="edge18" class="edge">
<title>jonaspammer.goaccess&#45;&gt;jonaspammer.apache2</title>
<path fill="none" stroke="black" d="M1041.05,-181.7C1042.04,-173.98 1043.23,-164.71 1044.33,-156.11"/>
<polygon fill="black" stroke="black" points="1047.82,-156.47 1045.62,-146.1 1040.88,-155.58 1047.82,-156.47"/>
</g>
<!-- jonaspammer.mediawiki -->
<g id="node12" class="node">
<title>jonaspammer.mediawiki</title>
<ellipse fill="green" stroke="black" cx="800.82" cy="-272" rx="120.48" ry="18"/>
<text text-anchor="middle" x="800.82" y="-268.3" font-family="Open Sans" font-size="14.00">jonaspammer.mediawiki</text>
</g>
</g>
</svg>
