<?xml version="1.0" encoding="UTF-8" standalone="no"?>
<!DOCTYPE svg PUBLIC "-//W3C//DTD SVG 1.1//EN"
 "http://www.w3.org/Graphics/SVG/1.1/DTD/svg11.dtd">
<!-- Generated by graphviz version 2.43.0 (0)
 -->
<!-- Title: hierarchy Pages: 1 -->
<svg width="1406pt" height="298pt"
 viewBox="0.00 0.00 1406.38 298.00" xmlns="http://www.w3.org/2000/svg" xmlns:xlink="http://www.w3.org/1999/xlink">
<g id="graph0" class="graph" transform="scale(1 1) rotate(0) translate(4 294)">
<title>hierarchy</title>
<polygon fill="white" stroke="transparent" points="-4,4 -4,-294 1402.38,-294 1402.38,4 -4,4"/>
<text text-anchor="middle" x="699.19" y="-22.8" font-family="Open Sans" font-size="14.00">requirements.yml dependency graph of all roles </text>
<text text-anchor="middle" x="699.19" y="-7.8" font-family="Open Sans" font-size="14.00"> Generated by JonasPammer/ansible&#45;roles</text>
<!-- jonaspammer.bootstrap -->
<g id="node1" class="node">
<title>jonaspammer.bootstrap</title>
<ellipse fill="green" stroke="black" cx="497.14" cy="-56" rx="118.08" ry="18"/>
<text text-anchor="middle" x="497.14" y="-52.3" font-family="Open Sans" font-size="14.00">jonaspammer.bootstrap</text>
</g>
<!-- jonaspammer.core_dependencies -->
<g id="node2" class="node">
<title>jonaspammer.core_dependencies</title>
<ellipse fill="yellow" stroke="black" cx="250.14" cy="-128" rx="161.37" ry="18"/>
<text text-anchor="middle" x="250.14" y="-124.3" font-family="Open Sans" font-size="14.00">jonaspammer.core_dependencies</text>
</g>
<!-- jonaspammer.core_dependencies&#45;&gt;jonaspammer.bootstrap -->
<g id="edge1" class="edge">
<title>jonaspammer.core_dependencies&#45;&gt;jonaspammer.bootstrap</title>
<path fill="none" stroke="black" d="M306.19,-111.12C344.24,-100.33 394.62,-86.06 434.07,-74.87"/>
<polygon fill="black" stroke="black" points="435.19,-78.2 443.85,-72.1 433.28,-71.46 435.19,-78.2"/>
</g>
<!-- jonaspammer.pip -->
<g id="node3" class="node">
<title>jonaspammer.pip</title>
<ellipse fill="yellow" stroke="black" cx="556.14" cy="-128" rx="89.08" ry="18"/>
<text text-anchor="middle" x="556.14" y="-124.3" font-family="Open Sans" font-size="14.00">jonaspammer.pip</text>
</g>
<!-- jonaspammer.pip&#45;&gt;jonaspammer.bootstrap -->
<g id="edge2" class="edge">
<title>jonaspammer.pip&#45;&gt;jonaspammer.bootstrap</title>
<path fill="none" stroke="black" d="M541.86,-110.05C534.79,-101.67 526.12,-91.38 518.29,-82.1"/>
<polygon fill="black" stroke="black" points="520.82,-79.67 511.7,-74.28 515.47,-84.18 520.82,-79.67"/>
</g>
<!-- jonaspammer.shellcheck -->
<g id="node4" class="node">
<title>jonaspammer.shellcheck</title>
<ellipse fill="orange" stroke="black" cx="173.14" cy="-200" rx="122.38" ry="18"/>
<text text-anchor="middle" x="173.14" y="-196.3" font-family="Open Sans" font-size="14.00">jonaspammer.shellcheck</text>
</g>
<!-- jonaspammer.shellcheck&#45;&gt;jonaspammer.bootstrap -->
<g id="edge3" class="edge">
<title>jonaspammer.shellcheck&#45;&gt;jonaspammer.bootstrap</title>
<path fill="none" stroke="black" d="M124.96,-183.28C107.68,-175.05 90.04,-163.03 80.14,-146 72.1,-132.17 69.56,-122.01 80.14,-110 99.76,-87.74 262.75,-72.37 379.03,-64.12"/>
<polygon fill="black" stroke="black" points="379.34,-67.61 389.07,-63.42 378.85,-60.63 379.34,-67.61"/>
</g>
<!-- jonaspammer.shellcheck&#45;&gt;jonaspammer.core_dependencies -->
<g id="edge4" class="edge">
<title>jonaspammer.shellcheck&#45;&gt;jonaspammer.core_dependencies</title>
<path fill="none" stroke="black" d="M191.78,-182.05C201.45,-173.26 213.42,-162.38 224,-152.76"/>
<polygon fill="black" stroke="black" points="226.36,-155.35 231.41,-146.03 221.65,-150.17 226.36,-155.35"/>
</g>
<!-- jonaspammer.motd -->
<g id="node5" class="node">
<title>jonaspammer.motd</title>
<ellipse fill="orange" stroke="black" cx="98.14" cy="-272" rx="98.28" ry="18"/>
<text text-anchor="middle" x="98.14" y="-268.3" font-family="Open Sans" font-size="14.00">jonaspammer.motd</text>
</g>
<!-- jonaspammer.motd&#45;&gt;jonaspammer.bootstrap -->
<g id="edge5" class="edge">
<title>jonaspammer.motd&#45;&gt;jonaspammer.bootstrap</title>
<path fill="none" stroke="black" d="M72.9,-254.51C61.19,-245.32 48.49,-232.75 42.14,-218 22.58,-172.55 30.29,-140.63 69.14,-110 114.47,-74.26 260.46,-62.35 369.41,-58.52"/>
<polygon fill="black" stroke="black" points="369.62,-62.02 379.5,-58.19 369.39,-55.02 369.62,-62.02"/>
</g>
<!-- jonaspammer.motd&#45;&gt;jonaspammer.shellcheck -->
<g id="edge6" class="edge">
<title>jonaspammer.motd&#45;&gt;jonaspammer.shellcheck</title>
<path fill="none" stroke="black" d="M116.3,-254.05C125.62,-245.35 137.15,-234.59 147.38,-225.04"/>
<polygon fill="black" stroke="black" points="149.97,-227.41 154.89,-218.03 145.19,-222.3 149.97,-227.41"/>
</g>
<!-- jonaspammer.apache2 -->
<g id="node6" class="node">
<title>jonaspammer.apache2</title>
<ellipse fill="yellow" stroke="black" cx="776.14" cy="-128" rx="113.18" ry="18"/>
<text text-anchor="middle" x="776.14" y="-124.3" font-family="Open Sans" font-size="14.00">jonaspammer.apache2</text>
</g>
<!-- jonaspammer.apache2&#45;&gt;jonaspammer.bootstrap -->
<g id="edge7" class="edge">
<title>jonaspammer.apache2&#45;&gt;jonaspammer.bootstrap</title>
<path fill="none" stroke="black" d="M718.33,-112.5C673.93,-101.35 612.47,-85.94 565.6,-74.18"/>
<polygon fill="black" stroke="black" points="566.39,-70.77 555.84,-71.73 564.68,-77.55 566.39,-70.77"/>
</g>
<!-- jonaspammer.openssl -->
<g id="node7" class="node">
<title>jonaspammer.openssl</title>
<ellipse fill="orange" stroke="black" cx="497.14" cy="-200" rx="109.38" ry="18"/>
<text text-anchor="middle" x="497.14" y="-196.3" font-family="Open Sans" font-size="14.00">jonaspammer.openssl</text>
</g>
<!-- jonaspammer.openssl&#45;&gt;jonaspammer.bootstrap -->
<g id="edge8" class="edge">
<title>jonaspammer.openssl&#45;&gt;jonaspammer.bootstrap</title>
<path fill="none" stroke="black" d="M480.25,-181.99C471.85,-172.31 462.56,-159.46 458.14,-146 453.15,-130.8 453.15,-125.2 458.14,-110 461.46,-99.91 467.51,-90.15 473.87,-81.82"/>
<polygon fill="black" stroke="black" points="476.64,-83.97 480.25,-74.01 471.22,-79.54 476.64,-83.97"/>
</g>
<!-- jonaspammer.openssl&#45;&gt;jonaspammer.pip -->
<g id="edge9" class="edge">
<title>jonaspammer.openssl&#45;&gt;jonaspammer.pip</title>
<path fill="none" stroke="black" d="M511.42,-182.05C518.6,-173.54 527.43,-163.07 535.34,-153.68"/>
<polygon fill="black" stroke="black" points="538.22,-155.69 541.99,-145.79 532.87,-151.18 538.22,-155.69"/>
</g>
<!-- jonaspammer.goaccess -->
<g id="node8" class="node">
<title>jonaspammer.goaccess</title>
<ellipse fill="yellow" stroke="black" cx="1023.14" cy="-128" rx="116.18" ry="18"/>
<text text-anchor="middle" x="1023.14" y="-124.3" font-family="Open Sans" font-size="14.00">jonaspammer.goaccess</text>
</g>
<!-- jonaspammer.goaccess&#45;&gt;jonaspammer.bootstrap -->
<g id="edge10" class="edge">
<title>jonaspammer.goaccess&#45;&gt;jonaspammer.bootstrap</title>
<path fill="none" stroke="black" d="M939.1,-115.53C925.41,-113.67 911.38,-111.78 898.14,-110 794.18,-96.06 675.03,-80.35 593.8,-69.67"/>
<polygon fill="black" stroke="black" points="593.96,-66.16 583.59,-68.33 593.05,-73.1 593.96,-66.16"/>
</g>
<!-- jonaspammer.mediawiki -->
<g id="node9" class="node">
<title>jonaspammer.mediawiki</title>
<ellipse fill="yellow" stroke="black" cx="1278.14" cy="-128" rx="120.48" ry="18"/>
<text text-anchor="middle" x="1278.14" y="-124.3" font-family="Open Sans" font-size="14.00">jonaspammer.mediawiki</text>
</g>
<!-- jonaspammer.mediawiki&#45;&gt;jonaspammer.bootstrap -->
<g id="edge11" class="edge">
<title>jonaspammer.mediawiki&#45;&gt;jonaspammer.bootstrap</title>
<path fill="none" stroke="black" d="M1192.9,-115.25C1178,-113.37 1162.63,-111.54 1148.14,-110 961.31,-90.19 743.63,-73.82 613.29,-64.74"/>
<polygon fill="black" stroke="black" points="613.5,-61.25 603.28,-64.04 613.02,-68.23 613.5,-61.25"/>
</g>
</g>
</svg>
