<?xml version="1.0" encoding="UTF-8" standalone="no"?>
<!DOCTYPE svg PUBLIC "-//W3C//DTD SVG 1.1//EN"
 "http://www.w3.org/Graphics/SVG/1.1/DTD/svg11.dtd">
<!-- Generated by graphviz version 2.43.0 (0)
 -->
<!-- Title: hierarchy Pages: 1 -->
<svg width="1376pt" height="298pt"
 viewBox="0.00 0.00 1375.58 298.00" xmlns="http://www.w3.org/2000/svg" xmlns:xlink="http://www.w3.org/1999/xlink">
<g id="graph0" class="graph" transform="scale(1 1) rotate(0) translate(4 294)">
<title>hierarchy</title>
<polygon fill="white" stroke="transparent" points="-4,4 -4,-294 1371.58,-294 1371.58,4 -4,4"/>
<text text-anchor="middle" x="683.79" y="-22.8" font-family="Open Sans" font-size="14.00">requirements.yml dependency graph of all roles </text>
<text text-anchor="middle" x="683.79" y="-7.8" font-family="Open Sans" font-size="14.00"> Generated by JonasPammer/ansible&#45;roles</text>
<!-- jonaspammer.bootstrap -->
<g id="node1" class="node">
<title>jonaspammer.bootstrap</title>
<ellipse fill="green" stroke="black" cx="637.14" cy="-56" rx="118.08" ry="18"/>
<text text-anchor="middle" x="637.14" y="-52.3" font-family="Open Sans" font-size="14.00">jonaspammer.bootstrap</text>
</g>
<!-- jonaspammer.core_dependencies -->
<g id="node2" class="node">
<title>jonaspammer.core_dependencies</title>
<ellipse fill="yellow" stroke="black" cx="410.14" cy="-128" rx="161.37" ry="18"/>
<text text-anchor="middle" x="410.14" y="-124.3" font-family="Open Sans" font-size="14.00">jonaspammer.core_dependencies</text>
</g>
<!-- jonaspammer.core_dependencies&#45;&gt;jonaspammer.bootstrap -->
<g id="edge1" class="edge">
<title>jonaspammer.core_dependencies&#45;&gt;jonaspammer.bootstrap</title>
<path fill="none" stroke="black" d="M462.22,-110.94C496.56,-100.35 541.63,-86.45 577.42,-75.42"/>
<polygon fill="black" stroke="black" points="578.73,-78.68 587.25,-72.38 576.67,-71.99 578.73,-78.68"/>
</g>
<!-- jonaspammer.pip -->
<g id="node3" class="node">
<title>jonaspammer.pip</title>
<ellipse fill="yellow" stroke="black" cx="754.14" cy="-128" rx="89.08" ry="18"/>
<text text-anchor="middle" x="754.14" y="-124.3" font-family="Open Sans" font-size="14.00">jonaspammer.pip</text>
</g>
<!-- jonaspammer.pip&#45;&gt;jonaspammer.bootstrap -->
<g id="edge2" class="edge">
<title>jonaspammer.pip&#45;&gt;jonaspammer.bootstrap</title>
<path fill="none" stroke="black" d="M727.01,-110.76C711.14,-101.27 690.9,-89.17 673.65,-78.84"/>
<polygon fill="black" stroke="black" points="675.32,-75.76 664.94,-73.63 671.73,-81.77 675.32,-75.76"/>
</g>
<!-- jonaspammer.shellcheck -->
<g id="node4" class="node">
<title>jonaspammer.shellcheck</title>
<ellipse fill="orange" stroke="black" cx="173.14" cy="-200" rx="122.38" ry="18"/>
<text text-anchor="middle" x="173.14" y="-196.3" font-family="Open Sans" font-size="14.00">jonaspammer.shellcheck</text>
</g>
<!-- jonaspammer.shellcheck&#45;&gt;jonaspammer.bootstrap -->
<g id="edge3" class="edge">
<title>jonaspammer.shellcheck&#45;&gt;jonaspammer.bootstrap</title>
<path fill="none" stroke="black" d="M180.77,-181.97C191.05,-161.2 211.42,-126.79 240.14,-110 285.7,-83.36 416.8,-69.68 515.99,-62.96"/>
<polygon fill="black" stroke="black" points="516.34,-66.44 526.09,-62.29 515.88,-59.45 516.34,-66.44"/>
</g>
<!-- jonaspammer.shellcheck&#45;&gt;jonaspammer.core_dependencies -->
<g id="edge4" class="edge">
<title>jonaspammer.shellcheck&#45;&gt;jonaspammer.core_dependencies</title>
<path fill="none" stroke="black" d="M225.15,-183.64C260.68,-173.15 307.98,-159.17 345.87,-147.98"/>
<polygon fill="black" stroke="black" points="347.18,-151.24 355.78,-145.06 345.2,-144.53 347.18,-151.24"/>
</g>
<!-- jonaspammer.checkmk_server -->
<g id="node5" class="node">
<title>jonaspammer.checkmk_server</title>
<ellipse fill="orange" stroke="black" cx="461.14" cy="-200" rx="148.37" ry="18"/>
<text text-anchor="middle" x="461.14" y="-196.3" font-family="Open Sans" font-size="14.00">jonaspammer.checkmk_server</text>
</g>
<!-- jonaspammer.checkmk_server&#45;&gt;jonaspammer.bootstrap -->
<g id="edge5" class="edge">
<title>jonaspammer.checkmk_server&#45;&gt;jonaspammer.bootstrap</title>
<path fill="none" stroke="black" d="M513.81,-183.12C535.98,-174.61 561.02,-162.44 580.14,-146 600.14,-128.81 615.65,-102.87 625.41,-83.42"/>
<polygon fill="black" stroke="black" points="628.66,-84.72 629.85,-74.2 622.36,-81.68 628.66,-84.72"/>
</g>
<!-- jonaspammer.checkmk_server&#45;&gt;jonaspammer.core_dependencies -->
<g id="edge6" class="edge">
<title>jonaspammer.checkmk_server&#45;&gt;jonaspammer.core_dependencies</title>
<path fill="none" stroke="black" d="M448.8,-182.05C442.75,-173.75 435.34,-163.58 428.63,-154.38"/>
<polygon fill="black" stroke="black" points="431.45,-152.3 422.73,-146.28 425.79,-156.42 431.45,-152.3"/>
</g>
<!-- jonaspammer.checkmk_agent -->
<g id="node6" class="node">
<title>jonaspammer.checkmk_agent</title>
<ellipse fill="orange" stroke="black" cx="549.14" cy="-272" rx="145.67" ry="18"/>
<text text-anchor="middle" x="549.14" y="-268.3" font-family="Open Sans" font-size="14.00">jonaspammer.checkmk_agent</text>
</g>
<!-- jonaspammer.checkmk_agent&#45;&gt;jonaspammer.bootstrap -->
<g id="edge7" class="edge">
<title>jonaspammer.checkmk_agent&#45;&gt;jonaspammer.bootstrap</title>
<path fill="none" stroke="black" d="M581.07,-254.22C594.77,-245.33 609.56,-233.1 618.14,-218 641.98,-176.04 642.41,-118.07 640.09,-84.36"/>
<polygon fill="black" stroke="black" points="643.58,-84 639.27,-74.31 636.6,-84.57 643.58,-84"/>
</g>
<!-- jonaspammer.checkmk_agent&#45;&gt;jonaspammer.checkmk_server -->
<g id="edge8" class="edge">
<title>jonaspammer.checkmk_agent&#45;&gt;jonaspammer.checkmk_server</title>
<path fill="none" stroke="black" d="M527.84,-254.05C516.68,-245.18 502.84,-234.17 490.66,-224.48"/>
<polygon fill="black" stroke="black" points="492.56,-221.52 482.55,-218.03 488.2,-227 492.56,-221.52"/>
</g>
<!-- jonaspammer.openssh -->
<g id="node7" class="node">
<title>jonaspammer.openssh</title>
<ellipse fill="orange" stroke="black" cx="1255.14" cy="-128" rx="112.38" ry="18"/>
<text text-anchor="middle" x="1255.14" y="-124.3" font-family="Open Sans" font-size="14.00">jonaspammer.openssh</text>
</g>
<!-- jonaspammer.openssh&#45;&gt;jonaspammer.bootstrap -->
<g id="edge9" class="edge">
<title>jonaspammer.openssh&#45;&gt;jonaspammer.bootstrap</title>
<path fill="none" stroke="black" d="M1173.17,-115.62C1158.52,-113.67 1143.38,-111.73 1129.14,-110 996.39,-93.9 843.18,-77.78 743.47,-67.62"/>
<polygon fill="black" stroke="black" points="743.69,-64.13 733.39,-66.6 742.98,-71.09 743.69,-64.13"/>
</g>
<!-- robertdebock.selinux -->
<g id="node13" class="node">
<title>robertdebock.selinux</title>
<ellipse fill="none" stroke="black" cx="1255.14" cy="-56" rx="105.88" ry="18"/>
<text text-anchor="middle" x="1255.14" y="-52.3" font-family="Open Sans" font-size="14.00">robertdebock.selinux</text>
</g>
<!-- jonaspammer.openssh&#45;&gt;robertdebock.selinux -->
<g id="edge10" class="edge">
<title>jonaspammer.openssh&#45;&gt;robertdebock.selinux</title>
<path fill="none" stroke="black" d="M1255.14,-109.7C1255.14,-101.98 1255.14,-92.71 1255.14,-84.11"/>
<polygon fill="black" stroke="black" points="1258.64,-84.1 1255.14,-74.1 1251.64,-84.1 1258.64,-84.1"/>
</g>
<!-- jonaspammer.motd -->
<g id="node8" class="node">
<title>jonaspammer.motd</title>
<ellipse fill="orange" stroke="black" cx="98.14" cy="-272" rx="98.28" ry="18"/>
<text text-anchor="middle" x="98.14" y="-268.3" font-family="Open Sans" font-size="14.00">jonaspammer.motd</text>
</g>
<!-- jonaspammer.motd&#45;&gt;jonaspammer.bootstrap -->
<g id="edge11" class="edge">
<title>jonaspammer.motd&#45;&gt;jonaspammer.bootstrap</title>
<path fill="none" stroke="black" d="M72.9,-254.51C61.19,-245.32 48.49,-232.75 42.14,-218 35.82,-203.3 33.49,-195.46 42.14,-182 83.89,-117.1 125.85,-130.89 200.14,-110 303.57,-80.91 425.18,-67.79 513.82,-61.87"/>
<polygon fill="black" stroke="black" points="514.17,-65.35 523.92,-61.22 513.72,-58.37 514.17,-65.35"/>
</g>
<!-- jonaspammer.motd&#45;&gt;jonaspammer.shellcheck -->
<g id="edge12" class="edge">
<title>jonaspammer.motd&#45;&gt;jonaspammer.shellcheck</title>
<path fill="none" stroke="black" d="M116.3,-254.05C125.62,-245.35 137.15,-234.59 147.38,-225.04"/>
<polygon fill="black" stroke="black" points="149.97,-227.41 154.89,-218.03 145.19,-222.3 149.97,-227.41"/>
</g>
<!-- jonaspammer.apache2 -->
<g id="node9" class="node">
<title>jonaspammer.apache2</title>
<ellipse fill="yellow" stroke="black" cx="974.14" cy="-128" rx="113.18" ry="18"/>
<text text-anchor="middle" x="974.14" y="-124.3" font-family="Open Sans" font-size="14.00">jonaspammer.apache2</text>
</g>
<!-- jonaspammer.apache2&#45;&gt;jonaspammer.bootstrap -->
<g id="edge13" class="edge">
<title>jonaspammer.apache2&#45;&gt;jonaspammer.bootstrap</title>
<path fill="none" stroke="black" d="M908.36,-113.34C852.59,-101.75 772.54,-85.13 713.86,-72.94"/>
<polygon fill="black" stroke="black" points="714.41,-69.47 703.9,-70.87 712.98,-76.33 714.41,-69.47"/>
</g>
<!-- jonaspammer.openssl -->
<g id="node10" class="node">
<title>jonaspammer.openssl</title>
<ellipse fill="orange" stroke="black" cx="944.14" cy="-200" rx="109.38" ry="18"/>
<text text-anchor="middle" x="944.14" y="-196.3" font-family="Open Sans" font-size="14.00">jonaspammer.openssl</text>
</g>
<!-- jonaspammer.openssl&#45;&gt;jonaspammer.bootstrap -->
<g id="edge14" class="edge">
<title>jonaspammer.openssl&#45;&gt;jonaspammer.bootstrap</title>
<path fill="none" stroke="black" d="M1009.09,-185.45C1063.68,-171.2 1128.08,-145.84 1096.14,-110 1073.96,-85.11 887.01,-70.2 758.66,-62.8"/>
<polygon fill="black" stroke="black" points="758.55,-59.29 748.36,-62.21 758.15,-66.27 758.55,-59.29"/>
</g>
<!-- jonaspammer.openssl&#45;&gt;jonaspammer.pip -->
<g id="edge15" class="edge">
<title>jonaspammer.openssl&#45;&gt;jonaspammer.pip</title>
<path fill="none" stroke="black" d="M901.5,-183.29C872.77,-172.71 834.75,-158.7 804.53,-147.56"/>
<polygon fill="black" stroke="black" points="805.6,-144.23 795.01,-144.06 803.18,-150.8 805.6,-144.23"/>
</g>
<!-- jonaspammer.goaccess -->
<g id="node11" class="node">
<title>jonaspammer.goaccess</title>
<ellipse fill="green" stroke="black" cx="829.14" cy="-272" rx="116.18" ry="18"/>
<text text-anchor="middle" x="829.14" y="-268.3" font-family="Open Sans" font-size="14.00">jonaspammer.goaccess</text>
</g>
<!-- jonaspammer.mediawiki -->
<g id="node12" class="node">
<title>jonaspammer.mediawiki</title>
<ellipse fill="green" stroke="black" cx="1084.14" cy="-272" rx="120.48" ry="18"/>
<text text-anchor="middle" x="1084.14" y="-268.3" font-family="Open Sans" font-size="14.00">jonaspammer.mediawiki</text>
</g>
</g>
</svg>
