<?xml version="1.0" encoding="UTF-8" standalone="no"?>
<!DOCTYPE svg PUBLIC "-//W3C//DTD SVG 1.1//EN"
 "http://www.w3.org/Graphics/SVG/1.1/DTD/svg11.dtd">
<!-- Generated by graphviz version 2.43.0 (0)
 -->
<!-- Title: hierarchy Pages: 1 -->
<svg width="430pt" height="226pt"
 viewBox="0.00 0.00 430.00 226.00" xmlns="http://www.w3.org/2000/svg" xmlns:xlink="http://www.w3.org/1999/xlink">
<g id="graph0" class="graph" transform="scale(1 1) rotate(0) translate(4 222)">
<title>hierarchy</title>
<polygon fill="white" stroke="transparent" points="-4,4 -4,-222 426,-222 426,4 -4,4"/>
<text text-anchor="middle" x="211" y="-22.8" font-family="Open Sans" font-size="14.00">requirements.yml dependency graph of jonaspammer.pip </text>
<text text-anchor="middle" x="211" y="-7.8" font-family="Open Sans" font-size="14.00"> Generated by JonasPammer/ansible&#45;roles</text>
<!-- jonaspammer.pip -->
<g id="node1" class="node">
<title>jonaspammer.pip</title>
<ellipse fill="orange" stroke="black" stroke-width="3" cx="142.05" cy="-200" rx="89.08" ry="18"/>
<text text-anchor="middle" x="142.05" y="-196.3" font-family="Open Sans" font-size="14.00">jonaspammer.pip</text>
</g>
<!-- jonaspammer.bootstrap -->
<g id="node2" class="node">
<title>jonaspammer.bootstrap</title>
<ellipse fill="green" stroke="black" cx="142.05" cy="-56" rx="118.08" ry="18"/>
<text text-anchor="middle" x="142.05" y="-52.3" font-family="Open Sans" font-size="14.00">jonaspammer.bootstrap</text>
</g>
<!-- jonaspammer.pip&#45;&gt;jonaspammer.bootstrap -->
<g id="edge1" class="edge">
<title>jonaspammer.pip&#45;&gt;jonaspammer.bootstrap</title>
<path fill="none" stroke="black" d="M106.53,-183.29C91.47,-174.63 75.48,-162.28 67.05,-146 59.69,-131.79 59.69,-124.21 67.05,-110 73.72,-97.13 85.11,-86.71 97.03,-78.63"/>
<polygon fill="black" stroke="black" points="99.14,-81.44 105.75,-73.16 95.42,-75.51 99.14,-81.44"/>
</g>
<!-- jonaspammer.core_dependencies -->
<g id="node3" class="node">
<title>jonaspammer.core_dependencies</title>
<ellipse fill="yellow" stroke="black" cx="237.05" cy="-128" rx="161.37" ry="18"/>
<text text-anchor="middle" x="237.05" y="-124.3" font-family="Open Sans" font-size="14.00">jonaspammer.core_dependencies</text>
</g>
<!-- jonaspammer.pip&#45;&gt;jonaspammer.core_dependencies -->
<g id="edge2" class="edge">
<title>jonaspammer.pip&#45;&gt;jonaspammer.core_dependencies</title>
<path fill="none" stroke="black" d="M164.57,-182.41C176.92,-173.3 192.44,-161.87 205.94,-151.92"/>
<polygon fill="black" stroke="black" points="208.07,-154.71 214.04,-145.96 203.91,-149.07 208.07,-154.71"/>
</g>
<!-- jonaspammer.core_dependencies&#45;&gt;jonaspammer.bootstrap -->
<g id="edge3" class="edge">
<title>jonaspammer.core_dependencies&#45;&gt;jonaspammer.bootstrap</title>
<path fill="none" stroke="black" d="M214.06,-110.05C201.8,-101.03 186.55,-89.79 173.25,-79.99"/>
<polygon fill="black" stroke="black" points="174.96,-76.9 164.84,-73.79 170.81,-82.54 174.96,-76.9"/>
</g>
</g>
</svg>
