<?xml version="1.0" encoding="UTF-8" standalone="no"?>
<!DOCTYPE svg PUBLIC "-//W3C//DTD SVG 1.1//EN"
 "http://www.w3.org/Graphics/SVG/1.1/DTD/svg11.dtd">
<!-- Generated by graphviz version 2.43.0 (0)
 -->
<!-- Title: hierarchy Pages: 1 -->
<svg width="662pt" height="226pt"
 viewBox="0.00 0.00 662.33 226.00" xmlns="http://www.w3.org/2000/svg" xmlns:xlink="http://www.w3.org/1999/xlink">
<g id="graph0" class="graph" transform="scale(1 1) rotate(0) translate(4 222)">
<title>hierarchy</title>
<polygon fill="white" stroke="transparent" points="-4,4 -4,-222 658.33,-222 658.33,4 -4,4"/>
<text text-anchor="middle" x="327.17" y="-22.8" font-family="Open Sans" font-size="14.00">requirements.yml dependency graph of all roles </text>
<text text-anchor="middle" x="327.17" y="-7.8" font-family="Open Sans" font-size="14.00"> Generated by JonasPammer/ansible&#45;roles</text>
<!-- jonaspammer.bootstrap -->
<g id="node1" class="node">
<title>jonaspammer.bootstrap</title>
<ellipse fill="green" stroke="black" cx="393.14" cy="-56" rx="118.08" ry="18"/>
<text text-anchor="middle" x="393.14" y="-52.3" font-family="Open Sans" font-size="14.00">jonaspammer.bootstrap</text>
</g>
<!-- jonaspammer.core_dependencies -->
<g id="node2" class="node">
<title>jonaspammer.core_dependencies</title>
<ellipse fill="yellow" stroke="black" cx="299.14" cy="-128" rx="161.37" ry="18"/>
<text text-anchor="middle" x="299.14" y="-124.3" font-family="Open Sans" font-size="14.00">jonaspammer.core_dependencies</text>
</g>
<!-- jonaspammer.core_dependencies&#45;&gt;jonaspammer.bootstrap -->
<g id="edge1" class="edge">
<title>jonaspammer.core_dependencies&#45;&gt;jonaspammer.bootstrap</title>
<path fill="none" stroke="black" d="M321.9,-110.05C334.02,-101.03 349.11,-89.79 362.27,-79.99"/>
<polygon fill="black" stroke="black" points="364.67,-82.57 370.6,-73.79 360.49,-76.95 364.67,-82.57"/>
</g>
<!-- jonaspammer.motd -->
<g id="node3" class="node">
<title>jonaspammer.motd</title>
<ellipse fill="orange" stroke="black" cx="98.14" cy="-200" rx="98.28" ry="18"/>
<text text-anchor="middle" x="98.14" y="-196.3" font-family="Open Sans" font-size="14.00">jonaspammer.motd</text>
</g>
<!-- jonaspammer.motd&#45;&gt;jonaspammer.bootstrap -->
<g id="edge2" class="edge">
<title>jonaspammer.motd&#45;&gt;jonaspammer.bootstrap</title>
<path fill="none" stroke="black" d="M99.19,-181.8C101.38,-161.53 108.17,-128.28 129.14,-110 152.72,-89.45 223.81,-75.9 286.28,-67.65"/>
<polygon fill="black" stroke="black" points="286.75,-71.11 296.22,-66.37 285.86,-64.17 286.75,-71.11"/>
</g>
<!-- jonaspammer.motd&#45;&gt;jonaspammer.core_dependencies -->
<g id="edge3" class="edge">
<title>jonaspammer.motd&#45;&gt;jonaspammer.core_dependencies</title>
<path fill="none" stroke="black" d="M141.76,-183.81C171.37,-173.5 210.8,-159.76 242.79,-148.62"/>
<polygon fill="black" stroke="black" points="244.17,-151.85 252.46,-145.26 241.87,-145.24 244.17,-151.85"/>
</g>
<!-- jonaspammer.pip -->
<g id="node4" class="node">
<title>jonaspammer.pip</title>
<ellipse fill="orange" stroke="black" cx="303.14" cy="-200" rx="89.08" ry="18"/>
<text text-anchor="middle" x="303.14" y="-196.3" font-family="Open Sans" font-size="14.00">jonaspammer.pip</text>
</g>
<!-- jonaspammer.pip&#45;&gt;jonaspammer.bootstrap -->
<g id="edge4" class="edge">
<title>jonaspammer.pip&#45;&gt;jonaspammer.bootstrap</title>
<path fill="none" stroke="black" d="M365.48,-187.05C407.13,-177.65 456.52,-163.28 469.14,-146 478.58,-133.08 476.54,-124.19 469.14,-110 462.43,-97.15 451.03,-86.77 439.07,-78.73"/>
<polygon fill="black" stroke="black" points="440.66,-75.6 430.32,-73.28 436.96,-81.54 440.66,-75.6"/>
</g>
<!-- jonaspammer.pip&#45;&gt;jonaspammer.core_dependencies -->
<g id="edge5" class="edge">
<title>jonaspammer.pip&#45;&gt;jonaspammer.core_dependencies</title>
<path fill="none" stroke="black" d="M302.15,-181.7C301.71,-173.98 301.18,-164.71 300.69,-156.11"/>
<polygon fill="black" stroke="black" points="304.18,-155.89 300.12,-146.1 297.19,-156.29 304.18,-155.89"/>
</g>
<!-- jonaspammer.shellcheck -->
<g id="node5" class="node">
<title>jonaspammer.shellcheck</title>
<ellipse fill="orange" stroke="black" cx="532.14" cy="-200" rx="122.38" ry="18"/>
<text text-anchor="middle" x="532.14" y="-196.3" font-family="Open Sans" font-size="14.00">jonaspammer.shellcheck</text>
</g>
<!-- jonaspammer.shellcheck&#45;&gt;jonaspammer.bootstrap -->
<g id="edge6" class="edge">
<title>jonaspammer.shellcheck&#45;&gt;jonaspammer.bootstrap</title>
<path fill="none" stroke="black" d="M526.62,-181.81C519.7,-162.44 506.26,-130.96 486.14,-110 473.55,-96.89 457.01,-86.06 441.37,-77.68"/>
<polygon fill="black" stroke="black" points="442.8,-74.48 432.3,-73.03 439.61,-80.71 442.8,-74.48"/>
</g>
<!-- jonaspammer.shellcheck&#45;&gt;jonaspammer.core_dependencies -->
<g id="edge7" class="edge">
<title>jonaspammer.shellcheck&#45;&gt;jonaspammer.core_dependencies</title>
<path fill="none" stroke="black" d="M481.01,-183.64C446.08,-173.15 399.57,-159.17 362.33,-147.98"/>
<polygon fill="black" stroke="black" points="363.17,-144.58 352.58,-145.06 361.15,-151.28 363.17,-144.58"/>
</g>
</g>
</svg>
