<?xml version="1.0" encoding="UTF-8" standalone="no"?>
<!DOCTYPE svg PUBLIC "-//W3C//DTD SVG 1.1//EN"
 "http://www.w3.org/Graphics/SVG/1.1/DTD/svg11.dtd">
<!-- Generated by graphviz version 2.43.0 (0)
 -->
<!-- Title: hierarchy Pages: 1 -->
<svg width="472pt" height="226pt"
 viewBox="0.00 0.00 472.00 226.00" xmlns="http://www.w3.org/2000/svg" xmlns:xlink="http://www.w3.org/1999/xlink">
<g id="graph0" class="graph" transform="scale(1 1) rotate(0) translate(4 222)">
<title>hierarchy</title>
<polygon fill="white" stroke="transparent" points="-4,4 -4,-222 468,-222 468,4 -4,4"/>
<text text-anchor="middle" x="232" y="-22.8" font-family="Open Sans" font-size="14.00">requirements.yml dependency graph of jonaspammer.goaccess </text>
<text text-anchor="middle" x="232" y="-7.8" font-family="Open Sans" font-size="14.00"> Generated by JonasPammer/ansible&#45;roles</text>
<!-- jonaspammer.goaccess -->
<g id="node1" class="node">
<title>jonaspammer.goaccess</title>
<ellipse fill="orange" stroke="black" stroke-width="3" cx="199.1" cy="-200" rx="116.18" ry="18"/>
<text text-anchor="middle" x="199.1" y="-196.3" font-family="Open Sans" font-size="14.00">jonaspammer.goaccess</text>
</g>
<!-- jonaspammer.bootstrap -->
<g id="node2" class="node">
<title>jonaspammer.bootstrap</title>
<ellipse fill="green" stroke="black" cx="199.1" cy="-56" rx="118.08" ry="18"/>
<text text-anchor="middle" x="199.1" y="-52.3" font-family="Open Sans" font-size="14.00">jonaspammer.bootstrap</text>
</g>
<!-- jonaspammer.goaccess&#45;&gt;jonaspammer.bootstrap -->
<g id="edge1" class="edge">
<title>jonaspammer.goaccess&#45;&gt;jonaspammer.bootstrap</title>
<path fill="none" stroke="black" d="M176.33,-182.28C165.58,-172.96 153.88,-160.33 148.1,-146 142.12,-131.16 142.12,-124.84 148.1,-110 152.57,-98.92 160.58,-88.85 168.96,-80.55"/>
<polygon fill="black" stroke="black" points="171.37,-83.08 176.33,-73.72 166.61,-77.94 171.37,-83.08"/>
</g>
<!-- jonaspammer.apache2 -->
<g id="node3" class="node">
<title>jonaspammer.apache2</title>
<ellipse fill="yellow" stroke="black" cx="270.1" cy="-128" rx="113.18" ry="18"/>
<text text-anchor="middle" x="270.1" y="-124.3" font-family="Open Sans" font-size="14.00">jonaspammer.apache2</text>
</g>
<!-- jonaspammer.goaccess&#45;&gt;jonaspammer.apache2 -->
<g id="edge2" class="edge">
<title>jonaspammer.goaccess&#45;&gt;jonaspammer.apache2</title>
<path fill="none" stroke="black" d="M216.29,-182.05C224.97,-173.5 235.66,-162.96 245.21,-153.54"/>
<polygon fill="black" stroke="black" points="247.91,-155.79 252.58,-146.28 243,-150.8 247.91,-155.79"/>
</g>
<!-- jonaspammer.apache2&#45;&gt;jonaspammer.bootstrap -->
<g id="edge3" class="edge">
<title>jonaspammer.apache2&#45;&gt;jonaspammer.bootstrap</title>
<path fill="none" stroke="black" d="M252.91,-110.05C244.23,-101.5 233.54,-90.96 223.99,-81.54"/>
<polygon fill="black" stroke="black" points="226.2,-78.8 216.62,-74.28 221.29,-83.79 226.2,-78.8"/>
</g>
</g>
</svg>
