<?xml version="1.0" encoding="UTF-8" standalone="no"?>
<!DOCTYPE svg PUBLIC "-//W3C//DTD SVG 1.1//EN"
 "http://www.w3.org/Graphics/SVG/1.1/DTD/svg11.dtd">
<!-- Generated by graphviz version 2.43.0 (0)
 -->
<!-- Title: hierarchy Pages: 1 -->
<svg width="1624pt" height="298pt"
 viewBox="0.00 0.00 1624.23 298.00" xmlns="http://www.w3.org/2000/svg" xmlns:xlink="http://www.w3.org/1999/xlink">
<g id="graph0" class="graph" transform="scale(1 1) rotate(0) translate(4 294)">
<title>hierarchy</title>
<polygon fill="white" stroke="transparent" points="-4,4 -4,-294 1620.23,-294 1620.23,4 -4,4"/>
<text text-anchor="middle" x="808.12" y="-22.8" font-family="Open Sans" font-size="14.00">requirements.yml dependency graph of all roles </text>
<text text-anchor="middle" x="808.12" y="-7.8" font-family="Open Sans" font-size="14.00"> Generated by JonasPammer/ansible&#45;roles</text>
<!-- jonaspammer.bootstrap -->
<g id="node1" class="node">
<title>jonaspammer.bootstrap</title>
<ellipse fill="green" stroke="black" cx="556.14" cy="-56" rx="118.08" ry="18"/>
<text text-anchor="middle" x="556.14" y="-52.3" font-family="Open Sans" font-size="14.00">jonaspammer.bootstrap</text>
</g>
<!-- jonaspammer.core_dependencies -->
<g id="node2" class="node">
<title>jonaspammer.core_dependencies</title>
<ellipse fill="yellow" stroke="black" cx="250.14" cy="-128" rx="161.37" ry="18"/>
<text text-anchor="middle" x="250.14" y="-124.3" font-family="Open Sans" font-size="14.00">jonaspammer.core_dependencies</text>
</g>
<!-- jonaspammer.core_dependencies&#45;&gt;jonaspammer.bootstrap -->
<g id="edge1" class="edge">
<title>jonaspammer.core_dependencies&#45;&gt;jonaspammer.bootstrap</title>
<path fill="none" stroke="black" d="M317.67,-111.55C366.84,-100.3 433.36,-85.09 483.64,-73.58"/>
<polygon fill="black" stroke="black" points="484.51,-76.98 493.47,-71.34 482.95,-70.15 484.51,-76.98"/>
</g>
<!-- jonaspammer.pip -->
<g id="node3" class="node">
<title>jonaspammer.pip</title>
<ellipse fill="yellow" stroke="black" cx="556.14" cy="-128" rx="89.08" ry="18"/>
<text text-anchor="middle" x="556.14" y="-124.3" font-family="Open Sans" font-size="14.00">jonaspammer.pip</text>
</g>
<!-- jonaspammer.pip&#45;&gt;jonaspammer.bootstrap -->
<g id="edge2" class="edge">
<title>jonaspammer.pip&#45;&gt;jonaspammer.bootstrap</title>
<path fill="none" stroke="black" d="M556.14,-109.7C556.14,-101.98 556.14,-92.71 556.14,-84.11"/>
<polygon fill="black" stroke="black" points="559.64,-84.1 556.14,-74.1 552.64,-84.1 559.64,-84.1"/>
</g>
<!-- jonaspammer.shellcheck -->
<g id="node4" class="node">
<title>jonaspammer.shellcheck</title>
<ellipse fill="orange" stroke="black" cx="173.14" cy="-200" rx="122.38" ry="18"/>
<text text-anchor="middle" x="173.14" y="-196.3" font-family="Open Sans" font-size="14.00">jonaspammer.shellcheck</text>
</g>
<!-- jonaspammer.shellcheck&#45;&gt;jonaspammer.bootstrap -->
<g id="edge3" class="edge">
<title>jonaspammer.shellcheck&#45;&gt;jonaspammer.bootstrap</title>
<path fill="none" stroke="black" d="M124.96,-183.28C107.68,-175.05 90.04,-163.03 80.14,-146 72.1,-132.17 69.47,-121.92 80.14,-110 103.4,-84.01 300.57,-69.33 433.74,-62.29"/>
<polygon fill="black" stroke="black" points="434.21,-65.77 444.02,-61.75 433.85,-58.78 434.21,-65.77"/>
</g>
<!-- jonaspammer.shellcheck&#45;&gt;jonaspammer.core_dependencies -->
<g id="edge4" class="edge">
<title>jonaspammer.shellcheck&#45;&gt;jonaspammer.core_dependencies</title>
<path fill="none" stroke="black" d="M191.78,-182.05C201.45,-173.26 213.42,-162.38 224,-152.76"/>
<polygon fill="black" stroke="black" points="226.36,-155.35 231.41,-146.03 221.65,-150.17 226.36,-155.35"/>
</g>
<!-- jonaspammer.motd -->
<g id="node5" class="node">
<title>jonaspammer.motd</title>
<ellipse fill="orange" stroke="black" cx="98.14" cy="-272" rx="98.28" ry="18"/>
<text text-anchor="middle" x="98.14" y="-268.3" font-family="Open Sans" font-size="14.00">jonaspammer.motd</text>
</g>
<!-- jonaspammer.motd&#45;&gt;jonaspammer.bootstrap -->
<g id="edge5" class="edge">
<title>jonaspammer.motd&#45;&gt;jonaspammer.bootstrap</title>
<path fill="none" stroke="black" d="M72.9,-254.51C61.19,-245.32 48.49,-232.75 42.14,-218 22.58,-172.55 30.06,-140.34 69.14,-110 97.61,-87.9 301.89,-71.83 436.68,-63.49"/>
<polygon fill="black" stroke="black" points="436.9,-66.99 446.67,-62.88 436.47,-60 436.9,-66.99"/>
</g>
<!-- jonaspammer.motd&#45;&gt;jonaspammer.shellcheck -->
<g id="edge6" class="edge">
<title>jonaspammer.motd&#45;&gt;jonaspammer.shellcheck</title>
<path fill="none" stroke="black" d="M116.3,-254.05C125.62,-245.35 137.15,-234.59 147.38,-225.04"/>
<polygon fill="black" stroke="black" points="149.97,-227.41 154.89,-218.03 145.19,-222.3 149.97,-227.41"/>
</g>
<!-- jonaspammer.apache2 -->
<g id="node6" class="node">
<title>jonaspammer.apache2</title>
<ellipse fill="yellow" stroke="black" cx="776.14" cy="-128" rx="113.18" ry="18"/>
<text text-anchor="middle" x="776.14" y="-124.3" font-family="Open Sans" font-size="14.00">jonaspammer.apache2</text>
</g>
<!-- jonaspammer.apache2&#45;&gt;jonaspammer.bootstrap -->
<g id="edge7" class="edge">
<title>jonaspammer.apache2&#45;&gt;jonaspammer.bootstrap</title>
<path fill="none" stroke="black" d="M727.86,-111.64C694.45,-101.01 649.8,-86.8 614.41,-75.54"/>
<polygon fill="black" stroke="black" points="615.28,-72.14 604.69,-72.45 613.16,-78.81 615.28,-72.14"/>
</g>
<!-- jonaspammer.openssl -->
<g id="node7" class="node">
<title>jonaspammer.openssl</title>
<ellipse fill="orange" stroke="black" cx="497.14" cy="-200" rx="109.38" ry="18"/>
<text text-anchor="middle" x="497.14" y="-196.3" font-family="Open Sans" font-size="14.00">jonaspammer.openssl</text>
</g>
<!-- jonaspammer.openssl&#45;&gt;jonaspammer.bootstrap -->
<g id="edge8" class="edge">
<title>jonaspammer.openssl&#45;&gt;jonaspammer.bootstrap</title>
<path fill="none" stroke="black" d="M480.16,-181.99C463.97,-163.61 443.98,-133.77 458.14,-110 466.75,-95.55 480.82,-84.81 495.64,-76.91"/>
<polygon fill="black" stroke="black" points="497.49,-79.9 504.93,-72.36 494.41,-73.62 497.49,-79.9"/>
</g>
<!-- jonaspammer.openssl&#45;&gt;jonaspammer.pip -->
<g id="edge9" class="edge">
<title>jonaspammer.openssl&#45;&gt;jonaspammer.pip</title>
<path fill="none" stroke="black" d="M511.42,-182.05C518.6,-173.54 527.43,-163.07 535.34,-153.68"/>
<polygon fill="black" stroke="black" points="538.22,-155.69 541.99,-145.79 532.87,-151.18 538.22,-155.69"/>
</g>
<!-- jonaspammer.goaccess -->
<g id="node8" class="node">
<title>jonaspammer.goaccess</title>
<ellipse fill="yellow" stroke="black" cx="1023.14" cy="-128" rx="116.18" ry="18"/>
<text text-anchor="middle" x="1023.14" y="-124.3" font-family="Open Sans" font-size="14.00">jonaspammer.goaccess</text>
</g>
<!-- jonaspammer.goaccess&#45;&gt;jonaspammer.bootstrap -->
<g id="edge10" class="edge">
<title>jonaspammer.goaccess&#45;&gt;jonaspammer.bootstrap</title>
<path fill="none" stroke="black" d="M942.86,-114.97C860.71,-102.65 733.25,-83.55 647.33,-70.67"/>
<polygon fill="black" stroke="black" points="647.74,-67.19 637.33,-69.17 646.7,-74.11 647.74,-67.19"/>
</g>
<!-- jonaspammer.mediawiki -->
<g id="node9" class="node">
<title>jonaspammer.mediawiki</title>
<ellipse fill="yellow" stroke="black" cx="1278.14" cy="-128" rx="120.48" ry="18"/>
<text text-anchor="middle" x="1278.14" y="-124.3" font-family="Open Sans" font-size="14.00">jonaspammer.mediawiki</text>
</g>
<!-- jonaspammer.mediawiki&#45;&gt;jonaspammer.bootstrap -->
<g id="edge11" class="edge">
<title>jonaspammer.mediawiki&#45;&gt;jonaspammer.bootstrap</title>
<path fill="none" stroke="black" d="M1192.54,-115.3C1177.75,-113.42 1162.51,-111.58 1148.14,-110 981.7,-91.67 788.4,-75.29 669.17,-65.74"/>
<polygon fill="black" stroke="black" points="669.18,-62.23 658.94,-64.93 668.63,-69.21 669.18,-62.23"/>
</g>
<!-- jonaspammer.gitlab -->
<g id="node10" class="node">
<title>jonaspammer.gitlab</title>
<ellipse fill="yellow" stroke="black" cx="1516.14" cy="-128" rx="100.18" ry="18"/>
<text text-anchor="middle" x="1516.14" y="-124.3" font-family="Open Sans" font-size="14.00">jonaspammer.gitlab</text>
</g>
<!-- jonaspammer.gitlab&#45;&gt;jonaspammer.bootstrap -->
<g id="edge12" class="edge">
<title>jonaspammer.gitlab&#45;&gt;jonaspammer.bootstrap</title>
<path fill="none" stroke="black" d="M1446.2,-115.11C1433.24,-113.19 1419.8,-111.38 1407.14,-110 1149.67,-81.96 846.63,-67.49 680.58,-61.14"/>
<polygon fill="black" stroke="black" points="680.46,-57.64 670.33,-60.75 680.19,-64.63 680.46,-57.64"/>
</g>
</g>
</svg>
