<?xml version="1.0" encoding="UTF-8" standalone="no"?>
<!DOCTYPE svg PUBLIC "-//W3C//DTD SVG 1.1//EN"
 "http://www.w3.org/Graphics/SVG/1.1/DTD/svg11.dtd">
<!-- Generated by graphviz version 2.43.0 (0)
 -->
<!-- Title: hierarchy Pages: 1 -->
<svg width="1693pt" height="298pt"
 viewBox="0.00 0.00 1693.38 298.00" xmlns="http://www.w3.org/2000/svg" xmlns:xlink="http://www.w3.org/1999/xlink">
<g id="graph0" class="graph" transform="scale(1 1) rotate(0) translate(4 294)">
<title>hierarchy</title>
<polygon fill="white" stroke="transparent" points="-4,4 -4,-294 1689.38,-294 1689.38,4 -4,4"/>
<text text-anchor="middle" x="842.69" y="-22.8" font-family="Open Sans" font-size="14.00">requirements.yml dependency graph of all roles </text>
<text text-anchor="middle" x="842.69" y="-7.8" font-family="Open Sans" font-size="14.00"> Generated by JonasPammer/ansible&#45;roles</text>
<!-- jonaspammer.bootstrap -->
<g id="node1" class="node">
<title>jonaspammer.bootstrap</title>
<ellipse fill="green" stroke="black" cx="707.14" cy="-56" rx="118.08" ry="18"/>
<text text-anchor="middle" x="707.14" y="-52.3" font-family="Open Sans" font-size="14.00">jonaspammer.bootstrap</text>
</g>
<!-- jonaspammer.core_dependencies -->
<g id="node2" class="node">
<title>jonaspammer.core_dependencies</title>
<ellipse fill="yellow" stroke="black" cx="461.14" cy="-128" rx="161.37" ry="18"/>
<text text-anchor="middle" x="461.14" y="-124.3" font-family="Open Sans" font-size="14.00">jonaspammer.core_dependencies</text>
</g>
<!-- jonaspammer.core_dependencies&#45;&gt;jonaspammer.bootstrap -->
<g id="edge1" class="edge">
<title>jonaspammer.core_dependencies&#45;&gt;jonaspammer.bootstrap</title>
<path fill="none" stroke="black" d="M517.27,-111.03C555.05,-100.28 604.92,-86.09 644.07,-74.95"/>
<polygon fill="black" stroke="black" points="645.12,-78.29 653.78,-72.18 643.21,-71.55 645.12,-78.29"/>
</g>
<!-- jonaspammer.pip -->
<g id="node3" class="node">
<title>jonaspammer.pip</title>
<ellipse fill="yellow" stroke="black" cx="843.14" cy="-128" rx="89.08" ry="18"/>
<text text-anchor="middle" x="843.14" y="-124.3" font-family="Open Sans" font-size="14.00">jonaspammer.pip</text>
</g>
<!-- jonaspammer.pip&#45;&gt;jonaspammer.bootstrap -->
<g id="edge2" class="edge">
<title>jonaspammer.pip&#45;&gt;jonaspammer.bootstrap</title>
<path fill="none" stroke="black" d="M811.94,-110.94C793.03,-101.21 768.7,-88.68 748.24,-78.15"/>
<polygon fill="black" stroke="black" points="749.63,-74.94 739.14,-73.47 746.43,-81.16 749.63,-74.94"/>
</g>
<!-- jonaspammer.shellcheck -->
<g id="node4" class="node">
<title>jonaspammer.shellcheck</title>
<ellipse fill="orange" stroke="black" cx="173.14" cy="-200" rx="122.38" ry="18"/>
<text text-anchor="middle" x="173.14" y="-196.3" font-family="Open Sans" font-size="14.00">jonaspammer.shellcheck</text>
</g>
<!-- jonaspammer.shellcheck&#45;&gt;jonaspammer.bootstrap -->
<g id="edge3" class="edge">
<title>jonaspammer.shellcheck&#45;&gt;jonaspammer.bootstrap</title>
<path fill="none" stroke="black" d="M189.71,-181.91C211.05,-161.09 250.26,-126.64 291.14,-110 343.92,-88.52 487.7,-73.49 591.45,-65.06"/>
<polygon fill="black" stroke="black" points="591.99,-68.53 601.68,-64.24 591.43,-61.55 591.99,-68.53"/>
</g>
<!-- jonaspammer.shellcheck&#45;&gt;jonaspammer.core_dependencies -->
<g id="edge4" class="edge">
<title>jonaspammer.shellcheck&#45;&gt;jonaspammer.core_dependencies</title>
<path fill="none" stroke="black" d="M233.52,-184.33C278.25,-173.45 339.46,-158.58 387.14,-146.99"/>
<polygon fill="black" stroke="black" points="388.21,-150.33 397.1,-144.57 386.56,-143.53 388.21,-150.33"/>
</g>
<!-- jonaspammer.checkmk_server -->
<g id="node5" class="node">
<title>jonaspammer.checkmk_server</title>
<ellipse fill="orange" stroke="black" cx="461.14" cy="-200" rx="148.37" ry="18"/>
<text text-anchor="middle" x="461.14" y="-196.3" font-family="Open Sans" font-size="14.00">jonaspammer.checkmk_server</text>
</g>
<!-- jonaspammer.checkmk_server&#45;&gt;jonaspammer.bootstrap -->
<g id="edge5" class="edge">
<title>jonaspammer.checkmk_server&#45;&gt;jonaspammer.bootstrap</title>
<path fill="none" stroke="black" d="M538.81,-184.55C569.3,-176.46 603.53,-164.21 631.14,-146 656.26,-129.43 677.75,-102.25 691.4,-82.28"/>
<polygon fill="black" stroke="black" points="694.32,-84.21 696.94,-73.94 688.49,-80.34 694.32,-84.21"/>
</g>
<!-- jonaspammer.checkmk_server&#45;&gt;jonaspammer.core_dependencies -->
<g id="edge6" class="edge">
<title>jonaspammer.checkmk_server&#45;&gt;jonaspammer.core_dependencies</title>
<path fill="none" stroke="black" d="M461.14,-181.7C461.14,-173.98 461.14,-164.71 461.14,-156.11"/>
<polygon fill="black" stroke="black" points="464.64,-156.1 461.14,-146.1 457.64,-156.1 464.64,-156.1"/>
</g>
<!-- jonaspammer.checkmk_agent -->
<g id="node6" class="node">
<title>jonaspammer.checkmk_agent</title>
<ellipse fill="orange" stroke="black" cx="773.14" cy="-200" rx="145.67" ry="18"/>
<text text-anchor="middle" x="773.14" y="-196.3" font-family="Open Sans" font-size="14.00">jonaspammer.checkmk_agent</text>
</g>
<!-- jonaspammer.checkmk_agent&#45;&gt;jonaspammer.bootstrap -->
<g id="edge7" class="edge">
<title>jonaspammer.checkmk_agent&#45;&gt;jonaspammer.bootstrap</title>
<path fill="none" stroke="black" d="M745.11,-182.13C732.73,-173.08 719.37,-160.74 712.14,-146 702.75,-126.83 702.02,-102.48 703.36,-84.1"/>
<polygon fill="black" stroke="black" points="706.85,-84.34 704.33,-74.05 699.88,-83.67 706.85,-84.34"/>
</g>
<!-- jonaspammer.checkmk_agent&#45;&gt;jonaspammer.core_dependencies -->
<g id="edge8" class="edge">
<title>jonaspammer.checkmk_agent&#45;&gt;jonaspammer.core_dependencies</title>
<path fill="none" stroke="black" d="M706.21,-183.98C657.36,-173.02 590.99,-158.13 539.64,-146.61"/>
<polygon fill="black" stroke="black" points="540.1,-143.13 529.58,-144.35 538.57,-149.96 540.1,-143.13"/>
</g>
<!-- jonaspammer.motd -->
<g id="node7" class="node">
<title>jonaspammer.motd</title>
<ellipse fill="orange" stroke="black" cx="98.14" cy="-272" rx="98.28" ry="18"/>
<text text-anchor="middle" x="98.14" y="-268.3" font-family="Open Sans" font-size="14.00">jonaspammer.motd</text>
</g>
<!-- jonaspammer.motd&#45;&gt;jonaspammer.bootstrap -->
<g id="edge9" class="edge">
<title>jonaspammer.motd&#45;&gt;jonaspammer.bootstrap</title>
<path fill="none" stroke="black" d="M72.9,-254.51C61.19,-245.32 48.49,-232.75 42.14,-218 35.82,-203.3 33.09,-195.19 42.14,-182 101.94,-94.89 406.04,-68.48 581.59,-60.48"/>
<polygon fill="black" stroke="black" points="581.83,-63.97 591.67,-60.03 581.52,-56.98 581.83,-63.97"/>
</g>
<!-- jonaspammer.motd&#45;&gt;jonaspammer.shellcheck -->
<g id="edge10" class="edge">
<title>jonaspammer.motd&#45;&gt;jonaspammer.shellcheck</title>
<path fill="none" stroke="black" d="M116.3,-254.05C125.62,-245.35 137.15,-234.59 147.38,-225.04"/>
<polygon fill="black" stroke="black" points="149.97,-227.41 154.89,-218.03 145.19,-222.3 149.97,-227.41"/>
</g>
<!-- jonaspammer.apache2 -->
<g id="node8" class="node">
<title>jonaspammer.apache2</title>
<ellipse fill="yellow" stroke="black" cx="1063.14" cy="-128" rx="113.18" ry="18"/>
<text text-anchor="middle" x="1063.14" y="-124.3" font-family="Open Sans" font-size="14.00">jonaspammer.apache2</text>
</g>
<!-- jonaspammer.apache2&#45;&gt;jonaspammer.bootstrap -->
<g id="edge11" class="edge">
<title>jonaspammer.apache2&#45;&gt;jonaspammer.bootstrap</title>
<path fill="none" stroke="black" d="M994.92,-113.59C935.32,-101.87 848.78,-84.85 786.18,-72.54"/>
<polygon fill="black" stroke="black" points="786.83,-69.1 776.34,-70.61 785.48,-75.97 786.83,-69.1"/>
</g>
<!-- jonaspammer.openssl -->
<g id="node9" class="node">
<title>jonaspammer.openssl</title>
<ellipse fill="orange" stroke="black" cx="1046.14" cy="-200" rx="109.38" ry="18"/>
<text text-anchor="middle" x="1046.14" y="-196.3" font-family="Open Sans" font-size="14.00">jonaspammer.openssl</text>
</g>
<!-- jonaspammer.openssl&#45;&gt;jonaspammer.bootstrap -->
<g id="edge12" class="edge">
<title>jonaspammer.openssl&#45;&gt;jonaspammer.bootstrap</title>
<path fill="none" stroke="black" d="M968.9,-187.27C882.67,-173.9 753.93,-152.98 745.14,-146 725.98,-130.79 716.32,-104.09 711.55,-83.89"/>
<polygon fill="black" stroke="black" points="714.96,-83.08 709.48,-74.01 708.11,-84.52 714.96,-83.08"/>
</g>
<!-- jonaspammer.openssl&#45;&gt;jonaspammer.pip -->
<g id="edge13" class="edge">
<title>jonaspammer.openssl&#45;&gt;jonaspammer.pip</title>
<path fill="none" stroke="black" d="M1001.34,-183.55C970.23,-172.82 928.66,-158.49 895.94,-147.21"/>
<polygon fill="black" stroke="black" points="896.68,-143.76 886.09,-143.81 894.4,-150.38 896.68,-143.76"/>
</g>
<!-- jonaspammer.goaccess -->
<g id="node10" class="node">
<title>jonaspammer.goaccess</title>
<ellipse fill="yellow" stroke="black" cx="1310.14" cy="-128" rx="116.18" ry="18"/>
<text text-anchor="middle" x="1310.14" y="-124.3" font-family="Open Sans" font-size="14.00">jonaspammer.goaccess</text>
</g>
<!-- jonaspammer.goaccess&#45;&gt;jonaspammer.bootstrap -->
<g id="edge14" class="edge">
<title>jonaspammer.goaccess&#45;&gt;jonaspammer.bootstrap</title>
<path fill="none" stroke="black" d="M1226.8,-115.37C1212.9,-113.52 1198.62,-111.66 1185.14,-110 1056.89,-94.17 909,-78.11 812.09,-67.88"/>
<polygon fill="black" stroke="black" points="812.31,-64.39 802,-66.82 811.58,-71.35 812.31,-64.39"/>
</g>
<!-- jonaspammer.mediawiki -->
<g id="node11" class="node">
<title>jonaspammer.mediawiki</title>
<ellipse fill="yellow" stroke="black" cx="1565.14" cy="-128" rx="120.48" ry="18"/>
<text text-anchor="middle" x="1565.14" y="-124.3" font-family="Open Sans" font-size="14.00">jonaspammer.mediawiki</text>
</g>
<!-- jonaspammer.mediawiki&#45;&gt;jonaspammer.bootstrap -->
<g id="edge15" class="edge">
<title>jonaspammer.mediawiki&#45;&gt;jonaspammer.bootstrap</title>
<path fill="none" stroke="black" d="M1480.26,-115.19C1465.25,-113.3 1449.75,-111.49 1435.14,-110 1221.22,-88.24 971.06,-72.04 826.67,-63.59"/>
<polygon fill="black" stroke="black" points="826.65,-60.09 816.46,-63 826.24,-67.07 826.65,-60.09"/>
</g>
</g>
</svg>
