<?xml version="1.0" encoding="UTF-8" standalone="no"?>
<!DOCTYPE svg PUBLIC "-//W3C//DTD SVG 1.1//EN"
 "http://www.w3.org/Graphics/SVG/1.1/DTD/svg11.dtd">
<!-- Generated by graphviz version 2.43.0 (0)
 -->
<!-- Title: hierarchy Pages: 1 -->
<svg width="476pt" height="298pt"
 viewBox="0.00 0.00 476.48 298.00" xmlns="http://www.w3.org/2000/svg" xmlns:xlink="http://www.w3.org/1999/xlink">
<g id="graph0" class="graph" transform="scale(1 1) rotate(0) translate(4 294)">
<title>hierarchy</title>
<polygon fill="white" stroke="transparent" points="-4,4 -4,-294 472.48,-294 472.48,4 -4,4"/>
<text text-anchor="middle" x="234.24" y="-22.8" font-family="Open Sans" font-size="14.00">requirements.yml dependency graph of jonaspammer.motd </text>
<text text-anchor="middle" x="234.24" y="-7.8" font-family="Open Sans" font-size="14.00"> Generated by JonasPammer/ansible&#45;roles</text>
<!-- jonaspammer.motd -->
<g id="node1" class="node">
<title>jonaspammer.motd</title>
<ellipse fill="orange" stroke="black" stroke-width="3" cx="155.29" cy="-272" rx="98.28" ry="18"/>
<text text-anchor="middle" x="155.29" y="-268.3" font-family="Open Sans" font-size="14.00">jonaspammer.motd</text>
</g>
<!-- jonaspammer.bootstrap -->
<g id="node2" class="node">
<title>jonaspammer.bootstrap</title>
<ellipse fill="green" stroke="black" cx="118.29" cy="-56" rx="118.08" ry="18"/>
<text text-anchor="middle" x="118.29" y="-52.3" font-family="Open Sans" font-size="14.00">jonaspammer.bootstrap</text>
</g>
<!-- jonaspammer.motd&#45;&gt;jonaspammer.bootstrap -->
<g id="edge1" class="edge">
<title>jonaspammer.motd&#45;&gt;jonaspammer.bootstrap</title>
<path fill="none" stroke="black" d="M130.04,-254.51C118.34,-245.32 105.64,-232.75 99.29,-218 80.23,-173.72 95.18,-116.62 107.16,-83.68"/>
<polygon fill="black" stroke="black" points="110.46,-84.86 110.74,-74.27 103.91,-82.37 110.46,-84.86"/>
</g>
<!-- jonaspammer.shellcheck -->
<g id="node3" class="node">
<title>jonaspammer.shellcheck</title>
<ellipse fill="orange" stroke="black" cx="230.29" cy="-200" rx="122.38" ry="18"/>
<text text-anchor="middle" x="230.29" y="-196.3" font-family="Open Sans" font-size="14.00">jonaspammer.shellcheck</text>
</g>
<!-- jonaspammer.motd&#45;&gt;jonaspammer.shellcheck -->
<g id="edge2" class="edge">
<title>jonaspammer.motd&#45;&gt;jonaspammer.shellcheck</title>
<path fill="none" stroke="black" d="M173.44,-254.05C182.77,-245.35 194.3,-234.59 204.53,-225.04"/>
<polygon fill="black" stroke="black" points="207.12,-227.41 212.04,-218.03 202.34,-222.3 207.12,-227.41"/>
</g>
<!-- jonaspammer.shellcheck&#45;&gt;jonaspammer.bootstrap -->
<g id="edge3" class="edge">
<title>jonaspammer.shellcheck&#45;&gt;jonaspammer.bootstrap</title>
<path fill="none" stroke="black" d="M185.82,-183.05C168.23,-174.6 149.36,-162.5 137.29,-146 124.21,-128.11 119.76,-103.11 118.41,-84.16"/>
<polygon fill="black" stroke="black" points="121.9,-83.9 117.93,-74.07 114.91,-84.22 121.9,-83.9"/>
</g>
<!-- jonaspammer.core_dependencies -->
<g id="node4" class="node">
<title>jonaspammer.core_dependencies</title>
<ellipse fill="yellow" stroke="black" cx="307.29" cy="-128" rx="161.37" ry="18"/>
<text text-anchor="middle" x="307.29" y="-124.3" font-family="Open Sans" font-size="14.00">jonaspammer.core_dependencies</text>
</g>
<!-- jonaspammer.shellcheck&#45;&gt;jonaspammer.core_dependencies -->
<g id="edge4" class="edge">
<title>jonaspammer.shellcheck&#45;&gt;jonaspammer.core_dependencies</title>
<path fill="none" stroke="black" d="M248.93,-182.05C258.6,-173.26 270.57,-162.38 281.15,-152.76"/>
<polygon fill="black" stroke="black" points="283.51,-155.35 288.55,-146.03 278.8,-150.17 283.51,-155.35"/>
</g>
<!-- jonaspammer.core_dependencies&#45;&gt;jonaspammer.bootstrap -->
<g id="edge5" class="edge">
<title>jonaspammer.core_dependencies&#45;&gt;jonaspammer.bootstrap</title>
<path fill="none" stroke="black" d="M262.98,-110.59C235.33,-100.35 199.62,-87.12 170.59,-76.37"/>
<polygon fill="black" stroke="black" points="171.62,-73.02 161.02,-72.83 169.19,-79.58 171.62,-73.02"/>
</g>
</g>
</svg>
