<?xml version="1.0" encoding="UTF-8" standalone="no"?>
<!DOCTYPE svg PUBLIC "-//W3C//DTD SVG 1.1//EN"
 "http://www.w3.org/Graphics/SVG/1.1/DTD/svg11.dtd">
<!-- Generated by graphviz version 2.43.0 (0)
 -->
<!-- Title: hierarchy Pages: 1 -->
<svg width="474pt" height="154pt"
 viewBox="0.00 0.00 474.23 154.00" xmlns="http://www.w3.org/2000/svg" xmlns:xlink="http://www.w3.org/1999/xlink">
<g id="graph0" class="graph" transform="scale(1 1) rotate(0) translate(4 150)">
<title>hierarchy</title>
<polygon fill="white" stroke="transparent" points="-4,4 -4,-150 470.23,-150 470.23,4 -4,4"/>
<text text-anchor="middle" x="233.12" y="-22.8" font-family="Open Sans" font-size="14.00">requirements.yml dependency graph of jonaspammer.openssh </text>
<text text-anchor="middle" x="233.12" y="-7.8" font-family="Open Sans" font-size="14.00"> Generated by JonasPammer/ansible&#45;roles</text>
<!-- jonaspammer.openssh -->
<g id="node1" class="node">
<title>jonaspammer.openssh</title>
<ellipse fill="orange" stroke="black" stroke-width="3" cx="239.29" cy="-128" rx="112.38" ry="18"/>
<text text-anchor="middle" x="239.29" y="-124.3" font-family="Open Sans" font-size="14.00">jonaspammer.openssh</text>
</g>
<!-- jonaspammer.bootstrap -->
<g id="node2" class="node">
<title>jonaspammer.bootstrap</title>
<ellipse fill="green" stroke="black" cx="118.29" cy="-56" rx="118.08" ry="18"/>
<text text-anchor="middle" x="118.29" y="-52.3" font-family="Open Sans" font-size="14.00">jonaspammer.bootstrap</text>
</g>
<!-- jonaspammer.openssh&#45;&gt;jonaspammer.bootstrap -->
<g id="edge1" class="edge">
<title>jonaspammer.openssh&#45;&gt;jonaspammer.bootstrap</title>
<path fill="none" stroke="black" d="M210.61,-110.41C194.31,-100.98 173.69,-89.05 156.08,-78.86"/>
<polygon fill="black" stroke="black" points="157.59,-75.69 147.18,-73.71 154.08,-81.75 157.59,-75.69"/>
</g>
<!-- robertdebock.selinux -->
<g id="node3" class="node">
<title>robertdebock.selinux</title>
<ellipse fill="green" stroke="black" cx="360.29" cy="-56" rx="105.88" ry="18"/>
<text text-anchor="middle" x="360.29" y="-52.3" font-family="Open Sans" font-size="14.00">robertdebock.selinux</text>
</g>
<!-- jonaspammer.openssh&#45;&gt;robertdebock.selinux -->
<g id="edge2" class="edge">
<title>jonaspammer.openssh&#45;&gt;robertdebock.selinux</title>
<path fill="none" stroke="black" d="M267.96,-110.41C284.39,-100.91 305.19,-88.88 322.89,-78.64"/>
<polygon fill="black" stroke="black" points="324.92,-81.51 331.82,-73.47 321.41,-75.45 324.92,-81.51"/>
</g>
</g>
</svg>
