<?xml version="1.0" encoding="UTF-8" standalone="no"?>
<!DOCTYPE svg PUBLIC "-//W3C//DTD SVG 1.1//EN"
 "http://www.w3.org/Graphics/SVG/1.1/DTD/svg11.dtd">
<!-- Generated by graphviz version 2.43.0 (0)
 -->
<!-- Title: hierarchy Pages: 1 -->
<svg width="1163pt" height="298pt"
 viewBox="0.00 0.00 1162.58 298.00" xmlns="http://www.w3.org/2000/svg" xmlns:xlink="http://www.w3.org/1999/xlink">
<g id="graph0" class="graph" transform="scale(1 1) rotate(0) translate(4 294)">
<title>hierarchy</title>
<polygon fill="white" stroke="transparent" points="-4,4 -4,-294 1158.58,-294 1158.58,4 -4,4"/>
<text text-anchor="middle" x="577.29" y="-22.8" font-family="Open Sans" font-size="14.00">requirements.yml dependency graph of all roles </text>
<text text-anchor="middle" x="577.29" y="-7.8" font-family="Open Sans" font-size="14.00"> Generated by JonasPammer/ansible&#45;roles</text>
<!-- jonaspammer.bootstrap -->
<g id="node1" class="node">
<title>jonaspammer.bootstrap</title>
<ellipse fill="green" stroke="black" cx="461.14" cy="-56" rx="118.08" ry="18"/>
<text text-anchor="middle" x="461.14" y="-52.3" font-family="Open Sans" font-size="14.00">jonaspammer.bootstrap</text>
</g>
<!-- jonaspammer.core_dependencies -->
<g id="node2" class="node">
<title>jonaspammer.core_dependencies</title>
<ellipse fill="yellow" stroke="black" cx="272.14" cy="-128" rx="161.37" ry="18"/>
<text text-anchor="middle" x="272.14" y="-124.3" font-family="Open Sans" font-size="14.00">jonaspammer.core_dependencies</text>
</g>
<!-- jonaspammer.core_dependencies&#45;&gt;jonaspammer.bootstrap -->
<g id="edge1" class="edge">
<title>jonaspammer.core_dependencies&#45;&gt;jonaspammer.bootstrap</title>
<path fill="none" stroke="black" d="M316.45,-110.59C344.1,-100.35 379.81,-87.12 408.84,-76.37"/>
<polygon fill="black" stroke="black" points="410.25,-79.58 418.41,-72.83 407.81,-73.02 410.25,-79.58"/>
</g>
<!-- jonaspammer.motd -->
<g id="node3" class="node">
<title>jonaspammer.motd</title>
<ellipse fill="orange" stroke="black" cx="98.14" cy="-272" rx="98.28" ry="18"/>
<text text-anchor="middle" x="98.14" y="-268.3" font-family="Open Sans" font-size="14.00">jonaspammer.motd</text>
</g>
<!-- jonaspammer.motd&#45;&gt;jonaspammer.bootstrap -->
<g id="edge2" class="edge">
<title>jonaspammer.motd&#45;&gt;jonaspammer.bootstrap</title>
<path fill="none" stroke="black" d="M72.9,-254.51C61.19,-245.32 48.49,-232.75 42.14,-218 21.23,-169.41 47.14,-137.79 92.14,-110 133.01,-84.76 250.54,-70.97 342.1,-63.84"/>
<polygon fill="black" stroke="black" points="342.57,-67.31 352.28,-63.07 342.04,-60.33 342.57,-67.31"/>
</g>
<!-- jonaspammer.shellcheck -->
<g id="node6" class="node">
<title>jonaspammer.shellcheck</title>
<ellipse fill="orange" stroke="black" cx="173.14" cy="-200" rx="122.38" ry="18"/>
<text text-anchor="middle" x="173.14" y="-196.3" font-family="Open Sans" font-size="14.00">jonaspammer.shellcheck</text>
</g>
<!-- jonaspammer.motd&#45;&gt;jonaspammer.shellcheck -->
<g id="edge3" class="edge">
<title>jonaspammer.motd&#45;&gt;jonaspammer.shellcheck</title>
<path fill="none" stroke="black" d="M116.3,-254.05C125.62,-245.35 137.15,-234.59 147.38,-225.04"/>
<polygon fill="black" stroke="black" points="149.97,-227.41 154.89,-218.03 145.19,-222.3 149.97,-227.41"/>
</g>
<!-- jonaspammer.openssh -->
<g id="node4" class="node">
<title>jonaspammer.openssh</title>
<ellipse fill="orange" stroke="black" cx="1042.14" cy="-128" rx="112.38" ry="18"/>
<text text-anchor="middle" x="1042.14" y="-124.3" font-family="Open Sans" font-size="14.00">jonaspammer.openssh</text>
</g>
<!-- jonaspammer.openssh&#45;&gt;jonaspammer.bootstrap -->
<g id="edge4" class="edge">
<title>jonaspammer.openssh&#45;&gt;jonaspammer.bootstrap</title>
<path fill="none" stroke="black" d="M961.13,-115.44C947.46,-113.57 933.4,-111.69 920.14,-110 798.07,-94.45 657.47,-78.5 564.39,-68.22"/>
<polygon fill="black" stroke="black" points="564.73,-64.74 554.4,-67.12 563.96,-71.69 564.73,-64.74"/>
</g>
<!-- robertdebock.selinux -->
<g id="node9" class="node">
<title>robertdebock.selinux</title>
<ellipse fill="none" stroke="black" cx="1042.14" cy="-56" rx="105.88" ry="18"/>
<text text-anchor="middle" x="1042.14" y="-52.3" font-family="Open Sans" font-size="14.00">robertdebock.selinux</text>
</g>
<!-- jonaspammer.openssh&#45;&gt;robertdebock.selinux -->
<g id="edge5" class="edge">
<title>jonaspammer.openssh&#45;&gt;robertdebock.selinux</title>
<path fill="none" stroke="black" d="M1042.14,-109.7C1042.14,-101.98 1042.14,-92.71 1042.14,-84.11"/>
<polygon fill="black" stroke="black" points="1045.64,-84.1 1042.14,-74.1 1038.64,-84.1 1045.64,-84.1"/>
</g>
<!-- jonaspammer.pip -->
<g id="node5" class="node">
<title>jonaspammer.pip</title>
<ellipse fill="yellow" stroke="black" cx="578.14" cy="-128" rx="89.08" ry="18"/>
<text text-anchor="middle" x="578.14" y="-124.3" font-family="Open Sans" font-size="14.00">jonaspammer.pip</text>
</g>
<!-- jonaspammer.pip&#45;&gt;jonaspammer.bootstrap -->
<g id="edge6" class="edge">
<title>jonaspammer.pip&#45;&gt;jonaspammer.bootstrap</title>
<path fill="none" stroke="black" d="M551.01,-110.76C535.14,-101.27 514.9,-89.17 497.65,-78.84"/>
<polygon fill="black" stroke="black" points="499.32,-75.76 488.94,-73.63 495.73,-81.77 499.32,-75.76"/>
</g>
<!-- jonaspammer.shellcheck&#45;&gt;jonaspammer.bootstrap -->
<g id="edge7" class="edge">
<title>jonaspammer.shellcheck&#45;&gt;jonaspammer.bootstrap</title>
<path fill="none" stroke="black" d="M139.1,-182.64C124.94,-173.9 110,-161.68 102.14,-146 94.97,-131.7 91.69,-122.11 102.14,-110 131.95,-75.47 242.92,-63.04 333.69,-58.77"/>
<polygon fill="black" stroke="black" points="333.97,-62.26 343.81,-58.32 333.66,-55.26 333.97,-62.26"/>
</g>
<!-- jonaspammer.shellcheck&#45;&gt;jonaspammer.core_dependencies -->
<g id="edge8" class="edge">
<title>jonaspammer.shellcheck&#45;&gt;jonaspammer.core_dependencies</title>
<path fill="none" stroke="black" d="M196.85,-182.23C209.74,-173.12 225.86,-161.72 239.87,-151.82"/>
<polygon fill="black" stroke="black" points="242.13,-154.5 248.28,-145.87 238.09,-148.79 242.13,-154.5"/>
</g>
<!-- jonaspammer.checkmk_server -->
<g id="node7" class="node">
<title>jonaspammer.checkmk_server</title>
<ellipse fill="orange" stroke="black" cx="461.14" cy="-200" rx="148.37" ry="18"/>
<text text-anchor="middle" x="461.14" y="-196.3" font-family="Open Sans" font-size="14.00">jonaspammer.checkmk_server</text>
</g>
<!-- jonaspammer.checkmk_server&#45;&gt;jonaspammer.bootstrap -->
<g id="edge9" class="edge">
<title>jonaspammer.checkmk_server&#45;&gt;jonaspammer.bootstrap</title>
<path fill="none" stroke="black" d="M461.14,-181.87C461.14,-157.67 461.14,-113.21 461.14,-84.39"/>
<polygon fill="black" stroke="black" points="464.64,-84.19 461.14,-74.19 457.64,-84.19 464.64,-84.19"/>
</g>
<!-- jonaspammer.checkmk_server&#45;&gt;jonaspammer.core_dependencies -->
<g id="edge10" class="edge">
<title>jonaspammer.checkmk_server&#45;&gt;jonaspammer.core_dependencies</title>
<path fill="none" stroke="black" d="M417.31,-182.76C390.07,-172.68 354.86,-159.64 325.94,-148.93"/>
<polygon fill="black" stroke="black" points="326.99,-145.58 316.39,-145.39 324.56,-152.15 326.99,-145.58"/>
</g>
<!-- jonaspammer.apache2 -->
<g id="node8" class="node">
<title>jonaspammer.apache2</title>
<ellipse fill="yellow" stroke="black" cx="798.14" cy="-128" rx="113.18" ry="18"/>
<text text-anchor="middle" x="798.14" y="-124.3" font-family="Open Sans" font-size="14.00">jonaspammer.apache2</text>
</g>
<!-- jonaspammer.apache2&#45;&gt;jonaspammer.bootstrap -->
<g id="edge11" class="edge">
<title>jonaspammer.apache2&#45;&gt;jonaspammer.bootstrap</title>
<path fill="none" stroke="black" d="M732.36,-113.34C676.59,-101.75 596.54,-85.13 537.86,-72.94"/>
<polygon fill="black" stroke="black" points="538.41,-69.47 527.9,-70.87 536.98,-76.33 538.41,-69.47"/>
</g>
</g>
</svg>
