<?xml version="1.0" encoding="UTF-8" standalone="no"?>
<!DOCTYPE svg PUBLIC "-//W3C//DTD SVG 1.1//EN"
 "http://www.w3.org/Graphics/SVG/1.1/DTD/svg11.dtd">
<!-- Generated by graphviz version 2.43.0 (0)
 -->
<!-- Title: hierarchy Pages: 1 -->
<svg width="444pt" height="298pt"
 viewBox="0.00 0.00 444.00 298.00" xmlns="http://www.w3.org/2000/svg" xmlns:xlink="http://www.w3.org/1999/xlink">
<g id="graph0" class="graph" transform="scale(1 1) rotate(0) translate(4 294)">
<title>hierarchy</title>
<polygon fill="white" stroke="transparent" points="-4,4 -4,-294 440,-294 440,4 -4,4"/>
<text text-anchor="middle" x="218" y="-22.8" font-family="Open Sans" font-size="14.00">requirements.yml dependency graph of jonaspammer.motd </text>
<text text-anchor="middle" x="218" y="-7.8" font-family="Open Sans" font-size="14.00"> Generated by JonasPammer/ansible&#45;roles</text>
<!-- jonaspammer.motd -->
<g id="node1" class="node">
<title>jonaspammer.motd</title>
<ellipse fill="red" stroke="black" stroke-width="3" cx="134.7" cy="-272" rx="98.28" ry="18"/>
<text text-anchor="middle" x="134.7" y="-268.3" font-family="Open Sans" font-size="14.00">jonaspammer.motd</text>
</g>
<!-- jonaspammer.bootstrap -->
<g id="node2" class="node">
<title>jonaspammer.bootstrap</title>
<ellipse fill="green" stroke="black" cx="209.7" cy="-56" rx="118.08" ry="18"/>
<text text-anchor="middle" x="209.7" y="-52.3" font-family="Open Sans" font-size="14.00">jonaspammer.bootstrap</text>
</g>
<!-- jonaspammer.motd&#45;&gt;jonaspammer.bootstrap -->
<g id="edge1" class="edge">
<title>jonaspammer.motd&#45;&gt;jonaspammer.bootstrap</title>
<path fill="none" stroke="black" d="M111.73,-254.32C73.19,-224.3 3.16,-159.67 39.7,-110 54.66,-89.67 77.38,-76.91 101.38,-68.97"/>
<polygon fill="black" stroke="black" points="102.43,-72.31 110.99,-66.05 100.4,-65.61 102.43,-72.31"/>
</g>
<!-- jonaspammer.core_dependencies -->
<g id="node3" class="node">
<title>jonaspammer.core_dependencies</title>
<ellipse fill="yellow" stroke="black" cx="209.7" cy="-128" rx="161.37" ry="18"/>
<text text-anchor="middle" x="209.7" y="-124.3" font-family="Open Sans" font-size="14.00">jonaspammer.core_dependencies</text>
</g>
<!-- jonaspammer.motd&#45;&gt;jonaspammer.core_dependencies -->
<g id="edge2" class="edge">
<title>jonaspammer.motd&#45;&gt;jonaspammer.core_dependencies</title>
<path fill="none" stroke="black" d="M135.36,-253.87C136.74,-235.13 140.94,-204.73 153.7,-182 159.9,-170.97 169.15,-160.85 178.37,-152.49"/>
<polygon fill="black" stroke="black" points="180.73,-155.07 186.02,-145.89 176.16,-149.77 180.73,-155.07"/>
</g>
<!-- jonaspammer.shellcheck -->
<g id="node4" class="node">
<title>jonaspammer.shellcheck</title>
<ellipse fill="orange" stroke="black" cx="284.7" cy="-200" rx="122.38" ry="18"/>
<text text-anchor="middle" x="284.7" y="-196.3" font-family="Open Sans" font-size="14.00">jonaspammer.shellcheck</text>
</g>
<!-- jonaspammer.motd&#45;&gt;jonaspammer.shellcheck -->
<g id="edge3" class="edge">
<title>jonaspammer.motd&#45;&gt;jonaspammer.shellcheck</title>
<path fill="none" stroke="black" d="M168.74,-255.12C190.01,-245.19 217.63,-232.3 240.57,-221.6"/>
<polygon fill="black" stroke="black" points="242.18,-224.71 249.76,-217.31 239.22,-218.36 242.18,-224.71"/>
</g>
<!-- jonaspammer.core_dependencies&#45;&gt;jonaspammer.bootstrap -->
<g id="edge4" class="edge">
<title>jonaspammer.core_dependencies&#45;&gt;jonaspammer.bootstrap</title>
<path fill="none" stroke="black" d="M209.7,-109.7C209.7,-101.98 209.7,-92.71 209.7,-84.11"/>
<polygon fill="black" stroke="black" points="213.2,-84.1 209.7,-74.1 206.2,-84.1 213.2,-84.1"/>
</g>
<!-- jonaspammer.shellcheck&#45;&gt;jonaspammer.bootstrap -->
<g id="edge5" class="edge">
<title>jonaspammer.shellcheck&#45;&gt;jonaspammer.bootstrap</title>
<path fill="none" stroke="black" d="M333.89,-183.52C351.54,-175.32 369.57,-163.26 379.7,-146 387.81,-132.2 389.19,-122.89 379.7,-110 364.74,-89.67 342.03,-76.91 318.03,-68.97"/>
<polygon fill="black" stroke="black" points="319.01,-65.61 308.42,-66.05 316.97,-72.31 319.01,-65.61"/>
</g>
<!-- jonaspammer.shellcheck&#45;&gt;jonaspammer.core_dependencies -->
<g id="edge6" class="edge">
<title>jonaspammer.shellcheck&#45;&gt;jonaspammer.core_dependencies</title>
<path fill="none" stroke="black" d="M266.55,-182.05C257.22,-173.35 245.69,-162.59 235.46,-153.04"/>
<polygon fill="black" stroke="black" points="237.65,-150.3 227.95,-146.03 232.87,-155.41 237.65,-150.3"/>
</g>
</g>
</svg>
