<?xml version="1.0" encoding="UTF-8" standalone="no"?>
<!DOCTYPE svg PUBLIC "-//W3C//DTD SVG 1.1//EN"
 "http://www.w3.org/Graphics/SVG/1.1/DTD/svg11.dtd">
<!-- Generated by graphviz version 2.43.0 (0)
 -->
<!-- Title: hierarchy Pages: 1 -->
<svg width="918pt" height="298pt"
 viewBox="0.00 0.00 917.58 298.00" xmlns="http://www.w3.org/2000/svg" xmlns:xlink="http://www.w3.org/1999/xlink">
<g id="graph0" class="graph" transform="scale(1 1) rotate(0) translate(4 294)">
<title>hierarchy</title>
<polygon fill="white" stroke="transparent" points="-4,4 -4,-294 913.58,-294 913.58,4 -4,4"/>
<text text-anchor="middle" x="454.79" y="-22.8" font-family="Open Sans" font-size="14.00">requirements.yml dependency graph of all roles </text>
<text text-anchor="middle" x="454.79" y="-7.8" font-family="Open Sans" font-size="14.00"> Generated by JonasPammer/ansible&#45;roles</text>
<!-- jonaspammer.bootstrap -->
<g id="node1" class="node">
<title>jonaspammer.bootstrap</title>
<ellipse fill="green" stroke="black" cx="367.14" cy="-56" rx="118.08" ry="18"/>
<text text-anchor="middle" x="367.14" y="-52.3" font-family="Open Sans" font-size="14.00">jonaspammer.bootstrap</text>
</g>
<!-- jonaspammer.core_dependencies -->
<g id="node2" class="node">
<title>jonaspammer.core_dependencies</title>
<ellipse fill="yellow" stroke="black" cx="272.14" cy="-128" rx="161.37" ry="18"/>
<text text-anchor="middle" x="272.14" y="-124.3" font-family="Open Sans" font-size="14.00">jonaspammer.core_dependencies</text>
</g>
<!-- jonaspammer.core_dependencies&#45;&gt;jonaspammer.bootstrap -->
<g id="edge1" class="edge">
<title>jonaspammer.core_dependencies&#45;&gt;jonaspammer.bootstrap</title>
<path fill="none" stroke="black" d="M295.14,-110.05C307.39,-101.03 322.64,-89.79 335.94,-79.99"/>
<polygon fill="black" stroke="black" points="338.38,-82.54 344.36,-73.79 334.23,-76.9 338.38,-82.54"/>
</g>
<!-- jonaspammer.motd -->
<g id="node3" class="node">
<title>jonaspammer.motd</title>
<ellipse fill="orange" stroke="black" cx="98.14" cy="-272" rx="98.28" ry="18"/>
<text text-anchor="middle" x="98.14" y="-268.3" font-family="Open Sans" font-size="14.00">jonaspammer.motd</text>
</g>
<!-- jonaspammer.motd&#45;&gt;jonaspammer.bootstrap -->
<g id="edge2" class="edge">
<title>jonaspammer.motd&#45;&gt;jonaspammer.bootstrap</title>
<path fill="none" stroke="black" d="M72.9,-254.51C61.19,-245.32 48.49,-232.75 42.14,-218 21.23,-169.41 47.81,-138.86 92.14,-110 120.39,-91.61 198.69,-77.6 264.55,-68.61"/>
<polygon fill="black" stroke="black" points="265.13,-72.06 274.58,-67.27 264.21,-65.12 265.13,-72.06"/>
</g>
<!-- jonaspammer.shellcheck -->
<g id="node6" class="node">
<title>jonaspammer.shellcheck</title>
<ellipse fill="orange" stroke="black" cx="173.14" cy="-200" rx="122.38" ry="18"/>
<text text-anchor="middle" x="173.14" y="-196.3" font-family="Open Sans" font-size="14.00">jonaspammer.shellcheck</text>
</g>
<!-- jonaspammer.motd&#45;&gt;jonaspammer.shellcheck -->
<g id="edge3" class="edge">
<title>jonaspammer.motd&#45;&gt;jonaspammer.shellcheck</title>
<path fill="none" stroke="black" d="M116.3,-254.05C125.62,-245.35 137.15,-234.59 147.38,-225.04"/>
<polygon fill="black" stroke="black" points="149.97,-227.41 154.89,-218.03 145.19,-222.3 149.97,-227.41"/>
</g>
<!-- jonaspammer.openssh -->
<g id="node4" class="node">
<title>jonaspammer.openssh</title>
<ellipse fill="orange" stroke="black" cx="797.14" cy="-128" rx="112.38" ry="18"/>
<text text-anchor="middle" x="797.14" y="-124.3" font-family="Open Sans" font-size="14.00">jonaspammer.openssh</text>
</g>
<!-- jonaspammer.openssh&#45;&gt;jonaspammer.bootstrap -->
<g id="edge4" class="edge">
<title>jonaspammer.openssh&#45;&gt;jonaspammer.bootstrap</title>
<path fill="none" stroke="black" d="M721.26,-114.65C646.84,-102.53 533.46,-84.08 455.14,-71.32"/>
<polygon fill="black" stroke="black" points="455.24,-67.8 444.81,-69.64 454.11,-74.7 455.24,-67.8"/>
</g>
<!-- robertdebock.selinux -->
<g id="node8" class="node">
<title>robertdebock.selinux</title>
<ellipse fill="none" stroke="black" cx="797.14" cy="-56" rx="105.88" ry="18"/>
<text text-anchor="middle" x="797.14" y="-52.3" font-family="Open Sans" font-size="14.00">robertdebock.selinux</text>
</g>
<!-- jonaspammer.openssh&#45;&gt;robertdebock.selinux -->
<g id="edge5" class="edge">
<title>jonaspammer.openssh&#45;&gt;robertdebock.selinux</title>
<path fill="none" stroke="black" d="M797.14,-109.7C797.14,-101.98 797.14,-92.71 797.14,-84.11"/>
<polygon fill="black" stroke="black" points="800.64,-84.1 797.14,-74.1 793.64,-84.1 800.64,-84.1"/>
</g>
<!-- jonaspammer.pip -->
<g id="node5" class="node">
<title>jonaspammer.pip</title>
<ellipse fill="yellow" stroke="black" cx="578.14" cy="-128" rx="89.08" ry="18"/>
<text text-anchor="middle" x="578.14" y="-124.3" font-family="Open Sans" font-size="14.00">jonaspammer.pip</text>
</g>
<!-- jonaspammer.pip&#45;&gt;jonaspammer.bootstrap -->
<g id="edge6" class="edge">
<title>jonaspammer.pip&#45;&gt;jonaspammer.bootstrap</title>
<path fill="none" stroke="black" d="M533.91,-112.33C501.88,-101.7 458.31,-87.25 423.74,-75.78"/>
<polygon fill="black" stroke="black" points="424.84,-72.45 414.25,-72.63 422.63,-79.1 424.84,-72.45"/>
</g>
<!-- jonaspammer.shellcheck&#45;&gt;jonaspammer.bootstrap -->
<g id="edge7" class="edge">
<title>jonaspammer.shellcheck&#45;&gt;jonaspammer.bootstrap</title>
<path fill="none" stroke="black" d="M139.1,-182.64C124.94,-173.9 110,-161.68 102.14,-146 94.97,-131.7 92,-122.37 102.14,-110 121.55,-86.32 190.05,-73.01 252.54,-65.65"/>
<polygon fill="black" stroke="black" points="252.97,-69.13 262.51,-64.52 252.18,-62.17 252.97,-69.13"/>
</g>
<!-- jonaspammer.shellcheck&#45;&gt;jonaspammer.core_dependencies -->
<g id="edge8" class="edge">
<title>jonaspammer.shellcheck&#45;&gt;jonaspammer.core_dependencies</title>
<path fill="none" stroke="black" d="M196.85,-182.23C209.74,-173.12 225.86,-161.72 239.87,-151.82"/>
<polygon fill="black" stroke="black" points="242.13,-154.5 248.28,-145.87 238.09,-148.79 242.13,-154.5"/>
</g>
<!-- jonaspammer.checkmk_server -->
<g id="node7" class="node">
<title>jonaspammer.checkmk_server</title>
<ellipse fill="orange" stroke="black" cx="461.14" cy="-200" rx="148.37" ry="18"/>
<text text-anchor="middle" x="461.14" y="-196.3" font-family="Open Sans" font-size="14.00">jonaspammer.checkmk_server</text>
</g>
<!-- jonaspammer.checkmk_server&#45;&gt;jonaspammer.bootstrap -->
<g id="edge9" class="edge">
<title>jonaspammer.checkmk_server&#45;&gt;jonaspammer.bootstrap</title>
<path fill="none" stroke="black" d="M461.1,-181.85C460.28,-162.82 456.58,-131.9 442.14,-110 433.87,-97.45 421.52,-86.96 409.22,-78.71"/>
<polygon fill="black" stroke="black" points="411.09,-75.75 400.76,-73.36 407.34,-81.67 411.09,-75.75"/>
</g>
<!-- jonaspammer.checkmk_server&#45;&gt;jonaspammer.core_dependencies -->
<g id="edge10" class="edge">
<title>jonaspammer.checkmk_server&#45;&gt;jonaspammer.core_dependencies</title>
<path fill="none" stroke="black" d="M417.31,-182.76C390.07,-172.68 354.86,-159.64 325.94,-148.93"/>
<polygon fill="black" stroke="black" points="326.99,-145.58 316.39,-145.39 324.56,-152.15 326.99,-145.58"/>
</g>
</g>
</svg>
