<?xml version="1.0" encoding="UTF-8" standalone="no"?>
<!DOCTYPE svg PUBLIC "-//W3C//DTD SVG 1.1//EN"
 "http://www.w3.org/Graphics/SVG/1.1/DTD/svg11.dtd">
<!-- Generated by graphviz version 2.43.0 (0)
 -->
<!-- Title: hierarchy Pages: 1 -->
<svg width="1535pt" height="298pt"
 viewBox="0.00 0.00 1535.06 298.00" xmlns="http://www.w3.org/2000/svg" xmlns:xlink="http://www.w3.org/1999/xlink">
<g id="graph0" class="graph" transform="scale(1 1) rotate(0) translate(4 294)">
<title>hierarchy</title>
<polygon fill="white" stroke="transparent" points="-4,4 -4,-294 1531.06,-294 1531.06,4 -4,4"/>
<text text-anchor="middle" x="763.53" y="-22.8" font-family="Open Sans" font-size="14.00">requirements.yml dependency graph of all roles </text>
<text text-anchor="middle" x="763.53" y="-7.8" font-family="Open Sans" font-size="14.00"> Generated by JonasPammer/ansible&#45;roles</text>
<!-- jonaspammer.bootstrap -->
<g id="node1" class="node">
<title>jonaspammer.bootstrap</title>
<ellipse fill="green" stroke="black" cx="617.62" cy="-56" rx="118.08" ry="18"/>
<text text-anchor="middle" x="617.62" y="-52.3" font-family="Open Sans" font-size="14.00">jonaspammer.bootstrap</text>
</g>
<!-- jonaspammer.core_dependencies -->
<g id="node2" class="node">
<title>jonaspammer.core_dependencies</title>
<ellipse fill="yellow" stroke="black" cx="319.62" cy="-128" rx="161.37" ry="18"/>
<text text-anchor="middle" x="319.62" y="-124.3" font-family="Open Sans" font-size="14.00">jonaspammer.core_dependencies</text>
</g>
<!-- jonaspammer.core_dependencies&#45;&gt;jonaspammer.bootstrap -->
<g id="edge1" class="edge">
<title>jonaspammer.core_dependencies&#45;&gt;jonaspammer.bootstrap</title>
<path fill="none" stroke="black" d="M385.39,-111.55C433.01,-100.36 497.34,-85.25 546.22,-73.77"/>
<polygon fill="black" stroke="black" points="547.16,-77.15 556.09,-71.45 545.55,-70.33 547.16,-77.15"/>
</g>
<!-- jonaspammer.pip -->
<g id="node3" class="node">
<title>jonaspammer.pip</title>
<ellipse fill="yellow" stroke="black" cx="1157.62" cy="-128" rx="89.08" ry="18"/>
<text text-anchor="middle" x="1157.62" y="-124.3" font-family="Open Sans" font-size="14.00">jonaspammer.pip</text>
</g>
<!-- jonaspammer.pip&#45;&gt;jonaspammer.bootstrap -->
<g id="edge2" class="edge">
<title>jonaspammer.pip&#45;&gt;jonaspammer.bootstrap</title>
<path fill="none" stroke="black" d="M1093.65,-115.41C1082.33,-113.5 1070.64,-111.62 1059.62,-110 944.57,-93.14 812.09,-77.79 722.4,-68"/>
<polygon fill="black" stroke="black" points="722.54,-64.49 712.22,-66.89 721.79,-71.45 722.54,-64.49"/>
</g>
<!-- jonaspammer.shellcheck -->
<g id="node4" class="node">
<title>jonaspammer.shellcheck</title>
<ellipse fill="orange" stroke="black" cx="508.62" cy="-200" rx="122.38" ry="18"/>
<text text-anchor="middle" x="508.62" y="-196.3" font-family="Open Sans" font-size="14.00">jonaspammer.shellcheck</text>
</g>
<!-- jonaspammer.shellcheck&#45;&gt;jonaspammer.bootstrap -->
<g id="edge3" class="edge">
<title>jonaspammer.shellcheck&#45;&gt;jonaspammer.bootstrap</title>
<path fill="none" stroke="black" d="M509.53,-181.99C511.33,-162.8 516.7,-131.46 532.62,-110 542.31,-96.94 556.26,-86.35 570.07,-78.17"/>
<polygon fill="black" stroke="black" points="572.06,-81.07 579.08,-73.13 568.64,-74.96 572.06,-81.07"/>
</g>
<!-- jonaspammer.shellcheck&#45;&gt;jonaspammer.core_dependencies -->
<g id="edge4" class="edge">
<title>jonaspammer.shellcheck&#45;&gt;jonaspammer.core_dependencies</title>
<path fill="none" stroke="black" d="M465.73,-183.12C438.43,-173 402.84,-159.82 373.62,-149"/>
<polygon fill="black" stroke="black" points="374.57,-145.62 363.98,-145.43 372.14,-152.18 374.57,-145.62"/>
</g>
<!-- jonaspammer.checkmk_server -->
<g id="node5" class="node">
<title>jonaspammer.checkmk_server</title>
<ellipse fill="orange" stroke="black" cx="163.62" cy="-200" rx="148.37" ry="18"/>
<text text-anchor="middle" x="163.62" y="-196.3" font-family="Open Sans" font-size="14.00">jonaspammer.checkmk_server</text>
</g>
<!-- jonaspammer.checkmk_server&#45;&gt;jonaspammer.bootstrap -->
<g id="edge5" class="edge">
<title>jonaspammer.checkmk_server&#45;&gt;jonaspammer.bootstrap</title>
<path fill="none" stroke="black" d="M153.77,-181.98C143.75,-162.19 132.01,-129.72 149.62,-110 172.38,-84.52 364.93,-69.72 495.84,-62.51"/>
<polygon fill="black" stroke="black" points="496.15,-66 505.95,-61.96 495.77,-59.01 496.15,-66"/>
</g>
<!-- jonaspammer.checkmk_server&#45;&gt;jonaspammer.core_dependencies -->
<g id="edge6" class="edge">
<title>jonaspammer.checkmk_server&#45;&gt;jonaspammer.core_dependencies</title>
<path fill="none" stroke="black" d="M200.59,-182.41C222.37,-172.64 250.11,-160.19 273.33,-149.77"/>
<polygon fill="black" stroke="black" points="274.96,-152.88 282.65,-145.59 272.09,-146.49 274.96,-152.88"/>
</g>
<!-- jonaspammer.checkmk_agent -->
<g id="node6" class="node">
<title>jonaspammer.checkmk_agent</title>
<ellipse fill="red" stroke="black" cx="163.62" cy="-272" rx="145.67" ry="18"/>
<text text-anchor="middle" x="163.62" y="-268.3" font-family="Open Sans" font-size="14.00">jonaspammer.checkmk_agent</text>
</g>
<!-- jonaspammer.checkmk_agent&#45;&gt;jonaspammer.bootstrap -->
<g id="edge7" class="edge">
<title>jonaspammer.checkmk_agent&#45;&gt;jonaspammer.bootstrap</title>
<path fill="none" stroke="black" d="M66.96,-258.51C43.5,-250.67 21.05,-238.1 6.62,-218 -2.71,-205 -1.5,-195.78 6.62,-182 40.15,-125.1 73.68,-130.01 136.62,-110 252.34,-73.22 390.72,-61.07 489.28,-57.47"/>
<polygon fill="black" stroke="black" points="489.42,-60.97 499.29,-57.13 489.18,-53.97 489.42,-60.97"/>
</g>
<!-- jonaspammer.checkmk_agent&#45;&gt;jonaspammer.core_dependencies -->
<g id="edge8" class="edge">
<title>jonaspammer.checkmk_agent&#45;&gt;jonaspammer.core_dependencies</title>
<path fill="none" stroke="black" d="M260.28,-258.51C283.74,-250.67 306.19,-238.1 320.62,-218 333.32,-200.31 331.73,-175.13 327.74,-156.07"/>
<polygon fill="black" stroke="black" points="331.11,-155.09 325.36,-146.19 324.3,-156.73 331.11,-155.09"/>
</g>
<!-- jonaspammer.checkmk_agent&#45;&gt;jonaspammer.checkmk_server -->
<g id="edge9" class="edge">
<title>jonaspammer.checkmk_agent&#45;&gt;jonaspammer.checkmk_server</title>
<path fill="none" stroke="black" d="M163.62,-253.7C163.62,-245.98 163.62,-236.71 163.62,-228.11"/>
<polygon fill="black" stroke="black" points="167.12,-228.1 163.62,-218.1 160.12,-228.1 167.12,-228.1"/>
</g>
<!-- jonaspammer.openssh -->
<g id="node7" class="node">
<title>jonaspammer.openssh</title>
<ellipse fill="orange" stroke="black" cx="1414.62" cy="-128" rx="112.38" ry="18"/>
<text text-anchor="middle" x="1414.62" y="-124.3" font-family="Open Sans" font-size="14.00">jonaspammer.openssh</text>
</g>
<!-- jonaspammer.openssh&#45;&gt;jonaspammer.bootstrap -->
<g id="edge10" class="edge">
<title>jonaspammer.openssh&#45;&gt;jonaspammer.bootstrap</title>
<path fill="none" stroke="black" d="M1333.7,-115.41C1318.73,-113.46 1303.22,-111.56 1288.62,-110 1095.11,-89.32 869.41,-73.12 735.29,-64.32"/>
<polygon fill="black" stroke="black" points="735.2,-60.8 725,-63.64 734.75,-67.79 735.2,-60.8"/>
</g>
<!-- robertdebock.selinux -->
<g id="node13" class="node">
<title>robertdebock.selinux</title>
<ellipse fill="none" stroke="black" cx="1414.62" cy="-56" rx="105.88" ry="18"/>
<text text-anchor="middle" x="1414.62" y="-52.3" font-family="Open Sans" font-size="14.00">robertdebock.selinux</text>
</g>
<!-- jonaspammer.openssh&#45;&gt;robertdebock.selinux -->
<g id="edge11" class="edge">
<title>jonaspammer.openssh&#45;&gt;robertdebock.selinux</title>
<path fill="none" stroke="black" d="M1414.62,-109.7C1414.62,-101.98 1414.62,-92.71 1414.62,-84.11"/>
<polygon fill="black" stroke="black" points="1418.12,-84.1 1414.62,-74.1 1411.12,-84.1 1418.12,-84.1"/>
</g>
<!-- jonaspammer.motd -->
<g id="node8" class="node">
<title>jonaspammer.motd</title>
<ellipse fill="orange" stroke="black" cx="891.62" cy="-272" rx="98.28" ry="18"/>
<text text-anchor="middle" x="891.62" y="-268.3" font-family="Open Sans" font-size="14.00">jonaspammer.motd</text>
</g>
<!-- jonaspammer.motd&#45;&gt;jonaspammer.bootstrap -->
<g id="edge12" class="edge">
<title>jonaspammer.motd&#45;&gt;jonaspammer.bootstrap</title>
<path fill="none" stroke="black" d="M956.23,-258.33C1051.21,-238.22 1221.03,-196.1 1255.62,-146 1264.71,-132.83 1266.46,-121.77 1255.62,-110 1221.82,-73.27 921.31,-61.99 745.03,-58.53"/>
<polygon fill="black" stroke="black" points="744.98,-55.03 734.91,-58.34 744.84,-62.03 744.98,-55.03"/>
</g>
<!-- jonaspammer.motd&#45;&gt;jonaspammer.shellcheck -->
<g id="edge13" class="edge">
<title>jonaspammer.motd&#45;&gt;jonaspammer.shellcheck</title>
<path fill="none" stroke="black" d="M824.47,-258.73C759.85,-246.92 661.96,-229.03 592.3,-216.29"/>
<polygon fill="black" stroke="black" points="592.7,-212.81 582.24,-214.45 591.44,-219.7 592.7,-212.81"/>
</g>
<!-- jonaspammer.apache2 -->
<g id="node9" class="node">
<title>jonaspammer.apache2</title>
<ellipse fill="yellow" stroke="black" cx="687.62" cy="-128" rx="113.18" ry="18"/>
<text text-anchor="middle" x="687.62" y="-124.3" font-family="Open Sans" font-size="14.00">jonaspammer.apache2</text>
</g>
<!-- jonaspammer.apache2&#45;&gt;jonaspammer.bootstrap -->
<g id="edge14" class="edge">
<title>jonaspammer.apache2&#45;&gt;jonaspammer.bootstrap</title>
<path fill="none" stroke="black" d="M670.68,-110.05C662.12,-101.5 651.58,-90.96 642.16,-81.54"/>
<polygon fill="black" stroke="black" points="644.44,-78.87 634.9,-74.28 639.49,-83.82 644.44,-78.87"/>
</g>
<!-- jonaspammer.openssl -->
<g id="node10" class="node">
<title>jonaspammer.openssl</title>
<ellipse fill="orange" stroke="black" cx="947.62" cy="-200" rx="109.38" ry="18"/>
<text text-anchor="middle" x="947.62" y="-196.3" font-family="Open Sans" font-size="14.00">jonaspammer.openssl</text>
</g>
<!-- jonaspammer.openssl&#45;&gt;jonaspammer.bootstrap -->
<g id="edge15" class="edge">
<title>jonaspammer.openssl&#45;&gt;jonaspammer.bootstrap</title>
<path fill="none" stroke="black" d="M838.29,-199.19C738.16,-196.76 600.41,-185.95 565.62,-146 548.32,-126.14 568.11,-99.69 588.05,-80.8"/>
<polygon fill="black" stroke="black" points="590.55,-83.26 595.62,-73.96 585.86,-78.06 590.55,-83.26"/>
</g>
<!-- jonaspammer.openssl&#45;&gt;jonaspammer.pip -->
<g id="edge16" class="edge">
<title>jonaspammer.openssl&#45;&gt;jonaspammer.pip</title>
<path fill="none" stroke="black" d="M993.71,-183.64C1026.12,-172.83 1069.62,-158.33 1103.66,-146.99"/>
<polygon fill="black" stroke="black" points="1105.06,-150.21 1113.44,-143.73 1102.85,-143.57 1105.06,-150.21"/>
</g>
<!-- jonaspammer.goaccess -->
<g id="node11" class="node">
<title>jonaspammer.goaccess</title>
<ellipse fill="yellow" stroke="black" cx="934.62" cy="-128" rx="116.18" ry="18"/>
<text text-anchor="middle" x="934.62" y="-124.3" font-family="Open Sans" font-size="14.00">jonaspammer.goaccess</text>
</g>
<!-- jonaspammer.goaccess&#45;&gt;jonaspammer.bootstrap -->
<g id="edge17" class="edge">
<title>jonaspammer.goaccess&#45;&gt;jonaspammer.bootstrap</title>
<path fill="none" stroke="black" d="M870.85,-112.92C819.11,-101.49 746.09,-85.37 691.75,-73.37"/>
<polygon fill="black" stroke="black" points="692.35,-69.92 681.83,-71.18 690.84,-76.75 692.35,-69.92"/>
</g>
<!-- jonaspammer.mediawiki -->
<g id="node12" class="node">
<title>jonaspammer.mediawiki</title>
<ellipse fill="green" stroke="black" cx="1127.62" cy="-272" rx="120.48" ry="18"/>
<text text-anchor="middle" x="1127.62" y="-268.3" font-family="Open Sans" font-size="14.00">jonaspammer.mediawiki</text>
</g>
</g>
</svg>
