<?xml version="1.0" encoding="UTF-8" standalone="no"?>
<!DOCTYPE svg PUBLIC "-//W3C//DTD SVG 1.1//EN"
 "http://www.w3.org/Graphics/SVG/1.1/DTD/svg11.dtd">
<!-- Generated by graphviz version 2.43.0 (0)
 -->
<!-- Title: hierarchy Pages: 1 -->
<svg width="521pt" height="226pt"
 viewBox="0.00 0.00 521.00 226.00" xmlns="http://www.w3.org/2000/svg" xmlns:xlink="http://www.w3.org/1999/xlink">
<g id="graph0" class="graph" transform="scale(1 1) rotate(0) translate(4 222)">
<title>hierarchy</title>
<polygon fill="white" stroke="transparent" points="-4,4 -4,-222 517,-222 517,4 -4,4"/>
<text text-anchor="middle" x="256.5" y="-22.8" font-family="Open Sans" font-size="14.00">requirements.yml dependency graph of jonaspammer.checkmk_server </text>
<text text-anchor="middle" x="256.5" y="-7.8" font-family="Open Sans" font-size="14.00"> Generated by JonasPammer/ansible&#45;roles</text>
<!-- jonaspammer.checkmk_server -->
<g id="node1" class="node">
<title>jonaspammer.checkmk_server</title>
<ellipse fill="orange" stroke="black" stroke-width="3" cx="202.5" cy="-200" rx="148.37" ry="18"/>
<text text-anchor="middle" x="202.5" y="-196.3" font-family="Open Sans" font-size="14.00">jonaspammer.checkmk_server</text>
</g>
<!-- jonaspammer.bootstrap -->
<g id="node2" class="node">
<title>jonaspammer.bootstrap</title>
<ellipse fill="green" stroke="black" cx="202.5" cy="-56" rx="118.08" ry="18"/>
<text text-anchor="middle" x="202.5" y="-52.3" font-family="Open Sans" font-size="14.00">jonaspammer.bootstrap</text>
</g>
<!-- jonaspammer.checkmk_server&#45;&gt;jonaspammer.bootstrap -->
<g id="edge1" class="edge">
<title>jonaspammer.checkmk_server&#45;&gt;jonaspammer.bootstrap</title>
<path fill="none" stroke="black" d="M165.41,-182.38C150.82,-173.77 135.64,-161.72 127.5,-146 120.14,-131.79 120.14,-124.21 127.5,-110 134.17,-97.13 145.56,-86.71 157.48,-78.63"/>
<polygon fill="black" stroke="black" points="159.59,-81.44 166.19,-73.16 155.86,-75.51 159.59,-81.44"/>
</g>
<!-- jonaspammer.core_dependencies -->
<g id="node3" class="node">
<title>jonaspammer.core_dependencies</title>
<ellipse fill="yellow" stroke="black" cx="297.5" cy="-128" rx="161.37" ry="18"/>
<text text-anchor="middle" x="297.5" y="-124.3" font-family="Open Sans" font-size="14.00">jonaspammer.core_dependencies</text>
</g>
<!-- jonaspammer.checkmk_server&#45;&gt;jonaspammer.core_dependencies -->
<g id="edge2" class="edge">
<title>jonaspammer.checkmk_server&#45;&gt;jonaspammer.core_dependencies</title>
<path fill="none" stroke="black" d="M225.5,-182.05C237.66,-173.09 252.77,-161.96 266.01,-152.2"/>
<polygon fill="black" stroke="black" points="268.41,-154.78 274.39,-146.03 264.26,-149.15 268.41,-154.78"/>
</g>
<!-- jonaspammer.core_dependencies&#45;&gt;jonaspammer.bootstrap -->
<g id="edge3" class="edge">
<title>jonaspammer.core_dependencies&#45;&gt;jonaspammer.bootstrap</title>
<path fill="none" stroke="black" d="M274.5,-110.05C262.25,-101.03 247,-89.79 233.7,-79.99"/>
<polygon fill="black" stroke="black" points="235.41,-76.9 225.29,-73.79 231.26,-82.54 235.41,-76.9"/>
</g>
</g>
</svg>
