<?xml version="1.0" encoding="UTF-8" standalone="no"?>
<!DOCTYPE svg PUBLIC "-//W3C//DTD SVG 1.1//EN"
 "http://www.w3.org/Graphics/SVG/1.1/DTD/svg11.dtd">
<!-- Generated by graphviz version 2.43.0 (0)
 -->
<!-- Title: hierarchy Pages: 1 -->
<svg width="2136pt" height="298pt"
 viewBox="0.00 0.00 2135.91 298.00" xmlns="http://www.w3.org/2000/svg" xmlns:xlink="http://www.w3.org/1999/xlink">
<g id="graph0" class="graph" transform="scale(1 1) rotate(0) translate(4 294)">
<title>hierarchy</title>
<polygon fill="white" stroke="transparent" points="-4,4 -4,-294 2131.91,-294 2131.91,4 -4,4"/>
<text text-anchor="middle" x="1063.96" y="-22.8" font-family="Open Sans" font-size="14.00">requirements.yml dependency graph of jonaspammer.mediawiki </text>
<text text-anchor="middle" x="1063.96" y="-7.8" font-family="Open Sans" font-size="14.00"> Generated by JonasPammer/ansible&#45;roles</text>
<!-- jonaspammer.mediawiki -->
<g id="node1" class="node">
<title>jonaspammer.mediawiki</title>
<ellipse fill="mediumvioletred" stroke="black" stroke-width="3" cx="762.42" cy="-272" rx="120.48" ry="18"/>
<text text-anchor="middle" x="762.42" y="-268.3" font-family="Open Sans" font-size="14.00">jonaspammer.mediawiki</text>
</g>
<!-- jonaspammer.bootstrap -->
<g id="node2" class="node">
<title>jonaspammer.bootstrap</title>
<ellipse fill="darkgreen" stroke="black" cx="366.42" cy="-56" rx="118.08" ry="18"/>
<text text-anchor="middle" x="366.42" y="-52.3" font-family="Open Sans" font-size="14.00">jonaspammer.bootstrap</text>
</g>
<!-- jonaspammer.mediawiki&#45;&gt;jonaspammer.bootstrap -->
<g id="edge1" class="edge">
<title>jonaspammer.mediawiki&#45;&gt;jonaspammer.bootstrap</title>
<path fill="none" stroke="black" d="M642.08,-270.89C447.43,-267.69 78.09,-247.97 7.42,-146 -1.69,-132.85 -3.03,-122.11 7.42,-110 37.23,-75.47 148.2,-63.04 238.97,-58.77"/>
<polygon fill="black" stroke="black" points="239.25,-62.26 249.09,-58.32 238.94,-55.26 239.25,-62.26"/>
</g>
<!-- jonaspammer.core_dependencies -->
<g id="node3" class="node">
<title>jonaspammer.core_dependencies</title>
<ellipse fill="forestgreen" stroke="black" cx="177.42" cy="-128" rx="161.37" ry="18"/>
<text text-anchor="middle" x="177.42" y="-124.3" font-family="Open Sans" font-size="14.00">jonaspammer.core_dependencies</text>
</g>
<!-- jonaspammer.mediawiki&#45;&gt;jonaspammer.core_dependencies -->
<g id="edge2" class="edge">
<title>jonaspammer.mediawiki&#45;&gt;jonaspammer.core_dependencies</title>
<path fill="none" stroke="black" d="M642.36,-270.4C509.2,-267.75 304.43,-257.15 238.42,-218 214.5,-203.81 197.81,-176.14 188,-155.4"/>
<polygon fill="black" stroke="black" points="191.14,-153.85 183.86,-146.15 184.75,-156.71 191.14,-153.85"/>
</g>
<!-- jonaspammer.openssl -->
<g id="node4" class="node">
<title>jonaspammer.openssl</title>
<ellipse fill="limegreen" stroke="black" cx="356.42" cy="-200" rx="109.38" ry="18"/>
<text text-anchor="middle" x="356.42" y="-196.3" font-family="Open Sans" font-size="14.00">jonaspammer.openssl</text>
</g>
<!-- jonaspammer.mediawiki&#45;&gt;jonaspammer.openssl -->
<g id="edge3" class="edge">
<title>jonaspammer.mediawiki&#45;&gt;jonaspammer.openssl</title>
<path fill="none" stroke="black" d="M686.53,-257.92C616.06,-245.76 511.38,-227.72 438.88,-215.22"/>
<polygon fill="black" stroke="black" points="439.32,-211.74 428.87,-213.49 438.13,-218.64 439.32,-211.74"/>
</g>
<!-- jonaspammer.pip -->
<g id="node5" class="node">
<title>jonaspammer.pip</title>
<ellipse fill="forestgreen" stroke="black" cx="483.42" cy="-128" rx="89.08" ry="18"/>
<text text-anchor="middle" x="483.42" y="-124.3" font-family="Open Sans" font-size="14.00">jonaspammer.pip</text>
</g>
<!-- jonaspammer.mediawiki&#45;&gt;jonaspammer.pip -->
<g id="edge4" class="edge">
<title>jonaspammer.mediawiki&#45;&gt;jonaspammer.pip</title>
<path fill="none" stroke="black" d="M657.22,-263.26C617.09,-256.12 572.78,-242.78 538.42,-218 516.9,-202.48 502.03,-175.69 493.23,-155.54"/>
<polygon fill="black" stroke="black" points="496.45,-154.17 489.39,-146.27 489.98,-156.85 496.45,-154.17"/>
</g>
<!-- jonaspammer.apache2 -->
<g id="node6" class="node">
<title>jonaspammer.apache2</title>
<ellipse fill="forestgreen" stroke="black" cx="703.42" cy="-128" rx="113.18" ry="18"/>
<text text-anchor="middle" x="703.42" y="-124.3" font-family="Open Sans" font-size="14.00">jonaspammer.apache2</text>
</g>
<!-- jonaspammer.mediawiki&#45;&gt;jonaspammer.apache2 -->
<g id="edge5" class="edge">
<title>jonaspammer.mediawiki&#45;&gt;jonaspammer.apache2</title>
<path fill="none" stroke="black" d="M673.38,-259.82C622.56,-251.41 565.95,-237.89 550.42,-218 523.11,-183.01 575.32,-159.18 626.02,-145.04"/>
<polygon fill="black" stroke="black" points="627.02,-148.4 635.78,-142.43 625.21,-141.63 627.02,-148.4"/>
</g>
<!-- robertdebock.epel -->
<g id="node7" class="node">
<title>robertdebock.epel</title>
<ellipse fill="darkgreen" stroke="black" cx="652.42" cy="-200" rx="92.88" ry="18"/>
<text text-anchor="middle" x="652.42" y="-196.3" font-family="Open Sans" font-size="14.00">robertdebock.epel</text>
</g>
<!-- jonaspammer.mediawiki&#45;&gt;robertdebock.epel -->
<g id="edge6" class="edge">
<title>jonaspammer.mediawiki&#45;&gt;robertdebock.epel</title>
<path fill="none" stroke="black" d="M736.35,-254.41C721.56,-245 702.86,-233.1 686.87,-222.92"/>
<polygon fill="black" stroke="black" points="688.62,-219.89 678.3,-217.47 684.86,-225.79 688.62,-219.89"/>
</g>
<!-- geerlingguy.repo&#45;remi -->
<g id="node8" class="node">
<title>geerlingguy.repo&#45;remi</title>
<ellipse fill="darkgreen" stroke="black" cx="873.42" cy="-200" rx="110.48" ry="18"/>
<text text-anchor="middle" x="873.42" y="-196.3" font-family="Open Sans" font-size="14.00">geerlingguy.repo&#45;remi</text>
</g>
<!-- jonaspammer.mediawiki&#45;&gt;geerlingguy.repo&#45;remi -->
<g id="edge7" class="edge">
<title>jonaspammer.mediawiki&#45;&gt;geerlingguy.repo&#45;remi</title>
<path fill="none" stroke="black" d="M788.73,-254.41C803.55,-245.06 822.25,-233.27 838.31,-223.14"/>
<polygon fill="black" stroke="black" points="840.33,-226.01 846.92,-217.71 836.6,-220.09 840.33,-226.01"/>
</g>
<!-- geerlingguy.php -->
<g id="node9" class="node">
<title>geerlingguy.php</title>
<ellipse fill="darkgreen" stroke="black" cx="1085.42" cy="-200" rx="83.69" ry="18"/>
<text text-anchor="middle" x="1085.42" y="-196.3" font-family="Open Sans" font-size="14.00">geerlingguy.php</text>
</g>
<!-- jonaspammer.mediawiki&#45;&gt;geerlingguy.php -->
<g id="edge8" class="edge">
<title>jonaspammer.mediawiki&#45;&gt;geerlingguy.php</title>
<path fill="none" stroke="black" d="M827.79,-256.83C883.35,-244.79 962.77,-227.58 1018.71,-215.46"/>
<polygon fill="black" stroke="black" points="1019.49,-218.87 1028.53,-213.33 1018.01,-212.03 1019.49,-218.87"/>
</g>
<!-- geerlingguy.php&#45;versions -->
<g id="node10" class="node">
<title>geerlingguy.php&#45;versions</title>
<ellipse fill="darkgreen" stroke="black" cx="1312.42" cy="-200" rx="124.58" ry="18"/>
<text text-anchor="middle" x="1312.42" y="-196.3" font-family="Open Sans" font-size="14.00">geerlingguy.php&#45;versions</text>
</g>
<!-- jonaspammer.mediawiki&#45;&gt;geerlingguy.php&#45;versions -->
<g id="edge9" class="edge">
<title>jonaspammer.mediawiki&#45;&gt;geerlingguy.php&#45;versions</title>
<path fill="none" stroke="black" d="M850.79,-259.75C949.38,-247.21 1108.58,-226.94 1211.86,-213.8"/>
<polygon fill="black" stroke="black" points="1212.51,-217.24 1221.99,-212.51 1211.63,-210.3 1212.51,-217.24"/>
</g>
<!-- geerlingguy.php&#45;mysql -->
<g id="node11" class="node">
<title>geerlingguy.php&#45;mysql</title>
<ellipse fill="darkgreen" stroke="black" cx="1569.42" cy="-200" rx="114.28" ry="18"/>
<text text-anchor="middle" x="1569.42" y="-196.3" font-family="Open Sans" font-size="14.00">geerlingguy.php&#45;mysql</text>
</g>
<!-- jonaspammer.mediawiki&#45;&gt;geerlingguy.php&#45;mysql -->
<g id="edge10" class="edge">
<title>jonaspammer.mediawiki&#45;&gt;geerlingguy.php&#45;mysql</title>
<path fill="none" stroke="black" d="M871.89,-264.55C1007.11,-256.11 1244.07,-239.8 1446.42,-218 1456.92,-216.87 1467.91,-215.55 1478.82,-214.15"/>
<polygon fill="black" stroke="black" points="1479.33,-217.61 1488.79,-212.85 1478.42,-210.67 1479.33,-217.61"/>
</g>
<!-- geerlingguy.mysql -->
<g id="node12" class="node">
<title>geerlingguy.mysql</title>
<ellipse fill="darkgreen" stroke="black" cx="1795.42" cy="-200" rx="93.68" ry="18"/>
<text text-anchor="middle" x="1795.42" y="-196.3" font-family="Open Sans" font-size="14.00">geerlingguy.mysql</text>
</g>
<!-- jonaspammer.mediawiki&#45;&gt;geerlingguy.mysql -->
<g id="edge11" class="edge">
<title>jonaspammer.mediawiki&#45;&gt;geerlingguy.mysql</title>
<path fill="none" stroke="black" d="M880.2,-268.31C1057.05,-263.37 1401.49,-250.21 1692.42,-218 1701.35,-217.01 1710.68,-215.77 1719.93,-214.41"/>
<polygon fill="black" stroke="black" points="1720.55,-217.85 1729.91,-212.89 1719.49,-210.93 1720.55,-217.85"/>
</g>
<!-- geerlingguy.composer -->
<g id="node13" class="node">
<title>geerlingguy.composer</title>
<ellipse fill="darkgreen" stroke="black" cx="2017.42" cy="-200" rx="110.48" ry="18"/>
<text text-anchor="middle" x="2017.42" y="-196.3" font-family="Open Sans" font-size="14.00">geerlingguy.composer</text>
</g>
<!-- jonaspammer.mediawiki&#45;&gt;geerlingguy.composer -->
<g id="edge12" class="edge">
<title>jonaspammer.mediawiki&#45;&gt;geerlingguy.composer</title>
<path fill="none" stroke="black" d="M881.25,-269.18C1088.29,-265.18 1528.4,-252.98 1898.42,-218 1908.92,-217.01 1919.91,-215.74 1930.79,-214.36"/>
<polygon fill="black" stroke="black" points="1931.27,-217.82 1940.73,-213.05 1930.36,-210.88 1931.27,-217.82"/>
</g>
<!-- jonaspammer.core_dependencies&#45;&gt;jonaspammer.bootstrap -->
<g id="edge13" class="edge">
<title>jonaspammer.core_dependencies&#45;&gt;jonaspammer.bootstrap</title>
<path fill="none" stroke="black" d="M221.73,-110.59C249.38,-100.35 285.09,-87.12 314.12,-76.37"/>
<polygon fill="black" stroke="black" points="315.53,-79.58 323.69,-72.83 313.09,-73.02 315.53,-79.58"/>
</g>
<!-- jonaspammer.openssl&#45;&gt;jonaspammer.bootstrap -->
<g id="edge14" class="edge">
<title>jonaspammer.openssl&#45;&gt;jonaspammer.bootstrap</title>
<path fill="none" stroke="black" d="M357.63,-181.87C359.33,-157.67 362.46,-113.21 364.49,-84.39"/>
<polygon fill="black" stroke="black" points="368,-84.41 365.21,-74.19 361.02,-83.92 368,-84.41"/>
</g>
<!-- jonaspammer.openssl&#45;&gt;jonaspammer.pip -->
<g id="edge15" class="edge">
<title>jonaspammer.openssl&#45;&gt;jonaspammer.pip</title>
<path fill="none" stroke="black" d="M386.2,-182.59C403.84,-172.86 426.37,-160.44 445.3,-150.01"/>
<polygon fill="black" stroke="black" points="447.2,-152.96 454.27,-145.07 443.82,-146.83 447.2,-152.96"/>
</g>
<!-- jonaspammer.pip&#45;&gt;jonaspammer.bootstrap -->
<g id="edge16" class="edge">
<title>jonaspammer.pip&#45;&gt;jonaspammer.bootstrap</title>
<path fill="none" stroke="black" d="M456.29,-110.76C440.42,-101.27 420.18,-89.17 402.93,-78.84"/>
<polygon fill="black" stroke="black" points="404.6,-75.76 394.22,-73.63 401.01,-81.77 404.6,-75.76"/>
</g>
<!-- jonaspammer.apache2&#45;&gt;jonaspammer.bootstrap -->
<g id="edge17" class="edge">
<title>jonaspammer.apache2&#45;&gt;jonaspammer.bootstrap</title>
<path fill="none" stroke="black" d="M637.65,-113.34C581.87,-101.75 501.83,-85.13 443.15,-72.94"/>
<polygon fill="black" stroke="black" points="443.69,-69.47 433.18,-70.87 442.26,-76.33 443.69,-69.47"/>
</g>
</g>
</svg>
