<?xml version="1.0" encoding="UTF-8" standalone="no"?>
<!DOCTYPE svg PUBLIC "-//W3C//DTD SVG 1.1//EN"
 "http://www.w3.org/Graphics/SVG/1.1/DTD/svg11.dtd">
<!-- Generated by graphviz version 2.43.0 (0)
 -->
<!-- Title: hierarchy Pages: 1 -->
<svg width="466pt" height="226pt"
 viewBox="0.00 0.00 466.00 226.00" xmlns="http://www.w3.org/2000/svg" xmlns:xlink="http://www.w3.org/1999/xlink">
<g id="graph0" class="graph" transform="scale(1 1) rotate(0) translate(4 222)">
<title>hierarchy</title>
<polygon fill="white" stroke="transparent" points="-4,4 -4,-222 462,-222 462,4 -4,4"/>
<text text-anchor="middle" x="229" y="-22.8" font-family="Open Sans" font-size="14.00">requirements.yml dependency graph of jonaspammer.openssh </text>
<text text-anchor="middle" x="229" y="-7.8" font-family="Open Sans" font-size="14.00"> Generated by JonasPammer/ansible&#45;roles</text>
<!-- jonaspammer.openssh -->
<g id="node1" class="node">
<title>jonaspammer.openssh</title>
<ellipse fill="orange" stroke="black" stroke-width="3" cx="160.05" cy="-200" rx="112.38" ry="18"/>
<text text-anchor="middle" x="160.05" y="-196.3" font-family="Open Sans" font-size="14.00">jonaspammer.openssh</text>
</g>
<!-- jonaspammer.bootstrap -->
<g id="node2" class="node">
<title>jonaspammer.bootstrap</title>
<ellipse fill="green" stroke="black" cx="160.05" cy="-56" rx="118.08" ry="18"/>
<text text-anchor="middle" x="160.05" y="-52.3" font-family="Open Sans" font-size="14.00">jonaspammer.bootstrap</text>
</g>
<!-- jonaspammer.openssh&#45;&gt;jonaspammer.bootstrap -->
<g id="edge1" class="edge">
<title>jonaspammer.openssh&#45;&gt;jonaspammer.bootstrap</title>
<path fill="none" stroke="black" d="M123.75,-182.84C108.92,-174.2 93.34,-162 85.05,-146 77.69,-131.79 77.69,-124.21 85.05,-110 91.72,-97.13 103.11,-86.71 115.03,-78.63"/>
<polygon fill="black" stroke="black" points="117.14,-81.44 123.75,-73.16 113.42,-75.51 117.14,-81.44"/>
</g>
<!-- jonaspammer.core_dependencies -->
<g id="node3" class="node">
<title>jonaspammer.core_dependencies</title>
<ellipse fill="yellow" stroke="black" cx="255.05" cy="-128" rx="161.37" ry="18"/>
<text text-anchor="middle" x="255.05" y="-124.3" font-family="Open Sans" font-size="14.00">jonaspammer.core_dependencies</text>
</g>
<!-- jonaspammer.openssh&#45;&gt;jonaspammer.core_dependencies -->
<g id="edge2" class="edge">
<title>jonaspammer.openssh&#45;&gt;jonaspammer.core_dependencies</title>
<path fill="none" stroke="black" d="M183.05,-182.05C195.21,-173.09 210.33,-161.96 223.56,-152.2"/>
<polygon fill="black" stroke="black" points="225.96,-154.78 231.94,-146.03 221.81,-149.15 225.96,-154.78"/>
</g>
<!-- jonaspammer.core_dependencies&#45;&gt;jonaspammer.bootstrap -->
<g id="edge3" class="edge">
<title>jonaspammer.core_dependencies&#45;&gt;jonaspammer.bootstrap</title>
<path fill="none" stroke="black" d="M232.06,-110.05C219.8,-101.03 204.55,-89.79 191.25,-79.99"/>
<polygon fill="black" stroke="black" points="192.96,-76.9 182.84,-73.79 188.81,-82.54 192.96,-76.9"/>
</g>
</g>
</svg>
