<?xml version="1.0" encoding="UTF-8" standalone="no"?>
<!DOCTYPE svg PUBLIC "-//W3C//DTD SVG 1.1//EN"
 "http://www.w3.org/Graphics/SVG/1.1/DTD/svg11.dtd">
<!-- Generated by graphviz version 2.43.0 (0)
 -->
<!-- Title: hierarchy Pages: 1 -->
<svg width="430pt" height="241pt"
 viewBox="0.00 0.00 430.00 241.00" xmlns="http://www.w3.org/2000/svg" xmlns:xlink="http://www.w3.org/1999/xlink">
<g id="graph0" class="graph" transform="scale(1 1) rotate(0) translate(4 237)">
<title>hierarchy</title>
<polygon fill="white" stroke="transparent" points="-4,4 -4,-237 426,-237 426,4 -4,4"/>
<text text-anchor="middle" x="211" y="-37.8" font-family="Open Sans" font-size="14.00">requriements.yml dependency graph of jonaspammer.pip </text>
<text text-anchor="middle" x="211" y="-22.8" font-family="Open Sans" font-size="14.00"> (roles used to prepare the system in CI) </text>
<text text-anchor="middle" x="211" y="-7.8" font-family="Open Sans" font-size="14.00"> Generated by JonasPammer/ansible&#45;roles</text>
<!-- jonaspammer.pip -->
<g id="node1" class="node">
<title>jonaspammer.pip</title>
<ellipse fill="orange" stroke="black" stroke-width="3" cx="142.05" cy="-215" rx="89.08" ry="18"/>
<text text-anchor="middle" x="142.05" y="-211.3" font-family="Open Sans" font-size="14.00">jonaspammer.pip</text>
</g>
<!-- jonaspammer.bootstrap -->
<g id="node2" class="node">
<title>jonaspammer.bootstrap</title>
<ellipse fill="green" stroke="black" cx="142.05" cy="-71" rx="118.08" ry="18"/>
<text text-anchor="middle" x="142.05" y="-67.3" font-family="Open Sans" font-size="14.00">jonaspammer.bootstrap</text>
</g>
<!-- jonaspammer.pip&#45;&gt;jonaspammer.bootstrap -->
<g id="edge1" class="edge">
<title>jonaspammer.pip&#45;&gt;jonaspammer.bootstrap</title>
<path fill="none" stroke="black" d="M106.53,-198.29C91.47,-189.63 75.48,-177.28 67.05,-161 59.69,-146.79 59.69,-139.21 67.05,-125 73.72,-112.13 85.11,-101.71 97.03,-93.63"/>
<polygon fill="black" stroke="black" points="99.14,-96.44 105.75,-88.16 95.42,-90.51 99.14,-96.44"/>
</g>
<!-- jonaspammer.core_dependencies -->
<g id="node3" class="node">
<title>jonaspammer.core_dependencies</title>
<ellipse fill="yellow" stroke="black" cx="237.05" cy="-143" rx="161.37" ry="18"/>
<text text-anchor="middle" x="237.05" y="-139.3" font-family="Open Sans" font-size="14.00">jonaspammer.core_dependencies</text>
</g>
<!-- jonaspammer.pip&#45;&gt;jonaspammer.core_dependencies -->
<g id="edge2" class="edge">
<title>jonaspammer.pip&#45;&gt;jonaspammer.core_dependencies</title>
<path fill="none" stroke="black" d="M164.57,-197.41C176.92,-188.3 192.44,-176.87 205.94,-166.92"/>
<polygon fill="black" stroke="black" points="208.07,-169.71 214.04,-160.96 203.91,-164.07 208.07,-169.71"/>
</g>
<!-- jonaspammer.core_dependencies&#45;&gt;jonaspammer.bootstrap -->
<g id="edge3" class="edge">
<title>jonaspammer.core_dependencies&#45;&gt;jonaspammer.bootstrap</title>
<path fill="none" stroke="black" d="M214.06,-125.05C201.8,-116.03 186.55,-104.79 173.25,-94.99"/>
<polygon fill="black" stroke="black" points="174.96,-91.9 164.84,-88.79 170.81,-97.54 174.96,-91.9"/>
</g>
</g>
</svg>
