<?xml version="1.0" encoding="UTF-8" standalone="no"?>
<!DOCTYPE svg PUBLIC "-//W3C//DTD SVG 1.1//EN"
 "http://www.w3.org/Graphics/SVG/1.1/DTD/svg11.dtd">
<!-- Generated by graphviz version 2.43.0 (0)
 -->
<!-- Title: hierarchy Pages: 1 -->
<svg width="755pt" height="226pt"
 viewBox="0.00 0.00 754.58 226.00" xmlns="http://www.w3.org/2000/svg" xmlns:xlink="http://www.w3.org/1999/xlink">
<g id="graph0" class="graph" transform="scale(1 1) rotate(0) translate(4 222)">
<title>hierarchy</title>
<polygon fill="white" stroke="transparent" points="-4,4 -4,-222 750.58,-222 750.58,4 -4,4"/>
<text text-anchor="middle" x="373.29" y="-22.8" font-family="Open Sans" font-size="14.00">requirements.yml dependency graph of all roles </text>
<text text-anchor="middle" x="373.29" y="-7.8" font-family="Open Sans" font-size="14.00"> Generated by JonasPammer/ansible&#45;roles</text>
<!-- jonaspammer.bootstrap -->
<g id="node1" class="node">
<title>jonaspammer.bootstrap</title>
<ellipse fill="green" stroke="black" cx="193.14" cy="-56" rx="118.08" ry="18"/>
<text text-anchor="middle" x="193.14" y="-52.3" font-family="Open Sans" font-size="14.00">jonaspammer.bootstrap</text>
</g>
<!-- jonaspammer.core_dependencies -->
<g id="node2" class="node">
<title>jonaspammer.core_dependencies</title>
<ellipse fill="yellow" stroke="black" cx="461.14" cy="-128" rx="161.37" ry="18"/>
<text text-anchor="middle" x="461.14" y="-124.3" font-family="Open Sans" font-size="14.00">jonaspammer.core_dependencies</text>
</g>
<!-- jonaspammer.core_dependencies&#45;&gt;jonaspammer.bootstrap -->
<g id="edge1" class="edge">
<title>jonaspammer.core_dependencies&#45;&gt;jonaspammer.bootstrap</title>
<path fill="none" stroke="black" d="M401,-111.29C359.05,-100.33 303.05,-85.71 259.75,-74.4"/>
<polygon fill="black" stroke="black" points="260.44,-70.96 249.88,-71.82 258.67,-77.73 260.44,-70.96"/>
</g>
<!-- jonaspammer.motd -->
<g id="node3" class="node">
<title>jonaspammer.motd</title>
<ellipse fill="orange" stroke="black" cx="98.14" cy="-200" rx="98.28" ry="18"/>
<text text-anchor="middle" x="98.14" y="-196.3" font-family="Open Sans" font-size="14.00">jonaspammer.motd</text>
</g>
<!-- jonaspammer.motd&#45;&gt;jonaspammer.bootstrap -->
<g id="edge2" class="edge">
<title>jonaspammer.motd&#45;&gt;jonaspammer.bootstrap</title>
<path fill="none" stroke="black" d="M81.9,-181.9C66.17,-163.18 46.77,-132.8 62.14,-110 73.46,-93.21 91.11,-81.73 109.81,-73.89"/>
<polygon fill="black" stroke="black" points="111.28,-77.08 119.36,-70.22 108.77,-70.54 111.28,-77.08"/>
</g>
<!-- jonaspammer.motd&#45;&gt;jonaspammer.core_dependencies -->
<g id="edge3" class="edge">
<title>jonaspammer.motd&#45;&gt;jonaspammer.core_dependencies</title>
<path fill="none" stroke="black" d="M163.04,-186.49C221.88,-175.14 309.09,-158.32 374,-145.8"/>
<polygon fill="black" stroke="black" points="375.06,-149.16 384.21,-143.83 373.73,-142.29 375.06,-149.16"/>
</g>
<!-- jonaspammer.pip -->
<g id="node4" class="node">
<title>jonaspammer.pip</title>
<ellipse fill="yellow" stroke="black" cx="193.14" cy="-128" rx="89.08" ry="18"/>
<text text-anchor="middle" x="193.14" y="-124.3" font-family="Open Sans" font-size="14.00">jonaspammer.pip</text>
</g>
<!-- jonaspammer.pip&#45;&gt;jonaspammer.bootstrap -->
<g id="edge4" class="edge">
<title>jonaspammer.pip&#45;&gt;jonaspammer.bootstrap</title>
<path fill="none" stroke="black" d="M193.14,-109.7C193.14,-101.98 193.14,-92.71 193.14,-84.11"/>
<polygon fill="black" stroke="black" points="196.64,-84.1 193.14,-74.1 189.64,-84.1 196.64,-84.1"/>
</g>
<!-- jonaspammer.shellcheck -->
<g id="node5" class="node">
<title>jonaspammer.shellcheck</title>
<ellipse fill="orange" stroke="black" cx="366.14" cy="-200" rx="122.38" ry="18"/>
<text text-anchor="middle" x="366.14" y="-196.3" font-family="Open Sans" font-size="14.00">jonaspammer.shellcheck</text>
</g>
<!-- jonaspammer.shellcheck&#45;&gt;jonaspammer.bootstrap -->
<g id="edge5" class="edge">
<title>jonaspammer.shellcheck&#45;&gt;jonaspammer.bootstrap</title>
<path fill="none" stroke="black" d="M278.39,-187.46C203.81,-176.75 106.95,-160.34 95.14,-146 84.97,-133.65 86.95,-123.74 95.14,-110 103.75,-95.55 117.82,-84.81 132.64,-76.91"/>
<polygon fill="black" stroke="black" points="134.49,-79.9 141.93,-72.36 131.41,-73.62 134.49,-79.9"/>
</g>
<!-- jonaspammer.shellcheck&#45;&gt;jonaspammer.core_dependencies -->
<g id="edge6" class="edge">
<title>jonaspammer.shellcheck&#45;&gt;jonaspammer.core_dependencies</title>
<path fill="none" stroke="black" d="M389.14,-182.05C401.3,-173.09 416.41,-161.96 429.65,-152.2"/>
<polygon fill="black" stroke="black" points="432.05,-154.78 438.03,-146.03 427.9,-149.15 432.05,-154.78"/>
</g>
<!-- jonaspammer.openssh -->
<g id="node6" class="node">
<title>jonaspammer.openssh</title>
<ellipse fill="orange" stroke="black" cx="634.14" cy="-200" rx="112.38" ry="18"/>
<text text-anchor="middle" x="634.14" y="-196.3" font-family="Open Sans" font-size="14.00">jonaspammer.openssh</text>
</g>
<!-- jonaspammer.openssh&#45;&gt;jonaspammer.bootstrap -->
<g id="edge7" class="edge">
<title>jonaspammer.openssh&#45;&gt;jonaspammer.bootstrap</title>
<path fill="none" stroke="black" d="M639.46,-181.82C644.45,-161.88 648.8,-129.26 631.14,-110 609.84,-86.76 434.81,-71.5 312.58,-63.56"/>
<polygon fill="black" stroke="black" points="312.6,-60.05 302.4,-62.9 312.15,-67.04 312.6,-60.05"/>
</g>
<!-- jonaspammer.openssh&#45;&gt;jonaspammer.core_dependencies -->
<g id="edge8" class="edge">
<title>jonaspammer.openssh&#45;&gt;jonaspammer.core_dependencies</title>
<path fill="none" stroke="black" d="M594.88,-183.12C570.11,-173.09 537.88,-160.05 511.27,-149.28"/>
<polygon fill="black" stroke="black" points="512.33,-145.94 501.74,-145.43 509.7,-152.42 512.33,-145.94"/>
</g>
</g>
</svg>
