<?xml version="1.0" encoding="UTF-8" standalone="no"?>
<!DOCTYPE svg PUBLIC "-//W3C//DTD SVG 1.1//EN"
 "http://www.w3.org/Graphics/SVG/1.1/DTD/svg11.dtd">
<!-- Generated by graphviz version 2.43.0 (0)
 -->
<!-- Title: hierarchy Pages: 1 -->
<svg width="906pt" height="226pt"
 viewBox="0.00 0.00 905.58 226.00" xmlns="http://www.w3.org/2000/svg" xmlns:xlink="http://www.w3.org/1999/xlink">
<g id="graph0" class="graph" transform="scale(1 1) rotate(0) translate(4 222)">
<title>hierarchy</title>
<polygon fill="white" stroke="transparent" points="-4,4 -4,-222 901.58,-222 901.58,4 -4,4"/>
<text text-anchor="middle" x="448.79" y="-22.8" font-family="Open Sans" font-size="14.00">requirements.yml dependency graph of all roles </text>
<text text-anchor="middle" x="448.79" y="-7.8" font-family="Open Sans" font-size="14.00"> Generated by JonasPammer/ansible&#45;roles</text>
<!-- jonaspammer.bootstrap -->
<g id="node1" class="node">
<title>jonaspammer.bootstrap</title>
<ellipse fill="green" stroke="black" cx="397.14" cy="-56" rx="118.08" ry="18"/>
<text text-anchor="middle" x="397.14" y="-52.3" font-family="Open Sans" font-size="14.00">jonaspammer.bootstrap</text>
</g>
<!-- jonaspammer.core_dependencies -->
<g id="node2" class="node">
<title>jonaspammer.core_dependencies</title>
<ellipse fill="yellow" stroke="black" cx="397.14" cy="-128" rx="161.37" ry="18"/>
<text text-anchor="middle" x="397.14" y="-124.3" font-family="Open Sans" font-size="14.00">jonaspammer.core_dependencies</text>
</g>
<!-- jonaspammer.core_dependencies&#45;&gt;jonaspammer.bootstrap -->
<g id="edge1" class="edge">
<title>jonaspammer.core_dependencies&#45;&gt;jonaspammer.bootstrap</title>
<path fill="none" stroke="black" d="M397.14,-109.7C397.14,-101.98 397.14,-92.71 397.14,-84.11"/>
<polygon fill="black" stroke="black" points="400.64,-84.1 397.14,-74.1 393.64,-84.1 400.64,-84.1"/>
</g>
<!-- jonaspammer.motd -->
<g id="node3" class="node">
<title>jonaspammer.motd</title>
<ellipse fill="orange" stroke="black" cx="98.14" cy="-200" rx="98.28" ry="18"/>
<text text-anchor="middle" x="98.14" y="-196.3" font-family="Open Sans" font-size="14.00">jonaspammer.motd</text>
</g>
<!-- jonaspammer.motd&#45;&gt;jonaspammer.bootstrap -->
<g id="edge2" class="edge">
<title>jonaspammer.motd&#45;&gt;jonaspammer.bootstrap</title>
<path fill="none" stroke="black" d="M116.13,-182.26C138.32,-162.44 177.93,-129.64 217.14,-110 249.21,-93.94 287,-81.89 319.64,-73.37"/>
<polygon fill="black" stroke="black" points="320.77,-76.7 329.6,-70.84 319.05,-69.91 320.77,-76.7"/>
</g>
<!-- jonaspammer.motd&#45;&gt;jonaspammer.core_dependencies -->
<g id="edge3" class="edge">
<title>jonaspammer.motd&#45;&gt;jonaspammer.core_dependencies</title>
<path fill="none" stroke="black" d="M156.15,-185.42C203.19,-174.41 269.88,-158.79 321.19,-146.78"/>
<polygon fill="black" stroke="black" points="322.29,-150.12 331.23,-144.43 320.7,-143.3 322.29,-150.12"/>
</g>
<!-- jonaspammer.pip -->
<g id="node4" class="node">
<title>jonaspammer.pip</title>
<ellipse fill="orange" stroke="black" cx="303.14" cy="-200" rx="89.08" ry="18"/>
<text text-anchor="middle" x="303.14" y="-196.3" font-family="Open Sans" font-size="14.00">jonaspammer.pip</text>
</g>
<!-- jonaspammer.pip&#45;&gt;jonaspammer.bootstrap -->
<g id="edge4" class="edge">
<title>jonaspammer.pip&#45;&gt;jonaspammer.bootstrap</title>
<path fill="none" stroke="black" d="M267.16,-183.4C251.9,-174.76 235.7,-162.4 227.14,-146 219.74,-131.81 217.66,-122.89 227.14,-110 242.1,-89.67 264.82,-76.91 288.81,-68.97"/>
<polygon fill="black" stroke="black" points="289.87,-72.31 298.42,-66.05 287.84,-65.61 289.87,-72.31"/>
</g>
<!-- jonaspammer.pip&#45;&gt;jonaspammer.core_dependencies -->
<g id="edge5" class="edge">
<title>jonaspammer.pip&#45;&gt;jonaspammer.core_dependencies</title>
<path fill="none" stroke="black" d="M325.42,-182.41C337.53,-173.39 352.71,-162.09 365.98,-152.21"/>
<polygon fill="black" stroke="black" points="368.44,-154.74 374.37,-145.96 364.26,-149.12 368.44,-154.74"/>
</g>
<!-- jonaspammer.shellcheck -->
<g id="node5" class="node">
<title>jonaspammer.shellcheck</title>
<ellipse fill="orange" stroke="black" cx="532.14" cy="-200" rx="122.38" ry="18"/>
<text text-anchor="middle" x="532.14" y="-196.3" font-family="Open Sans" font-size="14.00">jonaspammer.shellcheck</text>
</g>
<!-- jonaspammer.shellcheck&#45;&gt;jonaspammer.bootstrap -->
<g id="edge6" class="edge">
<title>jonaspammer.shellcheck&#45;&gt;jonaspammer.bootstrap</title>
<path fill="none" stroke="black" d="M548.13,-181.97C563.91,-163.03 583.47,-132.2 567.14,-110 552.18,-89.67 529.47,-76.91 505.47,-68.97"/>
<polygon fill="black" stroke="black" points="506.44,-65.61 495.86,-66.05 504.41,-72.31 506.44,-65.61"/>
</g>
<!-- jonaspammer.shellcheck&#45;&gt;jonaspammer.core_dependencies -->
<g id="edge7" class="edge">
<title>jonaspammer.shellcheck&#45;&gt;jonaspammer.core_dependencies</title>
<path fill="none" stroke="black" d="M500.49,-182.59C481.97,-172.99 458.38,-160.76 438.42,-150.4"/>
<polygon fill="black" stroke="black" points="440.02,-147.29 429.53,-145.8 436.8,-153.51 440.02,-147.29"/>
</g>
<!-- jonaspammer.openssh -->
<g id="node6" class="node">
<title>jonaspammer.openssh</title>
<ellipse fill="orange" stroke="black" cx="785.14" cy="-200" rx="112.38" ry="18"/>
<text text-anchor="middle" x="785.14" y="-196.3" font-family="Open Sans" font-size="14.00">jonaspammer.openssh</text>
</g>
<!-- jonaspammer.openssh&#45;&gt;jonaspammer.bootstrap -->
<g id="edge8" class="edge">
<title>jonaspammer.openssh&#45;&gt;jonaspammer.bootstrap</title>
<path fill="none" stroke="black" d="M752.47,-182.71C713.36,-163.62 645.55,-131.83 585.14,-110 546.66,-96.1 502.69,-83.52 466.95,-74.12"/>
<polygon fill="black" stroke="black" points="467.66,-70.69 457.11,-71.55 465.9,-77.46 467.66,-70.69"/>
</g>
<!-- jonaspammer.openssh&#45;&gt;jonaspammer.core_dependencies -->
<g id="edge9" class="edge">
<title>jonaspammer.openssh&#45;&gt;jonaspammer.core_dependencies</title>
<path fill="none" stroke="black" d="M713.52,-186.08C649.97,-174.61 556.81,-157.81 488.03,-145.4"/>
<polygon fill="black" stroke="black" points="488.52,-141.93 478.06,-143.6 487.28,-148.82 488.52,-141.93"/>
</g>
</g>
</svg>
