<?xml version="1.0" encoding="UTF-8" standalone="no"?>
<!DOCTYPE svg PUBLIC "-//W3C//DTD SVG 1.1//EN"
 "http://www.w3.org/Graphics/SVG/1.1/DTD/svg11.dtd">
<!-- Generated by graphviz version 2.43.0 (0)
 -->
<!-- Title: hierarchy Pages: 1 -->
<svg width="444pt" height="226pt"
 viewBox="0.00 0.00 444.00 226.00" xmlns="http://www.w3.org/2000/svg" xmlns:xlink="http://www.w3.org/1999/xlink">
<g id="graph0" class="graph" transform="scale(1 1) rotate(0) translate(4 222)">
<title>hierarchy</title>
<polygon fill="white" stroke="transparent" points="-4,4 -4,-222 440,-222 440,4 -4,4"/>
<text text-anchor="middle" x="218" y="-22.8" font-family="Open Sans" font-size="14.00">requirements.yml dependency graph of jonaspammer.motd </text>
<text text-anchor="middle" x="218" y="-7.8" font-family="Open Sans" font-size="14.00"> Generated by JonasPammer/ansible&#45;roles</text>
<!-- jonaspammer.motd -->
<g id="node1" class="node">
<title>jonaspammer.motd</title>
<ellipse fill="orange" stroke="black" stroke-width="3" cx="149.05" cy="-200" rx="98.28" ry="18"/>
<text text-anchor="middle" x="149.05" y="-196.3" font-family="Open Sans" font-size="14.00">jonaspammer.motd</text>
</g>
<!-- jonaspammer.bootstrap -->
<g id="node2" class="node">
<title>jonaspammer.bootstrap</title>
<ellipse fill="green" stroke="black" cx="149.05" cy="-56" rx="118.08" ry="18"/>
<text text-anchor="middle" x="149.05" y="-52.3" font-family="Open Sans" font-size="14.00">jonaspammer.bootstrap</text>
</g>
<!-- jonaspammer.motd&#45;&gt;jonaspammer.bootstrap -->
<g id="edge1" class="edge">
<title>jonaspammer.motd&#45;&gt;jonaspammer.bootstrap</title>
<path fill="none" stroke="black" d="M113.14,-183.07C98.2,-174.42 82.41,-162.14 74.05,-146 66.69,-131.79 66.69,-124.21 74.05,-110 80.72,-97.13 92.11,-86.71 104.03,-78.63"/>
<polygon fill="black" stroke="black" points="106.14,-81.44 112.75,-73.16 102.42,-75.51 106.14,-81.44"/>
</g>
<!-- jonaspammer.core_dependencies -->
<g id="node3" class="node">
<title>jonaspammer.core_dependencies</title>
<ellipse fill="yellow" stroke="black" cx="244.05" cy="-128" rx="161.37" ry="18"/>
<text text-anchor="middle" x="244.05" y="-124.3" font-family="Open Sans" font-size="14.00">jonaspammer.core_dependencies</text>
</g>
<!-- jonaspammer.motd&#45;&gt;jonaspammer.core_dependencies -->
<g id="edge2" class="edge">
<title>jonaspammer.motd&#45;&gt;jonaspammer.core_dependencies</title>
<path fill="none" stroke="black" d="M171.57,-182.41C183.92,-173.3 199.44,-161.87 212.94,-151.92"/>
<polygon fill="black" stroke="black" points="215.07,-154.71 221.04,-145.96 210.91,-149.07 215.07,-154.71"/>
</g>
<!-- jonaspammer.core_dependencies&#45;&gt;jonaspammer.bootstrap -->
<g id="edge3" class="edge">
<title>jonaspammer.core_dependencies&#45;&gt;jonaspammer.bootstrap</title>
<path fill="none" stroke="black" d="M221.06,-110.05C208.8,-101.03 193.55,-89.79 180.25,-79.99"/>
<polygon fill="black" stroke="black" points="181.96,-76.9 171.84,-73.79 177.81,-82.54 181.96,-76.9"/>
</g>
</g>
</svg>
