<?xml version="1.0" encoding="UTF-8" standalone="no"?>
<!DOCTYPE svg PUBLIC "-//W3C//DTD SVG 1.1//EN"
 "http://www.w3.org/Graphics/SVG/1.1/DTD/svg11.dtd">
<!-- Generated by graphviz version 2.43.0 (0)
 -->
<!-- Title: hierarchy Pages: 1 -->
<svg width="858pt" height="298pt"
 viewBox="0.00 0.00 857.58 298.00" xmlns="http://www.w3.org/2000/svg" xmlns:xlink="http://www.w3.org/1999/xlink">
<g id="graph0" class="graph" transform="scale(1 1) rotate(0) translate(4 294)">
<title>hierarchy</title>
<polygon fill="white" stroke="transparent" points="-4,4 -4,-294 853.58,-294 853.58,4 -4,4"/>
<text text-anchor="middle" x="424.79" y="-22.8" font-family="Open Sans" font-size="14.00">requirements.yml dependency graph of all roles </text>
<text text-anchor="middle" x="424.79" y="-7.8" font-family="Open Sans" font-size="14.00"> Generated by JonasPammer/ansible&#45;roles</text>
<!-- jonaspammer.bootstrap -->
<g id="node1" class="node">
<title>jonaspammer.bootstrap</title>
<ellipse fill="green" stroke="black" cx="250.14" cy="-56" rx="118.08" ry="18"/>
<text text-anchor="middle" x="250.14" y="-52.3" font-family="Open Sans" font-size="14.00">jonaspammer.bootstrap</text>
</g>
<!-- jonaspammer.core_dependencies -->
<g id="node2" class="node">
<title>jonaspammer.core_dependencies</title>
<ellipse fill="yellow" stroke="black" cx="250.14" cy="-128" rx="161.37" ry="18"/>
<text text-anchor="middle" x="250.14" y="-124.3" font-family="Open Sans" font-size="14.00">jonaspammer.core_dependencies</text>
</g>
<!-- jonaspammer.core_dependencies&#45;&gt;jonaspammer.bootstrap -->
<g id="edge1" class="edge">
<title>jonaspammer.core_dependencies&#45;&gt;jonaspammer.bootstrap</title>
<path fill="none" stroke="black" d="M250.14,-109.7C250.14,-101.98 250.14,-92.71 250.14,-84.11"/>
<polygon fill="black" stroke="black" points="253.64,-84.1 250.14,-74.1 246.64,-84.1 253.64,-84.1"/>
</g>
<!-- jonaspammer.motd -->
<g id="node3" class="node">
<title>jonaspammer.motd</title>
<ellipse fill="orange" stroke="black" cx="98.14" cy="-272" rx="98.28" ry="18"/>
<text text-anchor="middle" x="98.14" y="-268.3" font-family="Open Sans" font-size="14.00">jonaspammer.motd</text>
</g>
<!-- jonaspammer.motd&#45;&gt;jonaspammer.bootstrap -->
<g id="edge2" class="edge">
<title>jonaspammer.motd&#45;&gt;jonaspammer.bootstrap</title>
<path fill="none" stroke="black" d="M72.9,-254.51C61.19,-245.32 48.49,-232.75 42.14,-218 22.54,-172.45 33.63,-143.55 70.14,-110 91.71,-90.18 120.32,-77.75 148.38,-69.96"/>
<polygon fill="black" stroke="black" points="149.47,-73.29 158.27,-67.39 147.71,-66.52 149.47,-73.29"/>
</g>
<!-- jonaspammer.shellcheck -->
<g id="node6" class="node">
<title>jonaspammer.shellcheck</title>
<ellipse fill="orange" stroke="black" cx="173.14" cy="-200" rx="122.38" ry="18"/>
<text text-anchor="middle" x="173.14" y="-196.3" font-family="Open Sans" font-size="14.00">jonaspammer.shellcheck</text>
</g>
<!-- jonaspammer.motd&#45;&gt;jonaspammer.shellcheck -->
<g id="edge3" class="edge">
<title>jonaspammer.motd&#45;&gt;jonaspammer.shellcheck</title>
<path fill="none" stroke="black" d="M116.3,-254.05C125.62,-245.35 137.15,-234.59 147.38,-225.04"/>
<polygon fill="black" stroke="black" points="149.97,-227.41 154.89,-218.03 145.19,-222.3 149.97,-227.41"/>
</g>
<!-- jonaspammer.openssh -->
<g id="node4" class="node">
<title>jonaspammer.openssh</title>
<ellipse fill="orange" stroke="black" cx="737.14" cy="-128" rx="112.38" ry="18"/>
<text text-anchor="middle" x="737.14" y="-124.3" font-family="Open Sans" font-size="14.00">jonaspammer.openssh</text>
</g>
<!-- jonaspammer.openssh&#45;&gt;jonaspammer.bootstrap -->
<g id="edge4" class="edge">
<title>jonaspammer.openssh&#45;&gt;jonaspammer.bootstrap</title>
<path fill="none" stroke="black" d="M656.45,-115.4C570.21,-103.01 433.68,-83.38 343.02,-70.35"/>
<polygon fill="black" stroke="black" points="343.42,-66.87 333.03,-68.91 342.43,-73.8 343.42,-66.87"/>
</g>
<!-- robertdebock.selinux -->
<g id="node7" class="node">
<title>robertdebock.selinux</title>
<ellipse fill="none" stroke="black" cx="737.14" cy="-56" rx="105.88" ry="18"/>
<text text-anchor="middle" x="737.14" y="-52.3" font-family="Open Sans" font-size="14.00">robertdebock.selinux</text>
</g>
<!-- jonaspammer.openssh&#45;&gt;robertdebock.selinux -->
<g id="edge5" class="edge">
<title>jonaspammer.openssh&#45;&gt;robertdebock.selinux</title>
<path fill="none" stroke="black" d="M737.14,-109.7C737.14,-101.98 737.14,-92.71 737.14,-84.11"/>
<polygon fill="black" stroke="black" points="740.64,-84.1 737.14,-74.1 733.64,-84.1 740.64,-84.1"/>
</g>
<!-- jonaspammer.pip -->
<g id="node5" class="node">
<title>jonaspammer.pip</title>
<ellipse fill="yellow" stroke="black" cx="518.14" cy="-128" rx="89.08" ry="18"/>
<text text-anchor="middle" x="518.14" y="-124.3" font-family="Open Sans" font-size="14.00">jonaspammer.pip</text>
</g>
<!-- jonaspammer.pip&#45;&gt;jonaspammer.bootstrap -->
<g id="edge6" class="edge">
<title>jonaspammer.pip&#45;&gt;jonaspammer.bootstrap</title>
<path fill="none" stroke="black" d="M465.83,-113.34C423.26,-102.22 362.89,-86.45 316.84,-74.42"/>
<polygon fill="black" stroke="black" points="317.51,-70.98 306.95,-71.84 315.74,-77.75 317.51,-70.98"/>
</g>
<!-- jonaspammer.shellcheck&#45;&gt;jonaspammer.bootstrap -->
<g id="edge7" class="edge">
<title>jonaspammer.shellcheck&#45;&gt;jonaspammer.bootstrap</title>
<path fill="none" stroke="black" d="M124.96,-183.28C107.68,-175.05 90.04,-163.03 80.14,-146 72.1,-132.17 70.66,-122.89 80.14,-110 95.1,-89.67 117.82,-76.91 141.81,-68.97"/>
<polygon fill="black" stroke="black" points="142.87,-72.31 151.42,-66.05 140.84,-65.61 142.87,-72.31"/>
</g>
<!-- jonaspammer.shellcheck&#45;&gt;jonaspammer.core_dependencies -->
<g id="edge8" class="edge">
<title>jonaspammer.shellcheck&#45;&gt;jonaspammer.core_dependencies</title>
<path fill="none" stroke="black" d="M191.78,-182.05C201.45,-173.26 213.42,-162.38 224,-152.76"/>
<polygon fill="black" stroke="black" points="226.36,-155.35 231.41,-146.03 221.65,-150.17 226.36,-155.35"/>
</g>
</g>
</svg>
