<?xml version="1.0" encoding="UTF-8" standalone="no"?>
<!DOCTYPE svg PUBLIC "-//W3C//DTD SVG 1.1//EN"
 "http://www.w3.org/Graphics/SVG/1.1/DTD/svg11.dtd">
<!-- Generated by graphviz version 2.43.0 (0)
 -->
<!-- Title: hierarchy Pages: 1 -->
<svg width="382pt" height="226pt"
 viewBox="0.00 0.00 382.48 226.00" xmlns="http://www.w3.org/2000/svg" xmlns:xlink="http://www.w3.org/1999/xlink">
<g id="graph0" class="graph" transform="scale(1 1) rotate(0) translate(4 222)">
<title>hierarchy</title>
<polygon fill="white" stroke="transparent" points="-4,4 -4,-222 378.48,-222 378.48,4 -4,4"/>
<text text-anchor="middle" x="187.24" y="-22.8" font-family="Open Sans" font-size="14.00">requirements.yml dependency graph of all roles </text>
<text text-anchor="middle" x="187.24" y="-7.8" font-family="Open Sans" font-size="14.00"> Generated by JonasPammer/ansible&#45;roles</text>
<!-- jonaspammer.bootstrap -->
<g id="node1" class="node">
<title>jonaspammer.bootstrap</title>
<ellipse fill="green" stroke="black" cx="118.29" cy="-56" rx="118.08" ry="18"/>
<text text-anchor="middle" x="118.29" y="-52.3" font-family="Open Sans" font-size="14.00">jonaspammer.bootstrap</text>
</g>
<!-- jonaspammer.core_dependencies -->
<g id="node2" class="node">
<title>jonaspammer.core_dependencies</title>
<ellipse fill="yellow" stroke="black" cx="213.29" cy="-128" rx="161.37" ry="18"/>
<text text-anchor="middle" x="213.29" y="-124.3" font-family="Open Sans" font-size="14.00">jonaspammer.core_dependencies</text>
</g>
<!-- jonaspammer.core_dependencies&#45;&gt;jonaspammer.bootstrap -->
<g id="edge1" class="edge">
<title>jonaspammer.core_dependencies&#45;&gt;jonaspammer.bootstrap</title>
<path fill="none" stroke="black" d="M190.29,-110.05C178.04,-101.03 162.79,-89.79 149.49,-79.99"/>
<polygon fill="black" stroke="black" points="151.2,-76.9 141.07,-73.79 147.05,-82.54 151.2,-76.9"/>
</g>
<!-- jonaspammer.pip -->
<g id="node3" class="node">
<title>jonaspammer.pip</title>
<ellipse fill="orange" stroke="black" cx="118.29" cy="-200" rx="89.08" ry="18"/>
<text text-anchor="middle" x="118.29" y="-196.3" font-family="Open Sans" font-size="14.00">jonaspammer.pip</text>
</g>
<!-- jonaspammer.pip&#45;&gt;jonaspammer.bootstrap -->
<g id="edge2" class="edge">
<title>jonaspammer.pip&#45;&gt;jonaspammer.bootstrap</title>
<path fill="none" stroke="black" d="M82.77,-183.29C67.71,-174.63 51.72,-162.28 43.29,-146 35.93,-131.79 35.93,-124.21 43.29,-110 49.96,-97.13 61.35,-86.71 73.27,-78.63"/>
<polygon fill="black" stroke="black" points="75.38,-81.44 81.98,-73.16 71.65,-75.51 75.38,-81.44"/>
</g>
<!-- jonaspammer.pip&#45;&gt;jonaspammer.core_dependencies -->
<g id="edge3" class="edge">
<title>jonaspammer.pip&#45;&gt;jonaspammer.core_dependencies</title>
<path fill="none" stroke="black" d="M140.8,-182.41C153.16,-173.3 168.68,-161.87 182.18,-151.92"/>
<polygon fill="black" stroke="black" points="184.3,-154.71 190.28,-145.96 180.15,-149.07 184.3,-154.71"/>
</g>
</g>
</svg>
