<?xml version="1.0" encoding="UTF-8" standalone="no"?>
<!DOCTYPE svg PUBLIC "-//W3C//DTD SVG 1.1//EN"
 "http://www.w3.org/Graphics/SVG/1.1/DTD/svg11.dtd">
<!-- Generated by graphviz version 2.43.0 (0)
 -->
<!-- Title: hierarchy Pages: 1 -->
<svg width="1173pt" height="298pt"
 viewBox="0.00 0.00 1172.58 298.00" xmlns="http://www.w3.org/2000/svg" xmlns:xlink="http://www.w3.org/1999/xlink">
<g id="graph0" class="graph" transform="scale(1 1) rotate(0) translate(4 294)">
<title>hierarchy</title>
<polygon fill="white" stroke="transparent" points="-4,4 -4,-294 1168.58,-294 1168.58,4 -4,4"/>
<text text-anchor="middle" x="582.29" y="-22.8" font-family="Open Sans" font-size="14.00">requirements.yml dependency graph of all roles </text>
<text text-anchor="middle" x="582.29" y="-7.8" font-family="Open Sans" font-size="14.00"> Generated by JonasPammer/ansible&#45;roles</text>
<!-- jonaspammer.bootstrap -->
<g id="node1" class="node">
<title>jonaspammer.bootstrap</title>
<ellipse fill="green" stroke="black" cx="384.14" cy="-56" rx="118.08" ry="18"/>
<text text-anchor="middle" x="384.14" y="-52.3" font-family="Open Sans" font-size="14.00">jonaspammer.bootstrap</text>
</g>
<!-- jonaspammer.core_dependencies -->
<g id="node2" class="node">
<title>jonaspammer.core_dependencies</title>
<ellipse fill="yellow" stroke="black" cx="250.14" cy="-128" rx="161.37" ry="18"/>
<text text-anchor="middle" x="250.14" y="-124.3" font-family="Open Sans" font-size="14.00">jonaspammer.core_dependencies</text>
</g>
<!-- jonaspammer.core_dependencies&#45;&gt;jonaspammer.bootstrap -->
<g id="edge1" class="edge">
<title>jonaspammer.core_dependencies&#45;&gt;jonaspammer.bootstrap</title>
<path fill="none" stroke="black" d="M282.24,-110.23C300.69,-100.6 324.03,-88.4 343.72,-78.11"/>
<polygon fill="black" stroke="black" points="345.53,-81.12 352.77,-73.39 342.29,-74.92 345.53,-81.12"/>
</g>
<!-- jonaspammer.motd -->
<g id="node3" class="node">
<title>jonaspammer.motd</title>
<ellipse fill="orange" stroke="black" cx="98.14" cy="-272" rx="98.28" ry="18"/>
<text text-anchor="middle" x="98.14" y="-268.3" font-family="Open Sans" font-size="14.00">jonaspammer.motd</text>
</g>
<!-- jonaspammer.motd&#45;&gt;jonaspammer.bootstrap -->
<g id="edge2" class="edge">
<title>jonaspammer.motd&#45;&gt;jonaspammer.bootstrap</title>
<path fill="none" stroke="black" d="M72.9,-254.51C61.19,-245.32 48.49,-232.75 42.14,-218 22.54,-172.45 31.7,-141.32 70.14,-110 100.09,-85.61 190.89,-72.05 267.19,-64.77"/>
<polygon fill="black" stroke="black" points="267.74,-68.24 277.37,-63.83 267.09,-61.27 267.74,-68.24"/>
</g>
<!-- jonaspammer.shellcheck -->
<g id="node6" class="node">
<title>jonaspammer.shellcheck</title>
<ellipse fill="orange" stroke="black" cx="173.14" cy="-200" rx="122.38" ry="18"/>
<text text-anchor="middle" x="173.14" y="-196.3" font-family="Open Sans" font-size="14.00">jonaspammer.shellcheck</text>
</g>
<!-- jonaspammer.motd&#45;&gt;jonaspammer.shellcheck -->
<g id="edge3" class="edge">
<title>jonaspammer.motd&#45;&gt;jonaspammer.shellcheck</title>
<path fill="none" stroke="black" d="M116.3,-254.05C125.62,-245.35 137.15,-234.59 147.38,-225.04"/>
<polygon fill="black" stroke="black" points="149.97,-227.41 154.89,-218.03 145.19,-222.3 149.97,-227.41"/>
</g>
<!-- jonaspammer.openssh -->
<g id="node4" class="node">
<title>jonaspammer.openssh</title>
<ellipse fill="orange" stroke="black" cx="1052.14" cy="-128" rx="112.38" ry="18"/>
<text text-anchor="middle" x="1052.14" y="-124.3" font-family="Open Sans" font-size="14.00">jonaspammer.openssh</text>
</g>
<!-- jonaspammer.openssh&#45;&gt;jonaspammer.bootstrap -->
<g id="edge4" class="edge">
<title>jonaspammer.openssh&#45;&gt;jonaspammer.bootstrap</title>
<path fill="none" stroke="black" d="M971.81,-115.32C957.93,-113.44 943.63,-111.59 930.14,-110 779.61,-92.21 605.21,-76.06 494.81,-66.38"/>
<polygon fill="black" stroke="black" points="494.92,-62.88 484.66,-65.49 494.32,-69.85 494.92,-62.88"/>
</g>
<!-- robertdebock.selinux -->
<g id="node8" class="node">
<title>robertdebock.selinux</title>
<ellipse fill="none" stroke="black" cx="1052.14" cy="-56" rx="105.88" ry="18"/>
<text text-anchor="middle" x="1052.14" y="-52.3" font-family="Open Sans" font-size="14.00">robertdebock.selinux</text>
</g>
<!-- jonaspammer.openssh&#45;&gt;robertdebock.selinux -->
<g id="edge5" class="edge">
<title>jonaspammer.openssh&#45;&gt;robertdebock.selinux</title>
<path fill="none" stroke="black" d="M1052.14,-109.7C1052.14,-101.98 1052.14,-92.71 1052.14,-84.11"/>
<polygon fill="black" stroke="black" points="1055.64,-84.1 1052.14,-74.1 1048.64,-84.1 1055.64,-84.1"/>
</g>
<!-- jonaspammer.pip -->
<g id="node5" class="node">
<title>jonaspammer.pip</title>
<ellipse fill="yellow" stroke="black" cx="518.14" cy="-128" rx="89.08" ry="18"/>
<text text-anchor="middle" x="518.14" y="-124.3" font-family="Open Sans" font-size="14.00">jonaspammer.pip</text>
</g>
<!-- jonaspammer.pip&#45;&gt;jonaspammer.bootstrap -->
<g id="edge6" class="edge">
<title>jonaspammer.pip&#45;&gt;jonaspammer.bootstrap</title>
<path fill="none" stroke="black" d="M487.4,-110.94C468.77,-101.21 444.79,-88.68 424.63,-78.15"/>
<polygon fill="black" stroke="black" points="426.15,-75 415.67,-73.47 422.91,-81.2 426.15,-75"/>
</g>
<!-- jonaspammer.shellcheck&#45;&gt;jonaspammer.bootstrap -->
<g id="edge7" class="edge">
<title>jonaspammer.shellcheck&#45;&gt;jonaspammer.bootstrap</title>
<path fill="none" stroke="black" d="M124.96,-183.28C107.68,-175.05 90.04,-163.03 80.14,-146 72.1,-132.17 69.84,-122.25 80.14,-110 103.56,-82.14 187.74,-68.93 261.6,-62.66"/>
<polygon fill="black" stroke="black" points="262.26,-66.12 271.94,-61.82 261.69,-59.14 262.26,-66.12"/>
</g>
<!-- jonaspammer.shellcheck&#45;&gt;jonaspammer.core_dependencies -->
<g id="edge8" class="edge">
<title>jonaspammer.shellcheck&#45;&gt;jonaspammer.core_dependencies</title>
<path fill="none" stroke="black" d="M191.78,-182.05C201.45,-173.26 213.42,-162.38 224,-152.76"/>
<polygon fill="black" stroke="black" points="226.36,-155.35 231.41,-146.03 221.65,-150.17 226.36,-155.35"/>
</g>
<!-- jonaspammer.checkmk_server -->
<g id="node7" class="node">
<title>jonaspammer.checkmk_server</title>
<ellipse fill="yellow" stroke="black" cx="773.14" cy="-128" rx="148.37" ry="18"/>
<text text-anchor="middle" x="773.14" y="-124.3" font-family="Open Sans" font-size="14.00">jonaspammer.checkmk_server</text>
</g>
<!-- jonaspammer.checkmk_server&#45;&gt;jonaspammer.bootstrap -->
<g id="edge9" class="edge">
<title>jonaspammer.checkmk_server&#45;&gt;jonaspammer.bootstrap</title>
<path fill="none" stroke="black" d="M693.95,-112.75C628.03,-100.89 534.44,-84.05 467.41,-71.98"/>
<polygon fill="black" stroke="black" points="467.76,-68.49 457.3,-70.17 466.52,-75.38 467.76,-68.49"/>
</g>
</g>
</svg>
