<?xml version="1.0" encoding="UTF-8" standalone="no"?>
<!DOCTYPE svg PUBLIC "-//W3C//DTD SVG 1.1//EN"
 "http://www.w3.org/Graphics/SVG/1.1/DTD/svg11.dtd">
<!-- Generated by graphviz version 2.43.0 (0)
 -->
<!-- Title: hierarchy Pages: 1 -->
<svg width="828pt" height="298pt"
 viewBox="0.00 0.00 827.74 298.00" xmlns="http://www.w3.org/2000/svg" xmlns:xlink="http://www.w3.org/1999/xlink">
<g id="graph0" class="graph" transform="scale(1 1) rotate(0) translate(4 294)">
<title>hierarchy</title>
<polygon fill="white" stroke="transparent" points="-4,4 -4,-294 823.74,-294 823.74,4 -4,4"/>
<text text-anchor="middle" x="409.87" y="-22.8" font-family="Open Sans" font-size="14.00">requirements.yml dependency graph of all roles </text>
<text text-anchor="middle" x="409.87" y="-7.8" font-family="Open Sans" font-size="14.00"> Generated by JonasPammer/ansible&#45;roles</text>
<!-- jonaspammer.bootstrap -->
<g id="node1" class="node">
<title>jonaspammer.bootstrap</title>
<ellipse fill="green" stroke="black" cx="371.3" cy="-56" rx="118.08" ry="18"/>
<text text-anchor="middle" x="371.3" y="-52.3" font-family="Open Sans" font-size="14.00">jonaspammer.bootstrap</text>
</g>
<!-- jonaspammer.core_dependencies -->
<g id="node2" class="node">
<title>jonaspammer.core_dependencies</title>
<ellipse fill="yellow" stroke="black" cx="182.3" cy="-128" rx="161.37" ry="18"/>
<text text-anchor="middle" x="182.3" y="-124.3" font-family="Open Sans" font-size="14.00">jonaspammer.core_dependencies</text>
</g>
<!-- jonaspammer.core_dependencies&#45;&gt;jonaspammer.bootstrap -->
<g id="edge1" class="edge">
<title>jonaspammer.core_dependencies&#45;&gt;jonaspammer.bootstrap</title>
<path fill="none" stroke="black" d="M226.61,-110.59C254.25,-100.35 289.97,-87.12 319,-76.37"/>
<polygon fill="black" stroke="black" points="320.4,-79.58 328.56,-72.83 317.97,-73.02 320.4,-79.58"/>
</g>
<!-- jonaspammer.motd -->
<g id="node3" class="node">
<title>jonaspammer.motd</title>
<ellipse fill="red" stroke="black" cx="107.3" cy="-272" rx="98.28" ry="18"/>
<text text-anchor="middle" x="107.3" y="-268.3" font-family="Open Sans" font-size="14.00">jonaspammer.motd</text>
</g>
<!-- jonaspammer.motd&#45;&gt;jonaspammer.bootstrap -->
<g id="edge2" class="edge">
<title>jonaspammer.motd&#45;&gt;jonaspammer.bootstrap</title>
<path fill="none" stroke="black" d="M84.51,-254.45C44.99,-223.8 -28.31,-157.05 12.3,-110 42.11,-75.47 153.08,-63.04 243.84,-58.77"/>
<polygon fill="black" stroke="black" points="244.12,-62.26 253.96,-58.32 243.82,-55.26 244.12,-62.26"/>
</g>
<!-- jonaspammer.motd&#45;&gt;jonaspammer.core_dependencies -->
<g id="edge3" class="edge">
<title>jonaspammer.motd&#45;&gt;jonaspammer.core_dependencies</title>
<path fill="none" stroke="black" d="M107.95,-253.87C109.33,-235.13 113.53,-204.73 126.3,-182 132.49,-170.97 141.75,-160.85 150.96,-152.49"/>
<polygon fill="black" stroke="black" points="153.33,-155.07 158.62,-145.89 148.76,-149.77 153.33,-155.07"/>
</g>
<!-- jonaspammer.shellcheck -->
<g id="node6" class="node">
<title>jonaspammer.shellcheck</title>
<ellipse fill="orange" stroke="black" cx="257.3" cy="-200" rx="122.38" ry="18"/>
<text text-anchor="middle" x="257.3" y="-196.3" font-family="Open Sans" font-size="14.00">jonaspammer.shellcheck</text>
</g>
<!-- jonaspammer.motd&#45;&gt;jonaspammer.shellcheck -->
<g id="edge4" class="edge">
<title>jonaspammer.motd&#45;&gt;jonaspammer.shellcheck</title>
<path fill="none" stroke="black" d="M141.33,-255.12C162.61,-245.19 190.22,-232.3 213.16,-221.6"/>
<polygon fill="black" stroke="black" points="214.77,-224.71 222.35,-217.31 211.81,-218.36 214.77,-224.71"/>
</g>
<!-- jonaspammer.openssh -->
<g id="node4" class="node">
<title>jonaspammer.openssh</title>
<ellipse fill="orange" stroke="black" cx="707.3" cy="-128" rx="112.38" ry="18"/>
<text text-anchor="middle" x="707.3" y="-124.3" font-family="Open Sans" font-size="14.00">jonaspammer.openssh</text>
</g>
<!-- jonaspammer.openssh&#45;&gt;jonaspammer.bootstrap -->
<g id="edge5" class="edge">
<title>jonaspammer.openssh&#45;&gt;jonaspammer.bootstrap</title>
<path fill="none" stroke="black" d="M641.71,-113.34C586.2,-101.77 506.56,-85.18 448.08,-73"/>
<polygon fill="black" stroke="black" points="448.65,-69.54 438.15,-70.93 447.23,-76.39 448.65,-69.54"/>
</g>
<!-- robertdebock.selinux -->
<g id="node7" class="node">
<title>robertdebock.selinux</title>
<ellipse fill="none" stroke="black" cx="707.3" cy="-56" rx="105.88" ry="18"/>
<text text-anchor="middle" x="707.3" y="-52.3" font-family="Open Sans" font-size="14.00">robertdebock.selinux</text>
</g>
<!-- jonaspammer.openssh&#45;&gt;robertdebock.selinux -->
<g id="edge6" class="edge">
<title>jonaspammer.openssh&#45;&gt;robertdebock.selinux</title>
<path fill="none" stroke="black" d="M707.3,-109.7C707.3,-101.98 707.3,-92.71 707.3,-84.11"/>
<polygon fill="black" stroke="black" points="710.8,-84.1 707.3,-74.1 703.8,-84.1 710.8,-84.1"/>
</g>
<!-- jonaspammer.pip -->
<g id="node5" class="node">
<title>jonaspammer.pip</title>
<ellipse fill="yellow" stroke="black" cx="488.3" cy="-128" rx="89.08" ry="18"/>
<text text-anchor="middle" x="488.3" y="-124.3" font-family="Open Sans" font-size="14.00">jonaspammer.pip</text>
</g>
<!-- jonaspammer.pip&#45;&gt;jonaspammer.bootstrap -->
<g id="edge7" class="edge">
<title>jonaspammer.pip&#45;&gt;jonaspammer.bootstrap</title>
<path fill="none" stroke="black" d="M461.16,-110.76C445.29,-101.27 425.06,-89.17 407.81,-78.84"/>
<polygon fill="black" stroke="black" points="409.48,-75.76 399.1,-73.63 405.88,-81.77 409.48,-75.76"/>
</g>
<!-- jonaspammer.shellcheck&#45;&gt;jonaspammer.bootstrap -->
<g id="edge8" class="edge">
<title>jonaspammer.shellcheck&#45;&gt;jonaspammer.bootstrap</title>
<path fill="none" stroke="black" d="M302.71,-183.25C320.68,-174.85 339.95,-162.71 352.3,-146 365.46,-128.17 369.9,-103.17 371.23,-84.2"/>
<polygon fill="black" stroke="black" points="374.73,-84.24 371.69,-74.1 367.74,-83.93 374.73,-84.24"/>
</g>
<!-- jonaspammer.shellcheck&#45;&gt;jonaspammer.core_dependencies -->
<g id="edge9" class="edge">
<title>jonaspammer.shellcheck&#45;&gt;jonaspammer.core_dependencies</title>
<path fill="none" stroke="black" d="M239.14,-182.05C229.81,-173.35 218.29,-162.59 208.06,-153.04"/>
<polygon fill="black" stroke="black" points="210.24,-150.3 200.54,-146.03 205.47,-155.41 210.24,-150.3"/>
</g>
</g>
</svg>
