<?xml version="1.0" encoding="UTF-8" standalone="no"?>
<!DOCTYPE svg PUBLIC "-//W3C//DTD SVG 1.1//EN"
 "http://www.w3.org/Graphics/SVG/1.1/DTD/svg11.dtd">
<!-- Generated by graphviz version 2.43.0 (0)
 -->
<!-- Title: hierarchy Pages: 1 -->
<svg width="863pt" height="226pt"
 viewBox="0.00 0.00 862.58 226.00" xmlns="http://www.w3.org/2000/svg" xmlns:xlink="http://www.w3.org/1999/xlink">
<g id="graph0" class="graph" transform="scale(1 1) rotate(0) translate(4 222)">
<title>hierarchy</title>
<polygon fill="white" stroke="transparent" points="-4,4 -4,-222 858.58,-222 858.58,4 -4,4"/>
<text text-anchor="middle" x="427.29" y="-22.8" font-family="Open Sans" font-size="14.00">requirements.yml dependency graph of all roles </text>
<text text-anchor="middle" x="427.29" y="-7.8" font-family="Open Sans" font-size="14.00"> Generated by JonasPammer/ansible&#45;roles</text>
<!-- jonaspammer.bootstrap -->
<g id="node1" class="node">
<title>jonaspammer.bootstrap</title>
<ellipse fill="green" stroke="black" cx="406.14" cy="-56" rx="118.08" ry="18"/>
<text text-anchor="middle" x="406.14" y="-52.3" font-family="Open Sans" font-size="14.00">jonaspammer.bootstrap</text>
</g>
<!-- jonaspammer.core_dependencies -->
<g id="node2" class="node">
<title>jonaspammer.core_dependencies</title>
<ellipse fill="yellow" stroke="black" cx="217.14" cy="-128" rx="161.37" ry="18"/>
<text text-anchor="middle" x="217.14" y="-124.3" font-family="Open Sans" font-size="14.00">jonaspammer.core_dependencies</text>
</g>
<!-- jonaspammer.core_dependencies&#45;&gt;jonaspammer.bootstrap -->
<g id="edge1" class="edge">
<title>jonaspammer.core_dependencies&#45;&gt;jonaspammer.bootstrap</title>
<path fill="none" stroke="black" d="M261.45,-110.59C289.1,-100.35 324.81,-87.12 353.84,-76.37"/>
<polygon fill="black" stroke="black" points="355.25,-79.58 363.41,-72.83 352.81,-73.02 355.25,-79.58"/>
</g>
<!-- jonaspammer.motd -->
<g id="node3" class="node">
<title>jonaspammer.motd</title>
<ellipse fill="orange" stroke="black" cx="98.14" cy="-200" rx="98.28" ry="18"/>
<text text-anchor="middle" x="98.14" y="-196.3" font-family="Open Sans" font-size="14.00">jonaspammer.motd</text>
</g>
<!-- jonaspammer.motd&#45;&gt;jonaspammer.bootstrap -->
<g id="edge2" class="edge">
<title>jonaspammer.motd&#45;&gt;jonaspammer.bootstrap</title>
<path fill="none" stroke="black" d="M76.89,-182.37C55.33,-163.53 27.71,-132.51 47.14,-110 76.95,-75.47 187.92,-63.04 278.69,-58.77"/>
<polygon fill="black" stroke="black" points="278.97,-62.26 288.81,-58.32 278.66,-55.26 278.97,-62.26"/>
</g>
<!-- jonaspammer.motd&#45;&gt;jonaspammer.core_dependencies -->
<g id="edge3" class="edge">
<title>jonaspammer.motd&#45;&gt;jonaspammer.core_dependencies</title>
<path fill="none" stroke="black" d="M126.04,-182.59C142.07,-173.16 162.41,-161.2 179.8,-150.96"/>
<polygon fill="black" stroke="black" points="181.74,-153.88 188.59,-145.8 178.2,-147.85 181.74,-153.88"/>
</g>
<!-- jonaspammer.openssh -->
<g id="node4" class="node">
<title>jonaspammer.openssh</title>
<ellipse fill="orange" stroke="black" cx="742.14" cy="-128" rx="112.38" ry="18"/>
<text text-anchor="middle" x="742.14" y="-124.3" font-family="Open Sans" font-size="14.00">jonaspammer.openssh</text>
</g>
<!-- jonaspammer.openssh&#45;&gt;jonaspammer.bootstrap -->
<g id="edge4" class="edge">
<title>jonaspammer.openssh&#45;&gt;jonaspammer.bootstrap</title>
<path fill="none" stroke="black" d="M676.56,-113.34C621.04,-101.77 541.4,-85.18 482.92,-73"/>
<polygon fill="black" stroke="black" points="483.5,-69.54 472.99,-70.93 482.07,-76.39 483.5,-69.54"/>
</g>
<!-- robertdebock.selinux -->
<g id="node7" class="node">
<title>robertdebock.selinux</title>
<ellipse fill="none" stroke="black" cx="742.14" cy="-56" rx="105.88" ry="18"/>
<text text-anchor="middle" x="742.14" y="-52.3" font-family="Open Sans" font-size="14.00">robertdebock.selinux</text>
</g>
<!-- jonaspammer.openssh&#45;&gt;robertdebock.selinux -->
<g id="edge5" class="edge">
<title>jonaspammer.openssh&#45;&gt;robertdebock.selinux</title>
<path fill="none" stroke="black" d="M742.14,-109.7C742.14,-101.98 742.14,-92.71 742.14,-84.11"/>
<polygon fill="black" stroke="black" points="745.64,-84.1 742.14,-74.1 738.64,-84.1 745.64,-84.1"/>
</g>
<!-- jonaspammer.pip -->
<g id="node5" class="node">
<title>jonaspammer.pip</title>
<ellipse fill="yellow" stroke="black" cx="523.14" cy="-128" rx="89.08" ry="18"/>
<text text-anchor="middle" x="523.14" y="-124.3" font-family="Open Sans" font-size="14.00">jonaspammer.pip</text>
</g>
<!-- jonaspammer.pip&#45;&gt;jonaspammer.bootstrap -->
<g id="edge6" class="edge">
<title>jonaspammer.pip&#45;&gt;jonaspammer.bootstrap</title>
<path fill="none" stroke="black" d="M496.01,-110.76C480.14,-101.27 459.9,-89.17 442.65,-78.84"/>
<polygon fill="black" stroke="black" points="444.32,-75.76 433.94,-73.63 440.73,-81.77 444.32,-75.76"/>
</g>
<!-- jonaspammer.shellcheck -->
<g id="node6" class="node">
<title>jonaspammer.shellcheck</title>
<ellipse fill="orange" stroke="black" cx="371.14" cy="-200" rx="122.38" ry="18"/>
<text text-anchor="middle" x="371.14" y="-196.3" font-family="Open Sans" font-size="14.00">jonaspammer.shellcheck</text>
</g>
<!-- jonaspammer.shellcheck&#45;&gt;jonaspammer.bootstrap -->
<g id="edge7" class="edge">
<title>jonaspammer.shellcheck&#45;&gt;jonaspammer.bootstrap</title>
<path fill="none" stroke="black" d="M376.69,-181.92C379.95,-171.58 384.03,-158.1 387.14,-146 392.42,-125.47 397.39,-102.02 400.91,-84.34"/>
<polygon fill="black" stroke="black" points="404.42,-84.65 402.92,-74.16 397.55,-83.3 404.42,-84.65"/>
</g>
<!-- jonaspammer.shellcheck&#45;&gt;jonaspammer.core_dependencies -->
<g id="edge8" class="edge">
<title>jonaspammer.shellcheck&#45;&gt;jonaspammer.core_dependencies</title>
<path fill="none" stroke="black" d="M335.42,-182.76C313.87,-172.97 286.19,-160.39 263.02,-149.86"/>
<polygon fill="black" stroke="black" points="264.29,-146.59 253.73,-145.63 261.39,-152.96 264.29,-146.59"/>
</g>
</g>
</svg>
