<?xml version="1.0" encoding="UTF-8" standalone="no"?>
<!DOCTYPE svg PUBLIC "-//W3C//DTD SVG 1.1//EN"
 "http://www.w3.org/Graphics/SVG/1.1/DTD/svg11.dtd">
<!-- Generated by graphviz version 2.43.0 (0)
 -->
<!-- Title: hierarchy Pages: 1 -->
<svg width="2441pt" height="298pt"
 viewBox="0.00 0.00 2441.12 298.00" xmlns="http://www.w3.org/2000/svg" xmlns:xlink="http://www.w3.org/1999/xlink">
<g id="graph0" class="graph" transform="scale(1 1) rotate(0) translate(4 294)">
<title>hierarchy</title>
<polygon fill="white" stroke="transparent" points="-4,4 -4,-294 2437.12,-294 2437.12,4 -4,4"/>
<text text-anchor="middle" x="1216.56" y="-22.8" font-family="Open Sans" font-size="14.00">requirements.yml dependency graph of all roles </text>
<text text-anchor="middle" x="1216.56" y="-7.8" font-family="Open Sans" font-size="14.00"> Generated by JonasPammer/ansible&#45;roles</text>
<!-- jonaspammer.bootstrap -->
<g id="node1" class="node">
<title>jonaspammer.bootstrap</title>
<ellipse fill="darkgreen" stroke="black" cx="683.14" cy="-56" rx="118.08" ry="18"/>
<text text-anchor="middle" x="683.14" y="-52.3" font-family="Open Sans" font-size="14.00">jonaspammer.bootstrap</text>
</g>
<!-- jonaspammer.core_dependencies -->
<g id="node2" class="node">
<title>jonaspammer.core_dependencies</title>
<ellipse fill="forestgreen" stroke="black" cx="250.14" cy="-128" rx="161.37" ry="18"/>
<text text-anchor="middle" x="250.14" y="-124.3" font-family="Open Sans" font-size="14.00">jonaspammer.core_dependencies</text>
</g>
<!-- jonaspammer.core_dependencies&#45;&gt;jonaspammer.bootstrap -->
<g id="edge1" class="edge">
<title>jonaspammer.core_dependencies&#45;&gt;jonaspammer.bootstrap</title>
<path fill="none" stroke="black" d="M337.77,-112.83C412.74,-100.71 520.12,-83.35 595.19,-71.22"/>
<polygon fill="black" stroke="black" points="595.78,-74.67 605.1,-69.62 594.67,-67.76 595.78,-74.67"/>
</g>
<!-- jonaspammer.pip -->
<g id="node3" class="node">
<title>jonaspammer.pip</title>
<ellipse fill="forestgreen" stroke="black" cx="1696.14" cy="-128" rx="89.08" ry="18"/>
<text text-anchor="middle" x="1696.14" y="-124.3" font-family="Open Sans" font-size="14.00">jonaspammer.pip</text>
</g>
<!-- jonaspammer.pip&#45;&gt;jonaspammer.bootstrap -->
<g id="edge2" class="edge">
<title>jonaspammer.pip&#45;&gt;jonaspammer.bootstrap</title>
<path fill="none" stroke="black" d="M1613.24,-121.27C1433.06,-108.82 1005.38,-79.27 798.78,-64.99"/>
<polygon fill="black" stroke="black" points="798.73,-61.48 788.51,-64.28 798.25,-68.46 798.73,-61.48"/>
</g>
<!-- jonaspammer.shellcheck -->
<g id="node4" class="node">
<title>jonaspammer.shellcheck</title>
<ellipse fill="limegreen" stroke="black" cx="173.14" cy="-200" rx="122.38" ry="18"/>
<text text-anchor="middle" x="173.14" y="-196.3" font-family="Open Sans" font-size="14.00">jonaspammer.shellcheck</text>
</g>
<!-- jonaspammer.shellcheck&#45;&gt;jonaspammer.bootstrap -->
<g id="edge3" class="edge">
<title>jonaspammer.shellcheck&#45;&gt;jonaspammer.bootstrap</title>
<path fill="none" stroke="black" d="M124.96,-183.28C107.68,-175.05 90.04,-163.03 80.14,-146 72.1,-132.17 69.33,-121.8 80.14,-110 111.6,-75.66 388.58,-63.46 556.01,-59.21"/>
<polygon fill="black" stroke="black" points="556.22,-62.71 566.13,-58.96 556.04,-55.71 556.22,-62.71"/>
</g>
<!-- jonaspammer.shellcheck&#45;&gt;jonaspammer.core_dependencies -->
<g id="edge4" class="edge">
<title>jonaspammer.shellcheck&#45;&gt;jonaspammer.core_dependencies</title>
<path fill="none" stroke="black" d="M191.78,-182.05C201.45,-173.26 213.42,-162.38 224,-152.76"/>
<polygon fill="black" stroke="black" points="226.36,-155.35 231.41,-146.03 221.65,-150.17 226.36,-155.35"/>
</g>
<!-- jonaspammer.motd -->
<g id="node5" class="node">
<title>jonaspammer.motd</title>
<ellipse fill="limegreen" stroke="black" cx="98.14" cy="-272" rx="98.28" ry="18"/>
<text text-anchor="middle" x="98.14" y="-268.3" font-family="Open Sans" font-size="14.00">jonaspammer.motd</text>
</g>
<!-- jonaspammer.motd&#45;&gt;jonaspammer.bootstrap -->
<g id="edge5" class="edge">
<title>jonaspammer.motd&#45;&gt;jonaspammer.bootstrap</title>
<path fill="none" stroke="black" d="M72.9,-254.51C61.19,-245.32 48.49,-232.75 42.14,-218 22.58,-172.55 29.73,-139.91 69.14,-110 107.12,-81.18 389.84,-66.8 558.1,-60.72"/>
<polygon fill="black" stroke="black" points="558.4,-64.22 568.27,-60.36 558.15,-57.22 558.4,-64.22"/>
</g>
<!-- jonaspammer.motd&#45;&gt;jonaspammer.shellcheck -->
<g id="edge6" class="edge">
<title>jonaspammer.motd&#45;&gt;jonaspammer.shellcheck</title>
<path fill="none" stroke="black" d="M116.3,-254.05C125.62,-245.35 137.15,-234.59 147.38,-225.04"/>
<polygon fill="black" stroke="black" points="149.97,-227.41 154.89,-218.03 145.19,-222.3 149.97,-227.41"/>
</g>
<!-- jonaspammer.apache2 -->
<g id="node6" class="node">
<title>jonaspammer.apache2</title>
<ellipse fill="forestgreen" stroke="black" cx="542.14" cy="-128" rx="113.18" ry="18"/>
<text text-anchor="middle" x="542.14" y="-124.3" font-family="Open Sans" font-size="14.00">jonaspammer.apache2</text>
</g>
<!-- jonaspammer.apache2&#45;&gt;jonaspammer.bootstrap -->
<g id="edge7" class="edge">
<title>jonaspammer.apache2&#45;&gt;jonaspammer.bootstrap</title>
<path fill="none" stroke="black" d="M574.84,-110.76C594.54,-100.98 619.84,-88.43 641.02,-77.91"/>
<polygon fill="black" stroke="black" points="642.73,-80.97 650.13,-73.39 639.61,-74.7 642.73,-80.97"/>
</g>
<!-- jonaspammer.openssl -->
<g id="node7" class="node">
<title>jonaspammer.openssl</title>
<ellipse fill="limegreen" stroke="black" cx="2304.14" cy="-200" rx="109.38" ry="18"/>
<text text-anchor="middle" x="2304.14" y="-196.3" font-family="Open Sans" font-size="14.00">jonaspammer.openssl</text>
</g>
<!-- jonaspammer.openssl&#45;&gt;jonaspammer.bootstrap -->
<g id="edge8" class="edge">
<title>jonaspammer.openssl&#45;&gt;jonaspammer.bootstrap</title>
<path fill="none" stroke="black" d="M2229.07,-186.92C2214.53,-184.96 2199.39,-183.19 2185.14,-182 2105.12,-175.31 810.11,-185.41 740.14,-146 716.27,-132.55 700.85,-104.5 692.15,-83.47"/>
<polygon fill="black" stroke="black" points="695.39,-82.15 688.51,-74.09 688.86,-84.68 695.39,-82.15"/>
</g>
<!-- jonaspammer.openssl&#45;&gt;jonaspammer.pip -->
<g id="edge9" class="edge">
<title>jonaspammer.openssl&#45;&gt;jonaspammer.pip</title>
<path fill="none" stroke="black" d="M2226.44,-187.33C2212.7,-185.43 2198.51,-183.57 2185.14,-182 2011.82,-161.65 1967.14,-168.93 1794.14,-146 1786.11,-144.94 1777.73,-143.69 1769.4,-142.37"/>
<polygon fill="black" stroke="black" points="1769.72,-138.87 1759.29,-140.72 1768.6,-145.78 1769.72,-138.87"/>
</g>
<!-- jonaspammer.goaccess -->
<g id="node8" class="node">
<title>jonaspammer.goaccess</title>
<ellipse fill="forestgreen" stroke="black" cx="865.14" cy="-128" rx="116.18" ry="18"/>
<text text-anchor="middle" x="865.14" y="-124.3" font-family="Open Sans" font-size="14.00">jonaspammer.goaccess</text>
</g>
<!-- jonaspammer.goaccess&#45;&gt;jonaspammer.bootstrap -->
<g id="edge10" class="edge">
<title>jonaspammer.goaccess&#45;&gt;jonaspammer.bootstrap</title>
<path fill="none" stroke="black" d="M823.84,-111.12C797.18,-100.86 762.3,-87.44 733.94,-76.54"/>
<polygon fill="black" stroke="black" points="735.18,-73.27 724.59,-72.94 732.67,-79.8 735.18,-73.27"/>
</g>
<!-- jonaspammer.mediawiki -->
<g id="node9" class="node">
<title>jonaspammer.mediawiki</title>
<ellipse fill="mediumvioletred" stroke="black" cx="1247.14" cy="-272" rx="120.48" ry="18"/>
<text text-anchor="middle" x="1247.14" y="-268.3" font-family="Open Sans" font-size="14.00">jonaspammer.mediawiki</text>
</g>
<!-- jonaspammer.mediawiki&#45;&gt;jonaspammer.bootstrap -->
<g id="edge11" class="edge">
<title>jonaspammer.mediawiki&#45;&gt;jonaspammer.bootstrap</title>
<path fill="none" stroke="black" d="M1127.65,-269.79C950.23,-266.74 634.14,-255.97 599.14,-218 549.92,-164.59 663.22,-147.25 664.14,-146 677.33,-128.2 681.77,-103.19 683.09,-84.21"/>
<polygon fill="black" stroke="black" points="686.59,-84.25 683.54,-74.1 679.6,-83.94 686.59,-84.25"/>
</g>
<!-- jonaspammer.mediawiki&#45;&gt;jonaspammer.core_dependencies -->
<g id="edge12" class="edge">
<title>jonaspammer.mediawiki&#45;&gt;jonaspammer.core_dependencies</title>
<path fill="none" stroke="black" d="M1127.6,-270.02C986.53,-267.03 745.41,-256.13 542.14,-218 456.71,-201.97 360.89,-169.95 303.06,-149.01"/>
<polygon fill="black" stroke="black" points="304.01,-145.63 293.42,-145.49 301.61,-152.2 304.01,-145.63"/>
</g>
<!-- jonaspammer.mediawiki&#45;&gt;jonaspammer.pip -->
<g id="edge13" class="edge">
<title>jonaspammer.mediawiki&#45;&gt;jonaspammer.pip</title>
<path fill="none" stroke="black" d="M1366.82,-270C1658.72,-266.99 2386.09,-255.71 2422.14,-218 2519.2,-116.46 1933.69,-162.05 1794.14,-146 1785.82,-145.04 1777.13,-143.84 1768.51,-142.51"/>
<polygon fill="black" stroke="black" points="1768.89,-139.03 1758.46,-140.91 1767.78,-145.94 1768.89,-139.03"/>
</g>
<!-- jonaspammer.mediawiki&#45;&gt;jonaspammer.apache2 -->
<g id="edge14" class="edge">
<title>jonaspammer.mediawiki&#45;&gt;jonaspammer.apache2</title>
<path fill="none" stroke="black" d="M1128.42,-269.1C944.74,-265.09 608.32,-253 566.14,-218 548.29,-203.19 542.96,-176.62 541.69,-156.35"/>
<polygon fill="black" stroke="black" points="545.18,-156.02 541.36,-146.14 538.19,-156.25 545.18,-156.02"/>
</g>
<!-- jonaspammer.mediawiki&#45;&gt;jonaspammer.openssl -->
<g id="edge15" class="edge">
<title>jonaspammer.mediawiki&#45;&gt;jonaspammer.openssl</title>
<path fill="none" stroke="black" d="M1364.01,-267.61C1541.71,-261.72 1890.35,-247.33 2185.14,-218 2195.71,-216.95 2206.79,-215.64 2217.75,-214.22"/>
<polygon fill="black" stroke="black" points="2218.31,-217.68 2227.76,-212.9 2217.39,-210.74 2218.31,-217.68"/>
</g>
<!-- robertdebock.epel -->
<g id="node11" class="node">
<title>robertdebock.epel</title>
<ellipse fill="none" stroke="black" cx="701.14" cy="-200" rx="92.88" ry="18"/>
<text text-anchor="middle" x="701.14" y="-196.3" font-family="Open Sans" font-size="14.00">robertdebock.epel</text>
</g>
<!-- jonaspammer.mediawiki&#45;&gt;robertdebock.epel -->
<g id="edge16" class="edge">
<title>jonaspammer.mediawiki&#45;&gt;robertdebock.epel</title>
<path fill="none" stroke="black" d="M1152.13,-260.95C1062.12,-251.12 923.22,-235.16 803.14,-218 794.97,-216.83 786.44,-215.53 777.94,-214.19"/>
<polygon fill="black" stroke="black" points="778.44,-210.73 768.01,-212.6 777.33,-217.64 778.44,-210.73"/>
</g>
<!-- geerlingguy.repo&#45;remi -->
<g id="node12" class="node">
<title>geerlingguy.repo&#45;remi</title>
<ellipse fill="none" stroke="black" cx="922.14" cy="-200" rx="110.48" ry="18"/>
<text text-anchor="middle" x="922.14" y="-196.3" font-family="Open Sans" font-size="14.00">geerlingguy.repo&#45;remi</text>
</g>
<!-- jonaspammer.mediawiki&#45;&gt;geerlingguy.repo&#45;remi -->
<g id="edge17" class="edge">
<title>jonaspammer.mediawiki&#45;&gt;geerlingguy.repo&#45;remi</title>
<path fill="none" stroke="black" d="M1181.37,-256.83C1127.57,-245.25 1051.52,-228.87 995.7,-216.84"/>
<polygon fill="black" stroke="black" points="996.39,-213.41 985.88,-214.73 994.91,-220.25 996.39,-213.41"/>
</g>
<!-- geerlingguy.php -->
<g id="node13" class="node">
<title>geerlingguy.php</title>
<ellipse fill="none" stroke="black" cx="1134.14" cy="-200" rx="83.69" ry="18"/>
<text text-anchor="middle" x="1134.14" y="-196.3" font-family="Open Sans" font-size="14.00">geerlingguy.php</text>
</g>
<!-- jonaspammer.mediawiki&#45;&gt;geerlingguy.php -->
<g id="edge18" class="edge">
<title>jonaspammer.mediawiki&#45;&gt;geerlingguy.php</title>
<path fill="none" stroke="black" d="M1220.36,-254.41C1205.05,-244.93 1185.67,-232.92 1169.17,-222.7"/>
<polygon fill="black" stroke="black" points="1170.68,-219.52 1160.34,-217.23 1167,-225.47 1170.68,-219.52"/>
</g>
<!-- geerlingguy.php&#45;versions -->
<g id="node14" class="node">
<title>geerlingguy.php&#45;versions</title>
<ellipse fill="none" stroke="black" cx="1361.14" cy="-200" rx="124.58" ry="18"/>
<text text-anchor="middle" x="1361.14" y="-196.3" font-family="Open Sans" font-size="14.00">geerlingguy.php&#45;versions</text>
</g>
<!-- jonaspammer.mediawiki&#45;&gt;geerlingguy.php&#45;versions -->
<g id="edge19" class="edge">
<title>jonaspammer.mediawiki&#45;&gt;geerlingguy.php&#45;versions</title>
<path fill="none" stroke="black" d="M1274.16,-254.41C1289.38,-245.06 1308.59,-233.27 1325.08,-223.14"/>
<polygon fill="black" stroke="black" points="1327.23,-225.93 1333.92,-217.71 1323.57,-219.96 1327.23,-225.93"/>
</g>
<!-- geerlingguy.php&#45;mysql -->
<g id="node15" class="node">
<title>geerlingguy.php&#45;mysql</title>
<ellipse fill="none" stroke="black" cx="1618.14" cy="-200" rx="114.28" ry="18"/>
<text text-anchor="middle" x="1618.14" y="-196.3" font-family="Open Sans" font-size="14.00">geerlingguy.php&#45;mysql</text>
</g>
<!-- jonaspammer.mediawiki&#45;&gt;geerlingguy.php&#45;mysql -->
<g id="edge20" class="edge">
<title>jonaspammer.mediawiki&#45;&gt;geerlingguy.php&#45;mysql</title>
<path fill="none" stroke="black" d="M1318.67,-257.5C1381.46,-245.66 1472.69,-228.44 1537.94,-216.13"/>
<polygon fill="black" stroke="black" points="1538.6,-219.57 1547.77,-214.28 1537.3,-212.69 1538.6,-219.57"/>
</g>
<!-- geerlingguy.mysql -->
<g id="node16" class="node">
<title>geerlingguy.mysql</title>
<ellipse fill="none" stroke="black" cx="1844.14" cy="-200" rx="93.68" ry="18"/>
<text text-anchor="middle" x="1844.14" y="-196.3" font-family="Open Sans" font-size="14.00">geerlingguy.mysql</text>
</g>
<!-- jonaspammer.mediawiki&#45;&gt;geerlingguy.mysql -->
<g id="edge21" class="edge">
<title>jonaspammer.mediawiki&#45;&gt;geerlingguy.mysql</title>
<path fill="none" stroke="black" d="M1347.16,-261.95C1447.1,-252.51 1605.03,-236.52 1741.14,-218 1749.62,-216.85 1758.48,-215.54 1767.29,-214.18"/>
<polygon fill="black" stroke="black" points="1767.85,-217.63 1777.18,-212.62 1766.76,-210.72 1767.85,-217.63"/>
</g>
<!-- geerlingguy.composer -->
<g id="node17" class="node">
<title>geerlingguy.composer</title>
<ellipse fill="none" stroke="black" cx="2066.14" cy="-200" rx="110.48" ry="18"/>
<text text-anchor="middle" x="2066.14" y="-196.3" font-family="Open Sans" font-size="14.00">geerlingguy.composer</text>
</g>
<!-- jonaspammer.mediawiki&#45;&gt;geerlingguy.composer -->
<g id="edge22" class="edge">
<title>jonaspammer.mediawiki&#45;&gt;geerlingguy.composer</title>
<path fill="none" stroke="black" d="M1357.68,-264.9C1495.82,-256.76 1739.36,-240.68 1947.14,-218 1957.28,-216.89 1967.89,-215.59 1978.41,-214.2"/>
<polygon fill="black" stroke="black" points="1979.02,-217.65 1988.46,-212.85 1978.08,-210.72 1979.02,-217.65"/>
</g>
<!-- jonaspammer.gitlab -->
<g id="node10" class="node">
<title>jonaspammer.gitlab</title>
<ellipse fill="forestgreen" stroke="black" cx="1903.14" cy="-128" rx="100.18" ry="18"/>
<text text-anchor="middle" x="1903.14" y="-124.3" font-family="Open Sans" font-size="14.00">jonaspammer.gitlab</text>
</g>
<!-- jonaspammer.gitlab&#45;&gt;jonaspammer.bootstrap -->
<g id="edge23" class="edge">
<title>jonaspammer.gitlab&#45;&gt;jonaspammer.bootstrap</title>
<path fill="none" stroke="black" d="M1833.51,-115C1820.46,-113.08 1806.91,-111.3 1794.14,-110 1439.2,-73.96 1017.91,-62.33 810.92,-58.66"/>
<polygon fill="black" stroke="black" points="810.68,-55.15 800.62,-58.48 810.56,-62.15 810.68,-55.15"/>
</g>
</g>
</svg>
