<?xml version="1.0" encoding="UTF-8" standalone="no"?>
<!DOCTYPE svg PUBLIC "-//W3C//DTD SVG 1.1//EN"
 "http://www.w3.org/Graphics/SVG/1.1/DTD/svg11.dtd">
<!-- Generated by graphviz version 2.43.0 (0)
 -->
<!-- Title: hierarchy Pages: 1 -->
<svg width="1327pt" height="298pt"
 viewBox="0.00 0.00 1326.61 298.00" xmlns="http://www.w3.org/2000/svg" xmlns:xlink="http://www.w3.org/1999/xlink">
<g id="graph0" class="graph" transform="scale(1 1) rotate(0) translate(4 294)">
<title>hierarchy</title>
<polygon fill="white" stroke="transparent" points="-4,4 -4,-294 1322.61,-294 1322.61,4 -4,4"/>
<text text-anchor="middle" x="659.31" y="-22.8" font-family="Open Sans" font-size="14.00">requirements.yml dependency graph of all roles </text>
<text text-anchor="middle" x="659.31" y="-7.8" font-family="Open Sans" font-size="14.00"> Generated by JonasPammer/ansible&#45;roles</text>
<!-- jonaspammer.bootstrap -->
<g id="node1" class="node">
<title>jonaspammer.bootstrap</title>
<ellipse fill="green" stroke="black" cx="580.27" cy="-56" rx="118.08" ry="18"/>
<text text-anchor="middle" x="580.27" y="-52.3" font-family="Open Sans" font-size="14.00">jonaspammer.bootstrap</text>
</g>
<!-- jonaspammer.core_dependencies -->
<g id="node2" class="node">
<title>jonaspammer.core_dependencies</title>
<ellipse fill="yellow" stroke="black" cx="353.27" cy="-128" rx="161.37" ry="18"/>
<text text-anchor="middle" x="353.27" y="-124.3" font-family="Open Sans" font-size="14.00">jonaspammer.core_dependencies</text>
</g>
<!-- jonaspammer.core_dependencies&#45;&gt;jonaspammer.bootstrap -->
<g id="edge1" class="edge">
<title>jonaspammer.core_dependencies&#45;&gt;jonaspammer.bootstrap</title>
<path fill="none" stroke="black" d="M405.35,-110.94C439.69,-100.35 484.76,-86.45 520.55,-75.42"/>
<polygon fill="black" stroke="black" points="521.86,-78.68 530.39,-72.38 519.8,-71.99 521.86,-78.68"/>
</g>
<!-- jonaspammer.pip -->
<g id="node3" class="node">
<title>jonaspammer.pip</title>
<ellipse fill="yellow" stroke="black" cx="697.27" cy="-128" rx="89.08" ry="18"/>
<text text-anchor="middle" x="697.27" y="-124.3" font-family="Open Sans" font-size="14.00">jonaspammer.pip</text>
</g>
<!-- jonaspammer.pip&#45;&gt;jonaspammer.bootstrap -->
<g id="edge2" class="edge">
<title>jonaspammer.pip&#45;&gt;jonaspammer.bootstrap</title>
<path fill="none" stroke="black" d="M670.14,-110.76C654.27,-101.27 634.03,-89.17 616.78,-78.84"/>
<polygon fill="black" stroke="black" points="618.45,-75.76 608.07,-73.63 614.86,-81.77 618.45,-75.76"/>
</g>
<!-- jonaspammer.shellcheck -->
<g id="node4" class="node">
<title>jonaspammer.shellcheck</title>
<ellipse fill="orange" stroke="black" cx="762.27" cy="-200" rx="122.38" ry="18"/>
<text text-anchor="middle" x="762.27" y="-196.3" font-family="Open Sans" font-size="14.00">jonaspammer.shellcheck</text>
</g>
<!-- jonaspammer.shellcheck&#45;&gt;jonaspammer.bootstrap -->
<g id="edge3" class="edge">
<title>jonaspammer.shellcheck&#45;&gt;jonaspammer.bootstrap</title>
<path fill="none" stroke="black" d="M673.26,-187.64C646.1,-179.98 618.4,-167.22 599.27,-146 584.28,-129.36 580.07,-103.86 579.29,-84.42"/>
<polygon fill="black" stroke="black" points="582.79,-84.29 579.17,-74.33 575.79,-84.37 582.79,-84.29"/>
</g>
<!-- jonaspammer.shellcheck&#45;&gt;jonaspammer.core_dependencies -->
<g id="edge4" class="edge">
<title>jonaspammer.shellcheck&#45;&gt;jonaspammer.core_dependencies</title>
<path fill="none" stroke="black" d="M685.82,-185.92C618.36,-174.37 519.79,-157.5 447.48,-145.12"/>
<polygon fill="black" stroke="black" points="447.9,-141.64 437.45,-143.41 446.72,-148.54 447.9,-141.64"/>
</g>
<!-- jonaspammer.checkmk_server -->
<g id="node5" class="node">
<title>jonaspammer.checkmk_server</title>
<ellipse fill="orange" stroke="black" cx="164.27" cy="-200" rx="148.37" ry="18"/>
<text text-anchor="middle" x="164.27" y="-196.3" font-family="Open Sans" font-size="14.00">jonaspammer.checkmk_server</text>
</g>
<!-- jonaspammer.checkmk_server&#45;&gt;jonaspammer.bootstrap -->
<g id="edge5" class="edge">
<title>jonaspammer.checkmk_server&#45;&gt;jonaspammer.bootstrap</title>
<path fill="none" stroke="black" d="M162.59,-181.79C161.65,-161.5 163.56,-128.24 183.27,-110 221.58,-74.56 351.44,-62.46 452.33,-58.51"/>
<polygon fill="black" stroke="black" points="452.75,-62 462.61,-58.13 452.49,-55 452.75,-62"/>
</g>
<!-- jonaspammer.checkmk_server&#45;&gt;jonaspammer.core_dependencies -->
<g id="edge6" class="edge">
<title>jonaspammer.checkmk_server&#45;&gt;jonaspammer.core_dependencies</title>
<path fill="none" stroke="black" d="M208.11,-182.76C235.34,-172.68 270.55,-159.64 299.47,-148.93"/>
<polygon fill="black" stroke="black" points="300.86,-152.15 309.02,-145.39 298.43,-145.58 300.86,-152.15"/>
</g>
<!-- jonaspammer.checkmk_agent -->
<g id="node6" class="node">
<title>jonaspammer.checkmk_agent</title>
<ellipse fill="orange" stroke="black" cx="476.27" cy="-200" rx="145.67" ry="18"/>
<text text-anchor="middle" x="476.27" y="-196.3" font-family="Open Sans" font-size="14.00">jonaspammer.checkmk_agent</text>
</g>
<!-- jonaspammer.checkmk_agent&#45;&gt;jonaspammer.bootstrap -->
<g id="edge7" class="edge">
<title>jonaspammer.checkmk_agent&#45;&gt;jonaspammer.bootstrap</title>
<path fill="none" stroke="black" d="M492.65,-181.92C502.03,-171.81 513.78,-158.56 523.27,-146 538.64,-125.69 554.1,-101.24 565.03,-83.11"/>
<polygon fill="black" stroke="black" points="568.19,-84.64 570.31,-74.26 562.18,-81.05 568.19,-84.64"/>
</g>
<!-- jonaspammer.checkmk_agent&#45;&gt;jonaspammer.core_dependencies -->
<g id="edge8" class="edge">
<title>jonaspammer.checkmk_agent&#45;&gt;jonaspammer.core_dependencies</title>
<path fill="none" stroke="black" d="M446.81,-182.23C430.35,-172.86 409.64,-161.08 391.89,-150.98"/>
<polygon fill="black" stroke="black" points="393.34,-147.78 382.92,-145.87 389.88,-153.86 393.34,-147.78"/>
</g>
<!-- jonaspammer.motd -->
<g id="node7" class="node">
<title>jonaspammer.motd</title>
<ellipse fill="orange" stroke="black" cx="375.27" cy="-272" rx="98.28" ry="18"/>
<text text-anchor="middle" x="375.27" y="-268.3" font-family="Open Sans" font-size="14.00">jonaspammer.motd</text>
</g>
<!-- jonaspammer.motd&#45;&gt;jonaspammer.bootstrap -->
<g id="edge9" class="edge">
<title>jonaspammer.motd&#45;&gt;jonaspammer.bootstrap</title>
<path fill="none" stroke="black" d="M277.16,-270.81C180.21,-268.28 41.56,-257.58 7.27,-218 -3.2,-205.91 -1.33,-195.49 7.27,-182 55.43,-106.54 307.75,-75.77 461.06,-63.9"/>
<polygon fill="black" stroke="black" points="461.76,-67.35 471.47,-63.11 461.24,-60.37 461.76,-67.35"/>
</g>
<!-- jonaspammer.motd&#45;&gt;jonaspammer.shellcheck -->
<g id="edge10" class="edge">
<title>jonaspammer.motd&#45;&gt;jonaspammer.shellcheck</title>
<path fill="none" stroke="black" d="M442.68,-258.81C508.11,-246.97 607.62,-228.97 678.19,-216.21"/>
<polygon fill="black" stroke="black" points="679.17,-219.59 688.38,-214.36 677.92,-212.7 679.17,-219.59"/>
</g>
<!-- jonaspammer.apache2 -->
<g id="node8" class="node">
<title>jonaspammer.apache2</title>
<ellipse fill="yellow" stroke="black" cx="917.27" cy="-128" rx="113.18" ry="18"/>
<text text-anchor="middle" x="917.27" y="-124.3" font-family="Open Sans" font-size="14.00">jonaspammer.apache2</text>
</g>
<!-- jonaspammer.apache2&#45;&gt;jonaspammer.bootstrap -->
<g id="edge11" class="edge">
<title>jonaspammer.apache2&#45;&gt;jonaspammer.bootstrap</title>
<path fill="none" stroke="black" d="M851.5,-113.34C795.73,-101.75 715.68,-85.13 657,-72.94"/>
<polygon fill="black" stroke="black" points="657.54,-69.47 647.04,-70.87 656.11,-76.33 657.54,-69.47"/>
</g>
<!-- jonaspammer.openssl -->
<g id="node9" class="node">
<title>jonaspammer.openssl</title>
<ellipse fill="orange" stroke="black" cx="1035.27" cy="-200" rx="109.38" ry="18"/>
<text text-anchor="middle" x="1035.27" y="-196.3" font-family="Open Sans" font-size="14.00">jonaspammer.openssl</text>
</g>
<!-- jonaspammer.openssl&#45;&gt;jonaspammer.bootstrap -->
<g id="edge12" class="edge">
<title>jonaspammer.openssl&#45;&gt;jonaspammer.bootstrap</title>
<path fill="none" stroke="black" d="M1042.37,-181.91C1049.35,-162.05 1056.66,-129.51 1039.27,-110 1017.09,-85.11 830.15,-70.2 701.79,-62.8"/>
<polygon fill="black" stroke="black" points="701.68,-59.29 691.49,-62.21 701.28,-66.27 701.68,-59.29"/>
</g>
<!-- jonaspammer.openssl&#45;&gt;jonaspammer.pip -->
<g id="edge13" class="edge">
<title>jonaspammer.openssl&#45;&gt;jonaspammer.pip</title>
<path fill="none" stroke="black" d="M970.1,-185.5C911.89,-173.45 826.85,-155.84 767.22,-143.49"/>
<polygon fill="black" stroke="black" points="767.64,-140 757.14,-141.4 766.22,-146.85 767.64,-140"/>
</g>
<!-- jonaspammer.goaccess -->
<g id="node10" class="node">
<title>jonaspammer.goaccess</title>
<ellipse fill="yellow" stroke="black" cx="1202.27" cy="-128" rx="116.18" ry="18"/>
<text text-anchor="middle" x="1202.27" y="-124.3" font-family="Open Sans" font-size="14.00">jonaspammer.goaccess</text>
</g>
<!-- jonaspammer.goaccess&#45;&gt;jonaspammer.bootstrap -->
<g id="edge14" class="edge">
<title>jonaspammer.goaccess&#45;&gt;jonaspammer.bootstrap</title>
<path fill="none" stroke="black" d="M1117.34,-115.61C1102.34,-113.68 1086.85,-111.74 1072.27,-110 939.28,-94.14 785.81,-77.94 686.12,-67.7"/>
<polygon fill="black" stroke="black" points="686.35,-64.21 676.05,-66.67 685.64,-71.17 686.35,-64.21"/>
</g>
<!-- jonaspammer.mediawiki -->
<g id="node11" class="node">
<title>jonaspammer.mediawiki</title>
<ellipse fill="green" stroke="black" cx="611.27" cy="-272" rx="120.48" ry="18"/>
<text text-anchor="middle" x="611.27" y="-268.3" font-family="Open Sans" font-size="14.00">jonaspammer.mediawiki</text>
</g>
</g>
</svg>
