<?xml version="1.0" encoding="UTF-8" standalone="no"?>
<!DOCTYPE svg PUBLIC "-//W3C//DTD SVG 1.1//EN"
 "http://www.w3.org/Graphics/SVG/1.1/DTD/svg11.dtd">
<!-- Generated by graphviz version 2.43.0 (0)
 -->
<!-- Title: hierarchy Pages: 1 -->
<svg width="481pt" height="226pt"
 viewBox="0.00 0.00 481.00 226.00" xmlns="http://www.w3.org/2000/svg" xmlns:xlink="http://www.w3.org/1999/xlink">
<g id="graph0" class="graph" transform="scale(1 1) rotate(0) translate(4 222)">
<title>hierarchy</title>
<polygon fill="white" stroke="transparent" points="-4,4 -4,-222 477,-222 477,4 -4,4"/>
<text text-anchor="middle" x="236.5" y="-22.8" font-family="Open Sans" font-size="14.00">requirements.yml dependency graph of jonaspammer.shellcheck </text>
<text text-anchor="middle" x="236.5" y="-7.8" font-family="Open Sans" font-size="14.00"> Generated by JonasPammer/ansible&#45;roles</text>
<!-- jonaspammer.shellcheck -->
<g id="node1" class="node">
<title>jonaspammer.shellcheck</title>
<ellipse fill="orange" stroke="black" stroke-width="3" cx="169.5" cy="-200" rx="122.38" ry="18"/>
<text text-anchor="middle" x="169.5" y="-196.3" font-family="Open Sans" font-size="14.00">jonaspammer.shellcheck</text>
</g>
<!-- jonaspammer.bootstrap -->
<g id="node2" class="node">
<title>jonaspammer.bootstrap</title>
<ellipse fill="green" stroke="black" cx="169.5" cy="-56" rx="118.08" ry="18"/>
<text text-anchor="middle" x="169.5" y="-52.3" font-family="Open Sans" font-size="14.00">jonaspammer.bootstrap</text>
</g>
<!-- jonaspammer.shellcheck&#45;&gt;jonaspammer.bootstrap -->
<g id="edge1" class="edge">
<title>jonaspammer.shellcheck&#45;&gt;jonaspammer.bootstrap</title>
<path fill="none" stroke="black" d="M132.8,-182.61C118.09,-173.98 102.71,-161.86 94.5,-146 87.14,-131.79 87.14,-124.21 94.5,-110 101.17,-97.13 112.56,-86.71 124.48,-78.63"/>
<polygon fill="black" stroke="black" points="126.59,-81.44 133.2,-73.16 122.87,-75.51 126.59,-81.44"/>
</g>
<!-- jonaspammer.core_dependencies -->
<g id="node3" class="node">
<title>jonaspammer.core_dependencies</title>
<ellipse fill="yellow" stroke="black" cx="264.5" cy="-128" rx="161.37" ry="18"/>
<text text-anchor="middle" x="264.5" y="-124.3" font-family="Open Sans" font-size="14.00">jonaspammer.core_dependencies</text>
</g>
<!-- jonaspammer.shellcheck&#45;&gt;jonaspammer.core_dependencies -->
<g id="edge2" class="edge">
<title>jonaspammer.shellcheck&#45;&gt;jonaspammer.core_dependencies</title>
<path fill="none" stroke="black" d="M192.5,-182.05C204.66,-173.09 219.77,-161.96 233.01,-152.2"/>
<polygon fill="black" stroke="black" points="235.41,-154.78 241.39,-146.03 231.26,-149.15 235.41,-154.78"/>
</g>
<!-- jonaspammer.core_dependencies&#45;&gt;jonaspammer.bootstrap -->
<g id="edge3" class="edge">
<title>jonaspammer.core_dependencies&#45;&gt;jonaspammer.bootstrap</title>
<path fill="none" stroke="black" d="M241.5,-110.05C229.25,-101.03 214,-89.79 200.7,-79.99"/>
<polygon fill="black" stroke="black" points="202.41,-76.9 192.29,-73.79 198.26,-82.54 202.41,-76.9"/>
</g>
</g>
</svg>
