<?xml version="1.0" encoding="UTF-8" standalone="no"?>
<!DOCTYPE svg PUBLIC "-//W3C//DTD SVG 1.1//EN"
 "http://www.w3.org/Graphics/SVG/1.1/DTD/svg11.dtd">
<!-- Generated by graphviz version 2.43.0 (0)
 -->
<!-- Title: hierarchy Pages: 1 -->
<svg width="1883pt" height="298pt"
 viewBox="0.00 0.00 1882.63 298.00" xmlns="http://www.w3.org/2000/svg" xmlns:xlink="http://www.w3.org/1999/xlink">
<g id="graph0" class="graph" transform="scale(1 1) rotate(0) translate(4 294)">
<title>hierarchy</title>
<polygon fill="white" stroke="transparent" points="-4,4 -4,-294 1878.63,-294 1878.63,4 -4,4"/>
<text text-anchor="middle" x="937.31" y="-22.8" font-family="Open Sans" font-size="14.00">requirements.yml dependency graph of all roles </text>
<text text-anchor="middle" x="937.31" y="-7.8" font-family="Open Sans" font-size="14.00"> Generated by JonasPammer/ansible&#45;roles</text>
<!-- jonaspammer.bootstrap -->
<g id="node1" class="node">
<title>jonaspammer.bootstrap</title>
<ellipse fill="green" stroke="black" cx="965.19" cy="-56" rx="118.08" ry="18"/>
<text text-anchor="middle" x="965.19" y="-52.3" font-family="Open Sans" font-size="14.00">jonaspammer.bootstrap</text>
</g>
<!-- jonaspammer.core_dependencies -->
<g id="node2" class="node">
<title>jonaspammer.core_dependencies</title>
<ellipse fill="yellow" stroke="black" cx="660.19" cy="-128" rx="161.37" ry="18"/>
<text text-anchor="middle" x="660.19" y="-124.3" font-family="Open Sans" font-size="14.00">jonaspammer.core_dependencies</text>
</g>
<!-- jonaspammer.core_dependencies&#45;&gt;jonaspammer.bootstrap -->
<g id="edge1" class="edge">
<title>jonaspammer.core_dependencies&#45;&gt;jonaspammer.bootstrap</title>
<path fill="none" stroke="black" d="M727.5,-111.55C776.51,-100.3 842.8,-85.09 892.93,-73.58"/>
<polygon fill="black" stroke="black" points="893.76,-76.98 902.73,-71.34 892.2,-70.16 893.76,-76.98"/>
</g>
<!-- jonaspammer.pip -->
<g id="node3" class="node">
<title>jonaspammer.pip</title>
<ellipse fill="yellow" stroke="black" cx="1543.19" cy="-128" rx="89.08" ry="18"/>
<text text-anchor="middle" x="1543.19" y="-124.3" font-family="Open Sans" font-size="14.00">jonaspammer.pip</text>
</g>
<!-- jonaspammer.pip&#45;&gt;jonaspammer.bootstrap -->
<g id="edge2" class="edge">
<title>jonaspammer.pip&#45;&gt;jonaspammer.bootstrap</title>
<path fill="none" stroke="black" d="M1477.88,-115.69C1465.38,-113.68 1452.4,-111.69 1440.19,-110 1314.16,-92.58 1168.71,-77.02 1072.31,-67.33"/>
<polygon fill="black" stroke="black" points="1072.56,-63.84 1062.26,-66.33 1071.86,-70.81 1072.56,-63.84"/>
</g>
<!-- jonaspammer.shellcheck -->
<g id="node4" class="node">
<title>jonaspammer.shellcheck</title>
<ellipse fill="orange" stroke="black" cx="746.19" cy="-200" rx="122.38" ry="18"/>
<text text-anchor="middle" x="746.19" y="-196.3" font-family="Open Sans" font-size="14.00">jonaspammer.shellcheck</text>
</g>
<!-- jonaspammer.shellcheck&#45;&gt;jonaspammer.bootstrap -->
<g id="edge3" class="edge">
<title>jonaspammer.shellcheck&#45;&gt;jonaspammer.bootstrap</title>
<path fill="none" stroke="black" d="M773.7,-182.23C790.23,-172.01 811.6,-158.54 830.19,-146 852.89,-130.69 857.45,-125.25 880.19,-110 895.88,-99.47 913.57,-88.33 928.73,-79"/>
<polygon fill="black" stroke="black" points="930.63,-81.94 937.33,-73.73 926.97,-75.97 930.63,-81.94"/>
</g>
<!-- jonaspammer.shellcheck&#45;&gt;jonaspammer.core_dependencies -->
<g id="edge4" class="edge">
<title>jonaspammer.shellcheck&#45;&gt;jonaspammer.core_dependencies</title>
<path fill="none" stroke="black" d="M725.37,-182.05C714.46,-173.18 700.94,-162.17 689.04,-152.48"/>
<polygon fill="black" stroke="black" points="691.08,-149.63 681.11,-146.03 686.66,-155.06 691.08,-149.63"/>
</g>
<!-- jonaspammer.checkmk_server -->
<g id="node5" class="node">
<title>jonaspammer.checkmk_server</title>
<ellipse fill="orange" stroke="black" cx="148.19" cy="-200" rx="148.37" ry="18"/>
<text text-anchor="middle" x="148.19" y="-196.3" font-family="Open Sans" font-size="14.00">jonaspammer.checkmk_server</text>
</g>
<!-- jonaspammer.checkmk_server&#45;&gt;jonaspammer.bootstrap -->
<g id="edge5" class="edge">
<title>jonaspammer.checkmk_server&#45;&gt;jonaspammer.bootstrap</title>
<path fill="none" stroke="black" d="M195.76,-182.87C257.09,-162.72 367.36,-128.62 464.19,-110 593.65,-85.11 744.34,-71.15 846.39,-63.89"/>
<polygon fill="black" stroke="black" points="846.69,-67.37 856.42,-63.18 846.2,-60.39 846.69,-67.37"/>
</g>
<!-- jonaspammer.checkmk_server&#45;&gt;jonaspammer.core_dependencies -->
<g id="edge6" class="edge">
<title>jonaspammer.checkmk_server&#45;&gt;jonaspammer.core_dependencies</title>
<path fill="none" stroke="black" d="M242.69,-186.08C330.28,-174.1 460.5,-156.3 552.17,-143.77"/>
<polygon fill="black" stroke="black" points="552.88,-147.2 562.31,-142.38 551.93,-140.27 552.88,-147.2"/>
</g>
<!-- jonaspammer.checkmk_agent -->
<g id="node6" class="node">
<title>jonaspammer.checkmk_agent</title>
<ellipse fill="orange" stroke="black" cx="460.19" cy="-200" rx="145.67" ry="18"/>
<text text-anchor="middle" x="460.19" y="-196.3" font-family="Open Sans" font-size="14.00">jonaspammer.checkmk_agent</text>
</g>
<!-- jonaspammer.checkmk_agent&#45;&gt;jonaspammer.bootstrap -->
<g id="edge7" class="edge">
<title>jonaspammer.checkmk_agent&#45;&gt;jonaspammer.bootstrap</title>
<path fill="none" stroke="black" d="M460.73,-181.87C462.39,-161.33 468.48,-127.5 490.19,-110 517.38,-88.08 714.26,-72.07 845.86,-63.68"/>
<polygon fill="black" stroke="black" points="846.25,-67.16 856.01,-63.03 845.81,-60.17 846.25,-67.16"/>
</g>
<!-- jonaspammer.checkmk_agent&#45;&gt;jonaspammer.core_dependencies -->
<g id="edge8" class="edge">
<title>jonaspammer.checkmk_agent&#45;&gt;jonaspammer.core_dependencies</title>
<path fill="none" stroke="black" d="M506.32,-182.85C535.36,-172.69 573.05,-159.5 603.85,-148.72"/>
<polygon fill="black" stroke="black" points="605.31,-151.92 613.59,-145.31 603,-145.31 605.31,-151.92"/>
</g>
<!-- jonaspammer.openssh -->
<g id="node7" class="node">
<title>jonaspammer.openssh</title>
<ellipse fill="orange" stroke="black" cx="1762.19" cy="-128" rx="112.38" ry="18"/>
<text text-anchor="middle" x="1762.19" y="-124.3" font-family="Open Sans" font-size="14.00">jonaspammer.openssh</text>
</g>
<!-- jonaspammer.openssh&#45;&gt;jonaspammer.bootstrap -->
<g id="edge9" class="edge">
<title>jonaspammer.openssh&#45;&gt;jonaspammer.bootstrap</title>
<path fill="none" stroke="black" d="M1683.19,-115.19C1669.22,-113.3 1654.79,-111.49 1641.19,-110 1446.16,-88.67 1218.56,-72.65 1083.46,-64.07"/>
<polygon fill="black" stroke="black" points="1083.29,-60.55 1073.09,-63.41 1082.85,-67.54 1083.29,-60.55"/>
</g>
<!-- robertdebock.selinux -->
<g id="node13" class="node">
<title>robertdebock.selinux</title>
<ellipse fill="none" stroke="black" cx="1762.19" cy="-56" rx="105.88" ry="18"/>
<text text-anchor="middle" x="1762.19" y="-52.3" font-family="Open Sans" font-size="14.00">robertdebock.selinux</text>
</g>
<!-- jonaspammer.openssh&#45;&gt;robertdebock.selinux -->
<g id="edge10" class="edge">
<title>jonaspammer.openssh&#45;&gt;robertdebock.selinux</title>
<path fill="none" stroke="black" d="M1762.19,-109.7C1762.19,-101.98 1762.19,-92.71 1762.19,-84.11"/>
<polygon fill="black" stroke="black" points="1765.69,-84.1 1762.19,-74.1 1758.69,-84.1 1765.69,-84.1"/>
</g>
<!-- jonaspammer.motd -->
<g id="node8" class="node">
<title>jonaspammer.motd</title>
<ellipse fill="orange" stroke="black" cx="821.19" cy="-272" rx="98.28" ry="18"/>
<text text-anchor="middle" x="821.19" y="-268.3" font-family="Open Sans" font-size="14.00">jonaspammer.motd</text>
</g>
<!-- jonaspammer.motd&#45;&gt;jonaspammer.bootstrap -->
<g id="edge11" class="edge">
<title>jonaspammer.motd&#45;&gt;jonaspammer.bootstrap</title>
<path fill="none" stroke="black" d="M843.38,-254.42C854.85,-244.87 868.27,-232 877.19,-218 904.38,-175.33 886.79,-153.17 913.19,-110 919.64,-99.45 928.55,-89.37 937.18,-80.88"/>
<polygon fill="black" stroke="black" points="939.75,-83.27 944.62,-73.86 934.94,-78.18 939.75,-83.27"/>
</g>
<!-- jonaspammer.motd&#45;&gt;jonaspammer.shellcheck -->
<g id="edge12" class="edge">
<title>jonaspammer.motd&#45;&gt;jonaspammer.shellcheck</title>
<path fill="none" stroke="black" d="M803.03,-254.05C793.7,-245.35 782.18,-234.59 771.95,-225.04"/>
<polygon fill="black" stroke="black" points="774.13,-222.3 764.44,-218.03 769.36,-227.41 774.13,-222.3"/>
</g>
<!-- jonaspammer.apache2 -->
<g id="node9" class="node">
<title>jonaspammer.apache2</title>
<ellipse fill="yellow" stroke="black" cx="1035.19" cy="-128" rx="113.18" ry="18"/>
<text text-anchor="middle" x="1035.19" y="-124.3" font-family="Open Sans" font-size="14.00">jonaspammer.apache2</text>
</g>
<!-- jonaspammer.apache2&#45;&gt;jonaspammer.bootstrap -->
<g id="edge13" class="edge">
<title>jonaspammer.apache2&#45;&gt;jonaspammer.bootstrap</title>
<path fill="none" stroke="black" d="M1018.24,-110.05C1009.69,-101.5 999.15,-90.96 989.72,-81.54"/>
<polygon fill="black" stroke="black" points="992.01,-78.87 982.46,-74.28 987.06,-83.82 992.01,-78.87"/>
</g>
<!-- jonaspammer.openssl -->
<g id="node10" class="node">
<title>jonaspammer.openssl</title>
<ellipse fill="orange" stroke="black" cx="1484.19" cy="-200" rx="109.38" ry="18"/>
<text text-anchor="middle" x="1484.19" y="-196.3" font-family="Open Sans" font-size="14.00">jonaspammer.openssl</text>
</g>
<!-- jonaspammer.openssl&#45;&gt;jonaspammer.bootstrap -->
<g id="edge14" class="edge">
<title>jonaspammer.openssl&#45;&gt;jonaspammer.bootstrap</title>
<path fill="none" stroke="black" d="M1471.86,-182.02C1454.55,-158.67 1423.33,-118.58 1407.19,-110 1353.66,-81.56 1199.8,-68.07 1088.64,-61.89"/>
<polygon fill="black" stroke="black" points="1088.54,-58.38 1078.36,-61.33 1088.16,-65.37 1088.54,-58.38"/>
</g>
<!-- jonaspammer.openssl&#45;&gt;jonaspammer.pip -->
<g id="edge15" class="edge">
<title>jonaspammer.openssl&#45;&gt;jonaspammer.pip</title>
<path fill="none" stroke="black" d="M1498.47,-182.05C1505.64,-173.54 1514.47,-163.07 1522.38,-153.68"/>
<polygon fill="black" stroke="black" points="1525.27,-155.69 1529.04,-145.79 1519.92,-151.18 1525.27,-155.69"/>
</g>
<!-- jonaspammer.goaccess -->
<g id="node11" class="node">
<title>jonaspammer.goaccess</title>
<ellipse fill="yellow" stroke="black" cx="1282.19" cy="-128" rx="116.18" ry="18"/>
<text text-anchor="middle" x="1282.19" y="-124.3" font-family="Open Sans" font-size="14.00">jonaspammer.goaccess</text>
</g>
<!-- jonaspammer.goaccess&#45;&gt;jonaspammer.bootstrap -->
<g id="edge16" class="edge">
<title>jonaspammer.goaccess&#45;&gt;jonaspammer.bootstrap</title>
<path fill="none" stroke="black" d="M1218.42,-112.92C1166.68,-101.49 1093.66,-85.37 1039.32,-73.37"/>
<polygon fill="black" stroke="black" points="1039.92,-69.92 1029.4,-71.18 1038.41,-76.75 1039.92,-69.92"/>
</g>
<!-- jonaspammer.mediawiki -->
<g id="node12" class="node">
<title>jonaspammer.mediawiki</title>
<ellipse fill="green" stroke="black" cx="1057.19" cy="-272" rx="120.48" ry="18"/>
<text text-anchor="middle" x="1057.19" y="-268.3" font-family="Open Sans" font-size="14.00">jonaspammer.mediawiki</text>
</g>
</g>
</svg>
