<?xml version="1.0" encoding="UTF-8" standalone="no"?>
<!DOCTYPE svg PUBLIC "-//W3C//DTD SVG 1.1//EN"
 "http://www.w3.org/Graphics/SVG/1.1/DTD/svg11.dtd">
<!-- Generated by graphviz version 2.43.0 (0)
 -->
<!-- Title: hierarchy Pages: 1 -->
<svg width="461pt" height="226pt"
 viewBox="0.00 0.00 461.00 226.00" xmlns="http://www.w3.org/2000/svg" xmlns:xlink="http://www.w3.org/1999/xlink">
<g id="graph0" class="graph" transform="scale(1 1) rotate(0) translate(4 222)">
<title>hierarchy</title>
<polygon fill="white" stroke="transparent" points="-4,4 -4,-222 457,-222 457,4 -4,4"/>
<text text-anchor="middle" x="226.5" y="-22.8" font-family="Open Sans" font-size="14.00">requirements.yml dependency graph of jonaspammer.openssl </text>
<text text-anchor="middle" x="226.5" y="-7.8" font-family="Open Sans" font-size="14.00"> Generated by JonasPammer/ansible&#45;roles</text>
<!-- jonaspammer.openssl -->
<g id="node1" class="node">
<title>jonaspammer.openssl</title>
<ellipse fill="limegreen" stroke="black" stroke-width="3" cx="240.88" cy="-200" rx="109.38" ry="18"/>
<text text-anchor="middle" x="240.88" y="-196.3" font-family="Open Sans" font-size="14.00">jonaspammer.openssl</text>
</g>
<!-- jonaspammer.pip -->
<g id="node2" class="node">
<title>jonaspammer.pip</title>
<ellipse fill="forestgreen" stroke="black" cx="182.88" cy="-128" rx="89.08" ry="18"/>
<text text-anchor="middle" x="182.88" y="-124.3" font-family="Open Sans" font-size="14.00">jonaspammer.pip</text>
</g>
<!-- jonaspammer.openssl&#45;&gt;jonaspammer.pip -->
<g id="edge1" class="edge">
<title>jonaspammer.openssl&#45;&gt;jonaspammer.pip</title>
<path fill="none" stroke="black" d="M226.84,-182.05C219.78,-173.54 211.1,-163.07 203.33,-153.68"/>
<polygon fill="black" stroke="black" points="205.86,-151.26 196.79,-145.79 200.47,-155.72 205.86,-151.26"/>
</g>
<!-- jonaspammer.bootstrap -->
<g id="node3" class="node">
<title>jonaspammer.bootstrap</title>
<ellipse fill="darkgreen" stroke="black" cx="240.88" cy="-56" rx="118.08" ry="18"/>
<text text-anchor="middle" x="240.88" y="-52.3" font-family="Open Sans" font-size="14.00">jonaspammer.bootstrap</text>
</g>
<!-- jonaspammer.openssl&#45;&gt;jonaspammer.bootstrap -->
<g id="edge2" class="edge">
<title>jonaspammer.openssl&#45;&gt;jonaspammer.bootstrap</title>
<path fill="none" stroke="black" d="M258.19,-182.07C266.81,-172.41 276.34,-159.55 280.88,-146 285.96,-130.83 285.96,-125.17 280.88,-110 277.47,-99.83 271.26,-90.06 264.73,-81.73"/>
<polygon fill="black" stroke="black" points="267.3,-79.35 258.19,-73.93 261.93,-83.84 267.3,-79.35"/>
</g>
<!-- jonaspammer.pip&#45;&gt;jonaspammer.bootstrap -->
<g id="edge3" class="edge">
<title>jonaspammer.pip&#45;&gt;jonaspammer.bootstrap</title>
<path fill="none" stroke="black" d="M196.92,-110.05C203.87,-101.67 212.39,-91.38 220.08,-82.1"/>
<polygon fill="black" stroke="black" points="222.88,-84.21 226.56,-74.28 217.49,-79.74 222.88,-84.21"/>
</g>
</g>
</svg>
