<?xml version="1.0" encoding="UTF-8" standalone="no"?>
<!DOCTYPE svg PUBLIC "-//W3C//DTD SVG 1.1//EN"
 "http://www.w3.org/Graphics/SVG/1.1/DTD/svg11.dtd">
<!-- Generated by graphviz version 2.43.0 (0)
 -->
<!-- Title: hierarchy Pages: 1 -->
<svg width="1382pt" height="298pt"
 viewBox="0.00 0.00 1381.87 298.00" xmlns="http://www.w3.org/2000/svg" xmlns:xlink="http://www.w3.org/1999/xlink">
<g id="graph0" class="graph" transform="scale(1 1) rotate(0) translate(4 294)">
<title>hierarchy</title>
<polygon fill="white" stroke="transparent" points="-4,4 -4,-294 1377.87,-294 1377.87,4 -4,4"/>
<text text-anchor="middle" x="686.93" y="-22.8" font-family="Open Sans" font-size="14.00">requirements.yml dependency graph of all roles </text>
<text text-anchor="middle" x="686.93" y="-7.8" font-family="Open Sans" font-size="14.00"> Generated by JonasPammer/ansible&#45;roles</text>
<!-- jonaspammer.bootstrap -->
<g id="node1" class="node">
<title>jonaspammer.bootstrap</title>
<ellipse fill="green" stroke="black" cx="546.63" cy="-56" rx="118.08" ry="18"/>
<text text-anchor="middle" x="546.63" y="-52.3" font-family="Open Sans" font-size="14.00">jonaspammer.bootstrap</text>
</g>
<!-- jonaspammer.core_dependencies -->
<g id="node2" class="node">
<title>jonaspammer.core_dependencies</title>
<ellipse fill="yellow" stroke="black" cx="319.63" cy="-128" rx="161.37" ry="18"/>
<text text-anchor="middle" x="319.63" y="-124.3" font-family="Open Sans" font-size="14.00">jonaspammer.core_dependencies</text>
</g>
<!-- jonaspammer.core_dependencies&#45;&gt;jonaspammer.bootstrap -->
<g id="edge1" class="edge">
<title>jonaspammer.core_dependencies&#45;&gt;jonaspammer.bootstrap</title>
<path fill="none" stroke="black" d="M371.71,-110.94C406.04,-100.35 451.12,-86.45 486.91,-75.42"/>
<polygon fill="black" stroke="black" points="488.22,-78.68 496.74,-72.38 486.15,-71.99 488.22,-78.68"/>
</g>
<!-- jonaspammer.pip -->
<g id="node3" class="node">
<title>jonaspammer.pip</title>
<ellipse fill="yellow" stroke="black" cx="907.63" cy="-128" rx="89.08" ry="18"/>
<text text-anchor="middle" x="907.63" y="-124.3" font-family="Open Sans" font-size="14.00">jonaspammer.pip</text>
</g>
<!-- jonaspammer.pip&#45;&gt;jonaspammer.bootstrap -->
<g id="edge2" class="edge">
<title>jonaspammer.pip&#45;&gt;jonaspammer.bootstrap</title>
<path fill="none" stroke="black" d="M845.57,-114.97C784.98,-103.22 692.5,-85.29 626.46,-72.48"/>
<polygon fill="black" stroke="black" points="626.99,-69.02 616.51,-70.55 625.66,-75.89 626.99,-69.02"/>
</g>
<!-- jonaspammer.shellcheck -->
<g id="node4" class="node">
<title>jonaspammer.shellcheck</title>
<ellipse fill="orange" stroke="black" cx="508.63" cy="-200" rx="122.38" ry="18"/>
<text text-anchor="middle" x="508.63" y="-196.3" font-family="Open Sans" font-size="14.00">jonaspammer.shellcheck</text>
</g>
<!-- jonaspammer.shellcheck&#45;&gt;jonaspammer.bootstrap -->
<g id="edge3" class="edge">
<title>jonaspammer.shellcheck&#45;&gt;jonaspammer.bootstrap</title>
<path fill="none" stroke="black" d="M513.21,-181.87C519.72,-157.56 531.69,-112.82 539.4,-84.01"/>
<polygon fill="black" stroke="black" points="542.82,-84.75 542.03,-74.19 536.06,-82.94 542.82,-84.75"/>
</g>
<!-- jonaspammer.shellcheck&#45;&gt;jonaspammer.core_dependencies -->
<g id="edge4" class="edge">
<title>jonaspammer.shellcheck&#45;&gt;jonaspammer.core_dependencies</title>
<path fill="none" stroke="black" d="M465.74,-183.12C438.44,-173 402.85,-159.82 373.63,-149"/>
<polygon fill="black" stroke="black" points="374.58,-145.62 363.99,-145.43 372.15,-152.18 374.58,-145.62"/>
</g>
<!-- jonaspammer.checkmk_server -->
<g id="node5" class="node">
<title>jonaspammer.checkmk_server</title>
<ellipse fill="orange" stroke="black" cx="163.63" cy="-200" rx="148.37" ry="18"/>
<text text-anchor="middle" x="163.63" y="-196.3" font-family="Open Sans" font-size="14.00">jonaspammer.checkmk_server</text>
</g>
<!-- jonaspammer.checkmk_server&#45;&gt;jonaspammer.bootstrap -->
<g id="edge5" class="edge">
<title>jonaspammer.checkmk_server&#45;&gt;jonaspammer.bootstrap</title>
<path fill="none" stroke="black" d="M153.67,-181.69C143.76,-161.92 132.32,-129.77 149.63,-110 168.03,-88.98 319.83,-73.46 430.25,-64.82"/>
<polygon fill="black" stroke="black" points="430.77,-68.29 440.47,-64.03 430.23,-61.31 430.77,-68.29"/>
</g>
<!-- jonaspammer.checkmk_server&#45;&gt;jonaspammer.core_dependencies -->
<g id="edge6" class="edge">
<title>jonaspammer.checkmk_server&#45;&gt;jonaspammer.core_dependencies</title>
<path fill="none" stroke="black" d="M200.6,-182.41C222.37,-172.64 250.12,-160.19 273.34,-149.77"/>
<polygon fill="black" stroke="black" points="274.96,-152.88 282.65,-145.59 272.1,-146.49 274.96,-152.88"/>
</g>
<!-- jonaspammer.checkmk_agent -->
<g id="node6" class="node">
<title>jonaspammer.checkmk_agent</title>
<ellipse fill="red" stroke="black" cx="163.63" cy="-272" rx="145.67" ry="18"/>
<text text-anchor="middle" x="163.63" y="-268.3" font-family="Open Sans" font-size="14.00">jonaspammer.checkmk_agent</text>
</g>
<!-- jonaspammer.checkmk_agent&#45;&gt;jonaspammer.bootstrap -->
<g id="edge7" class="edge">
<title>jonaspammer.checkmk_agent&#45;&gt;jonaspammer.bootstrap</title>
<path fill="none" stroke="black" d="M66.96,-258.51C43.51,-250.67 21.06,-238.1 6.63,-218 -2.7,-205 -1.52,-195.77 6.63,-182 40.45,-124.82 74.47,-130.63 137.63,-110 229.92,-79.86 339.18,-66.78 421.55,-61.14"/>
<polygon fill="black" stroke="black" points="421.97,-64.62 431.72,-60.47 421.51,-57.63 421.97,-64.62"/>
</g>
<!-- jonaspammer.checkmk_agent&#45;&gt;jonaspammer.core_dependencies -->
<g id="edge8" class="edge">
<title>jonaspammer.checkmk_agent&#45;&gt;jonaspammer.core_dependencies</title>
<path fill="none" stroke="black" d="M260.29,-258.51C283.75,-250.67 306.2,-238.1 320.63,-218 333.32,-200.31 331.74,-175.13 327.75,-156.07"/>
<polygon fill="black" stroke="black" points="331.12,-155.09 325.36,-146.19 324.31,-156.73 331.12,-155.09"/>
</g>
<!-- jonaspammer.checkmk_agent&#45;&gt;jonaspammer.checkmk_server -->
<g id="edge9" class="edge">
<title>jonaspammer.checkmk_agent&#45;&gt;jonaspammer.checkmk_server</title>
<path fill="none" stroke="black" d="M163.63,-253.7C163.63,-245.98 163.63,-236.71 163.63,-228.11"/>
<polygon fill="black" stroke="black" points="167.13,-228.1 163.63,-218.1 160.13,-228.1 167.13,-228.1"/>
</g>
<!-- jonaspammer.openssh -->
<g id="node7" class="node">
<title>jonaspammer.openssh</title>
<ellipse fill="orange" stroke="black" cx="1164.63" cy="-128" rx="112.38" ry="18"/>
<text text-anchor="middle" x="1164.63" y="-124.3" font-family="Open Sans" font-size="14.00">jonaspammer.openssh</text>
</g>
<!-- jonaspammer.openssh&#45;&gt;jonaspammer.bootstrap -->
<g id="edge10" class="edge">
<title>jonaspammer.openssh&#45;&gt;jonaspammer.bootstrap</title>
<path fill="none" stroke="black" d="M1082.66,-115.62C1068,-113.67 1052.87,-111.73 1038.63,-110 905.88,-93.9 752.67,-77.78 652.96,-67.62"/>
<polygon fill="black" stroke="black" points="653.18,-64.13 642.88,-66.6 652.47,-71.09 653.18,-64.13"/>
</g>
<!-- robertdebock.selinux -->
<g id="node13" class="node">
<title>robertdebock.selinux</title>
<ellipse fill="none" stroke="black" cx="1164.63" cy="-56" rx="105.88" ry="18"/>
<text text-anchor="middle" x="1164.63" y="-52.3" font-family="Open Sans" font-size="14.00">robertdebock.selinux</text>
</g>
<!-- jonaspammer.openssh&#45;&gt;robertdebock.selinux -->
<g id="edge11" class="edge">
<title>jonaspammer.openssh&#45;&gt;robertdebock.selinux</title>
<path fill="none" stroke="black" d="M1164.63,-109.7C1164.63,-101.98 1164.63,-92.71 1164.63,-84.11"/>
<polygon fill="black" stroke="black" points="1168.13,-84.1 1164.63,-74.1 1161.13,-84.1 1168.13,-84.1"/>
</g>
<!-- jonaspammer.motd -->
<g id="node8" class="node">
<title>jonaspammer.motd</title>
<ellipse fill="orange" stroke="black" cx="766.63" cy="-272" rx="98.28" ry="18"/>
<text text-anchor="middle" x="766.63" y="-268.3" font-family="Open Sans" font-size="14.00">jonaspammer.motd</text>
</g>
<!-- jonaspammer.motd&#45;&gt;jonaspammer.bootstrap -->
<g id="edge12" class="edge">
<title>jonaspammer.motd&#45;&gt;jonaspammer.bootstrap</title>
<path fill="none" stroke="black" d="M835.54,-259.03C869.08,-251.02 908.91,-238.15 940.63,-218 987.91,-187.95 1042.9,-151.82 1005.63,-110 983.45,-85.11 796.5,-70.2 668.14,-62.8"/>
<polygon fill="black" stroke="black" points="668.03,-59.29 657.85,-62.21 667.63,-66.27 668.03,-59.29"/>
</g>
<!-- jonaspammer.motd&#45;&gt;jonaspammer.shellcheck -->
<g id="edge13" class="edge">
<title>jonaspammer.motd&#45;&gt;jonaspammer.shellcheck</title>
<path fill="none" stroke="black" d="M714.11,-256.75C673.65,-245.77 617.48,-230.53 574.09,-218.76"/>
<polygon fill="black" stroke="black" points="574.77,-215.32 564.2,-216.08 572.93,-222.07 574.77,-215.32"/>
</g>
<!-- jonaspammer.apache2 -->
<g id="node9" class="node">
<title>jonaspammer.apache2</title>
<ellipse fill="yellow" stroke="black" cx="687.63" cy="-128" rx="113.18" ry="18"/>
<text text-anchor="middle" x="687.63" y="-124.3" font-family="Open Sans" font-size="14.00">jonaspammer.apache2</text>
</g>
<!-- jonaspammer.apache2&#45;&gt;jonaspammer.bootstrap -->
<g id="edge14" class="edge">
<title>jonaspammer.apache2&#45;&gt;jonaspammer.bootstrap</title>
<path fill="none" stroke="black" d="M654.92,-110.76C635.22,-100.98 609.93,-88.43 588.75,-77.91"/>
<polygon fill="black" stroke="black" points="590.15,-74.7 579.64,-73.39 587.04,-80.97 590.15,-74.7"/>
</g>
<!-- jonaspammer.openssl -->
<g id="node10" class="node">
<title>jonaspammer.openssl</title>
<ellipse fill="orange" stroke="black" cx="822.63" cy="-200" rx="109.38" ry="18"/>
<text text-anchor="middle" x="822.63" y="-196.3" font-family="Open Sans" font-size="14.00">jonaspammer.openssl</text>
</g>
<!-- jonaspammer.openssl&#45;&gt;jonaspammer.bootstrap -->
<g id="edge15" class="edge">
<title>jonaspammer.openssl&#45;&gt;jonaspammer.bootstrap</title>
<path fill="none" stroke="black" d="M729.79,-190.51C665.95,-182.75 588.7,-168.91 565.63,-146 549.64,-130.12 545.57,-104.32 545.1,-84.58"/>
<polygon fill="black" stroke="black" points="548.6,-84.35 545.15,-74.33 541.6,-84.31 548.6,-84.35"/>
</g>
<!-- jonaspammer.openssl&#45;&gt;jonaspammer.pip -->
<g id="edge16" class="edge">
<title>jonaspammer.openssl&#45;&gt;jonaspammer.pip</title>
<path fill="none" stroke="black" d="M843.2,-182.05C854.14,-173.05 867.75,-161.84 879.63,-152.05"/>
<polygon fill="black" stroke="black" points="882.04,-154.61 887.53,-145.55 877.59,-149.2 882.04,-154.61"/>
</g>
<!-- jonaspammer.goaccess -->
<g id="node11" class="node">
<title>jonaspammer.goaccess</title>
<ellipse fill="green" stroke="black" cx="998.63" cy="-272" rx="116.18" ry="18"/>
<text text-anchor="middle" x="998.63" y="-268.3" font-family="Open Sans" font-size="14.00">jonaspammer.goaccess</text>
</g>
<!-- jonaspammer.mediawiki -->
<g id="node12" class="node">
<title>jonaspammer.mediawiki</title>
<ellipse fill="green" stroke="black" cx="1253.63" cy="-272" rx="120.48" ry="18"/>
<text text-anchor="middle" x="1253.63" y="-268.3" font-family="Open Sans" font-size="14.00">jonaspammer.mediawiki</text>
</g>
</g>
</svg>
