<?xml version="1.0" encoding="UTF-8" standalone="no"?>
<!DOCTYPE svg PUBLIC "-//W3C//DTD SVG 1.1//EN"
 "http://www.w3.org/Graphics/SVG/1.1/DTD/svg11.dtd">
<!-- Generated by graphviz version 2.43.0 (0)
 -->
<!-- Title: hierarchy Pages: 1 -->
<svg width="1411pt" height="298pt"
 viewBox="0.00 0.00 1411.03 298.00" xmlns="http://www.w3.org/2000/svg" xmlns:xlink="http://www.w3.org/1999/xlink">
<g id="graph0" class="graph" transform="scale(1 1) rotate(0) translate(4 294)">
<title>hierarchy</title>
<polygon fill="white" stroke="transparent" points="-4,4 -4,-294 1407.03,-294 1407.03,4 -4,4"/>
<text text-anchor="middle" x="701.51" y="-22.8" font-family="Open Sans" font-size="14.00">requirements.yml dependency graph of all roles </text>
<text text-anchor="middle" x="701.51" y="-7.8" font-family="Open Sans" font-size="14.00"> Generated by JonasPammer/ansible&#45;roles</text>
<!-- jonaspammer.apache2 -->
<g id="node1" class="node">
<title>jonaspammer.apache2</title>
<ellipse fill="yellow" stroke="black" cx="1046.59" cy="-128" rx="113.18" ry="18"/>
<text text-anchor="middle" x="1046.59" y="-124.3" font-family="Open Sans" font-size="14.00">jonaspammer.apache2</text>
</g>
<!-- jonaspammer.bootstrap -->
<g id="node2" class="node">
<title>jonaspammer.bootstrap</title>
<ellipse fill="green" stroke="black" cx="671.59" cy="-56" rx="118.08" ry="18"/>
<text text-anchor="middle" x="671.59" y="-52.3" font-family="Open Sans" font-size="14.00">jonaspammer.bootstrap</text>
</g>
<!-- jonaspammer.apache2&#45;&gt;jonaspammer.bootstrap -->
<g id="edge1" class="edge">
<title>jonaspammer.apache2&#45;&gt;jonaspammer.bootstrap</title>
<path fill="none" stroke="black" d="M976.05,-113.83C912.69,-102.01 819.64,-84.64 753.11,-72.22"/>
<polygon fill="black" stroke="black" points="753.55,-68.74 743.08,-70.35 752.27,-75.62 753.55,-68.74"/>
</g>
<!-- jonaspammer.checkmk_agent -->
<g id="node3" class="node">
<title>jonaspammer.checkmk_agent</title>
<ellipse fill="orange" stroke="black" cx="145.59" cy="-272" rx="145.67" ry="18"/>
<text text-anchor="middle" x="145.59" y="-268.3" font-family="Open Sans" font-size="14.00">jonaspammer.checkmk_agent</text>
</g>
<!-- jonaspammer.checkmk_agent&#45;&gt;jonaspammer.bootstrap -->
<g id="edge2" class="edge">
<title>jonaspammer.checkmk_agent&#45;&gt;jonaspammer.bootstrap</title>
<path fill="none" stroke="black" d="M112.48,-254.43C98.71,-245.65 84.2,-233.45 76.59,-218 69.51,-203.65 67.78,-195.36 76.59,-182 127.94,-104.13 392,-74.2 550.58,-63.13"/>
<polygon fill="black" stroke="black" points="551.13,-66.6 560.87,-62.43 550.65,-59.62 551.13,-66.6"/>
</g>
<!-- jonaspammer.checkmk_server -->
<g id="node4" class="node">
<title>jonaspammer.checkmk_server</title>
<ellipse fill="orange" stroke="black" cx="233.59" cy="-200" rx="148.37" ry="18"/>
<text text-anchor="middle" x="233.59" y="-196.3" font-family="Open Sans" font-size="14.00">jonaspammer.checkmk_server</text>
</g>
<!-- jonaspammer.checkmk_agent&#45;&gt;jonaspammer.checkmk_server -->
<g id="edge3" class="edge">
<title>jonaspammer.checkmk_agent&#45;&gt;jonaspammer.checkmk_server</title>
<path fill="none" stroke="black" d="M166.89,-254.05C178.05,-245.18 191.89,-234.17 204.07,-224.48"/>
<polygon fill="black" stroke="black" points="206.53,-227 212.18,-218.03 202.17,-221.52 206.53,-227"/>
</g>
<!-- jonaspammer.checkmk_server&#45;&gt;jonaspammer.bootstrap -->
<g id="edge4" class="edge">
<title>jonaspammer.checkmk_server&#45;&gt;jonaspammer.bootstrap</title>
<path fill="none" stroke="black" d="M236.4,-181.79C240.75,-161.18 251.18,-127.28 274.59,-110 316.64,-78.96 446.21,-66.1 546.01,-60.77"/>
<polygon fill="black" stroke="black" points="546.38,-64.25 556.18,-60.25 546.02,-57.26 546.38,-64.25"/>
</g>
<!-- jonaspammer.core_dependencies -->
<g id="node5" class="node">
<title>jonaspammer.core_dependencies</title>
<ellipse fill="yellow" stroke="black" cx="444.59" cy="-128" rx="161.37" ry="18"/>
<text text-anchor="middle" x="444.59" y="-124.3" font-family="Open Sans" font-size="14.00">jonaspammer.core_dependencies</text>
</g>
<!-- jonaspammer.checkmk_server&#45;&gt;jonaspammer.core_dependencies -->
<g id="edge5" class="edge">
<title>jonaspammer.checkmk_server&#45;&gt;jonaspammer.core_dependencies</title>
<path fill="none" stroke="black" d="M281.99,-182.94C312.87,-172.7 353.08,-159.36 385.78,-148.51"/>
<polygon fill="black" stroke="black" points="387.28,-151.7 395.67,-145.23 385.08,-145.05 387.28,-151.7"/>
</g>
<!-- jonaspammer.core_dependencies&#45;&gt;jonaspammer.bootstrap -->
<g id="edge6" class="edge">
<title>jonaspammer.core_dependencies&#45;&gt;jonaspammer.bootstrap</title>
<path fill="none" stroke="black" d="M496.67,-110.94C531,-100.35 576.08,-86.45 611.87,-75.42"/>
<polygon fill="black" stroke="black" points="613.18,-78.68 621.7,-72.38 611.11,-71.99 613.18,-78.68"/>
</g>
<!-- jonaspammer.goaccess -->
<g id="node6" class="node">
<title>jonaspammer.goaccess</title>
<ellipse fill="green" stroke="black" cx="828.59" cy="-272" rx="116.18" ry="18"/>
<text text-anchor="middle" x="828.59" y="-268.3" font-family="Open Sans" font-size="14.00">jonaspammer.goaccess</text>
</g>
<!-- jonaspammer.mediawiki -->
<g id="node7" class="node">
<title>jonaspammer.mediawiki</title>
<ellipse fill="green" stroke="black" cx="1083.59" cy="-272" rx="120.48" ry="18"/>
<text text-anchor="middle" x="1083.59" y="-268.3" font-family="Open Sans" font-size="14.00">jonaspammer.mediawiki</text>
</g>
<!-- jonaspammer.motd -->
<g id="node8" class="node">
<title>jonaspammer.motd</title>
<ellipse fill="orange" stroke="black" cx="596.59" cy="-272" rx="98.28" ry="18"/>
<text text-anchor="middle" x="596.59" y="-268.3" font-family="Open Sans" font-size="14.00">jonaspammer.motd</text>
</g>
<!-- jonaspammer.motd&#45;&gt;jonaspammer.bootstrap -->
<g id="edge7" class="edge">
<title>jonaspammer.motd&#45;&gt;jonaspammer.bootstrap</title>
<path fill="none" stroke="black" d="M620.82,-254.41C632.41,-245.11 645.32,-232.48 652.59,-218 674.14,-175.06 675.4,-117.8 673.84,-84.41"/>
<polygon fill="black" stroke="black" points="677.32,-83.83 673.23,-74.06 670.33,-84.24 677.32,-83.83"/>
</g>
<!-- jonaspammer.shellcheck -->
<g id="node12" class="node">
<title>jonaspammer.shellcheck</title>
<ellipse fill="orange" stroke="black" cx="521.59" cy="-200" rx="122.38" ry="18"/>
<text text-anchor="middle" x="521.59" y="-196.3" font-family="Open Sans" font-size="14.00">jonaspammer.shellcheck</text>
</g>
<!-- jonaspammer.motd&#45;&gt;jonaspammer.shellcheck -->
<g id="edge8" class="edge">
<title>jonaspammer.motd&#45;&gt;jonaspammer.shellcheck</title>
<path fill="none" stroke="black" d="M578.43,-254.05C569.1,-245.35 557.58,-234.59 547.35,-225.04"/>
<polygon fill="black" stroke="black" points="549.53,-222.3 539.84,-218.03 544.76,-227.41 549.53,-222.3"/>
</g>
<!-- jonaspammer.openssh -->
<g id="node9" class="node">
<title>jonaspammer.openssh</title>
<ellipse fill="orange" stroke="black" cx="1290.59" cy="-128" rx="112.38" ry="18"/>
<text text-anchor="middle" x="1290.59" y="-124.3" font-family="Open Sans" font-size="14.00">jonaspammer.openssh</text>
</g>
<!-- jonaspammer.openssh&#45;&gt;jonaspammer.bootstrap -->
<g id="edge9" class="edge">
<title>jonaspammer.openssh&#45;&gt;jonaspammer.bootstrap</title>
<path fill="none" stroke="black" d="M1209.92,-115.39C1196.14,-113.51 1181.96,-111.64 1168.59,-110 1034.32,-93.49 879.27,-77.43 778.55,-67.4"/>
<polygon fill="black" stroke="black" points="778.66,-63.9 768.36,-66.39 777.97,-70.86 778.66,-63.9"/>
</g>
<!-- robertdebock.selinux -->
<g id="node13" class="node">
<title>robertdebock.selinux</title>
<ellipse fill="none" stroke="black" cx="1290.59" cy="-56" rx="105.88" ry="18"/>
<text text-anchor="middle" x="1290.59" y="-52.3" font-family="Open Sans" font-size="14.00">robertdebock.selinux</text>
</g>
<!-- jonaspammer.openssh&#45;&gt;robertdebock.selinux -->
<g id="edge10" class="edge">
<title>jonaspammer.openssh&#45;&gt;robertdebock.selinux</title>
<path fill="none" stroke="black" d="M1290.59,-109.7C1290.59,-101.98 1290.59,-92.71 1290.59,-84.11"/>
<polygon fill="black" stroke="black" points="1294.09,-84.1 1290.59,-74.1 1287.09,-84.1 1294.09,-84.1"/>
</g>
<!-- jonaspammer.openssl -->
<g id="node10" class="node">
<title>jonaspammer.openssl</title>
<ellipse fill="orange" stroke="black" cx="857.59" cy="-200" rx="109.38" ry="18"/>
<text text-anchor="middle" x="857.59" y="-196.3" font-family="Open Sans" font-size="14.00">jonaspammer.openssl</text>
</g>
<!-- jonaspammer.openssl&#45;&gt;jonaspammer.bootstrap -->
<g id="edge11" class="edge">
<title>jonaspammer.openssl&#45;&gt;jonaspammer.bootstrap</title>
<path fill="none" stroke="black" d="M871.73,-181.95C885.88,-162.73 903.32,-131.36 886.59,-110 871.75,-91.07 820.06,-77.98 771.07,-69.55"/>
<polygon fill="black" stroke="black" points="771.44,-66.06 761,-67.87 770.29,-72.96 771.44,-66.06"/>
</g>
<!-- jonaspammer.pip -->
<g id="node11" class="node">
<title>jonaspammer.pip</title>
<ellipse fill="yellow" stroke="black" cx="788.59" cy="-128" rx="89.08" ry="18"/>
<text text-anchor="middle" x="788.59" y="-124.3" font-family="Open Sans" font-size="14.00">jonaspammer.pip</text>
</g>
<!-- jonaspammer.openssl&#45;&gt;jonaspammer.pip -->
<g id="edge12" class="edge">
<title>jonaspammer.openssl&#45;&gt;jonaspammer.pip</title>
<path fill="none" stroke="black" d="M840.88,-182.05C832.32,-173.37 821.75,-162.64 812.36,-153.11"/>
<polygon fill="black" stroke="black" points="814.65,-150.45 805.14,-145.79 809.66,-155.37 814.65,-150.45"/>
</g>
<!-- jonaspammer.pip&#45;&gt;jonaspammer.bootstrap -->
<g id="edge13" class="edge">
<title>jonaspammer.pip&#45;&gt;jonaspammer.bootstrap</title>
<path fill="none" stroke="black" d="M761.45,-110.76C745.58,-101.27 725.35,-89.17 708.1,-78.84"/>
<polygon fill="black" stroke="black" points="709.77,-75.76 699.39,-73.63 706.17,-81.77 709.77,-75.76"/>
</g>
<!-- jonaspammer.shellcheck&#45;&gt;jonaspammer.bootstrap -->
<g id="edge14" class="edge">
<title>jonaspammer.shellcheck&#45;&gt;jonaspammer.bootstrap</title>
<path fill="none" stroke="black" d="M559.21,-182.79C577.33,-173.75 598.55,-161.23 614.59,-146 633.6,-127.95 649.14,-102.33 659.17,-83.21"/>
<polygon fill="black" stroke="black" points="662.36,-84.64 663.77,-74.14 656.12,-81.47 662.36,-84.64"/>
</g>
<!-- jonaspammer.shellcheck&#45;&gt;jonaspammer.core_dependencies -->
<g id="edge15" class="edge">
<title>jonaspammer.shellcheck&#45;&gt;jonaspammer.core_dependencies</title>
<path fill="none" stroke="black" d="M502.95,-182.05C493.28,-173.26 481.31,-162.38 470.73,-152.76"/>
<polygon fill="black" stroke="black" points="473.08,-150.17 463.32,-146.03 468.37,-155.35 473.08,-150.17"/>
</g>
</g>
</svg>
